if (_typeface_js && _typeface_js.loadFace) _typeface_js.loadFace({"glyphs":{"0":{"ha":1083,"x_min":1,"x_max":981,"o":"m 981 228 q 967 94 981 150 l 947 76 q 901 -82 935 24 l 864 -72 l 882 -100 q 852 -147 858 -140 q 808 -175 846 -154 l 808 -194 q 797 -194 804 -196 q 788 -192 790 -192 q 781 -194 783 -192 l 771 -222 q 742 -228 761 -228 q 715 -231 722 -228 l 706 -250 q 581 -272 683 -258 q 449 -285 478 -285 q 365 -268 417 -285 q 285 -251 314 -251 q 236 -221 269 -251 q 174 -190 203 -190 q 142 -171 158 -190 q 118 -137 131 -154 l 118 -110 q 83 -82 115 -106 q 61 -44 61 -65 q 63 -7 61 -1 q 101 -3 82 -4 q 118 29 108 0 q 183 11 139 22 q 201 49 190 24 q 192 60 192 54 l 193 67 q 239 58 193 67 q 249 21 239 42 l 276 21 q 264 29 275 29 l 258 29 q 265 73 261 50 q 290 96 269 96 q 314 94 318 96 q 385 -21 349 13 q 514 -64 432 -64 l 528 -64 q 567 -40 549 -40 q 636 49 610 -40 q 658 179 653 106 q 743 189 688 182 q 658 197 663 197 q 665 214 665 203 q 658 235 665 225 l 658 247 q 663 285 658 261 q 668 322 668 310 l 668 328 q 657 364 657 350 l 658 375 l 678 393 l 678 413 q 673 458 678 426 q 668 506 668 489 q 674 642 674 658 q 631 804 674 756 l 631 832 q 650 828 642 828 q 656 831 656 828 q 621 860 656 839 q 617 857 618 857 q 611 864 611 857 l 613 878 q 619 883 619 882 q 616 895 619 888 q 613 906 613 903 l 631 915 l 631 933 q 643 938 632 935 q 650 943 647 939 l 644 943 q 628 938 638 944 q 613 932 618 932 l 603 933 l 613 971 q 589 976 606 976 q 565 981 572 976 l 565 1008 q 532 1008 565 1008 q 510 1022 526 1008 q 490 1036 494 1035 l 500 999 q 472 990 489 999 q 497 996 481 990 q 521 1000 513 1001 l 528 999 l 556 971 q 536 957 536 964 l 538 953 q 573 935 563 954 q 593 897 583 917 q 585 896 586 897 q 583 890 583 894 q 585 883 585 886 l 585 878 q 426 878 426 878 q 426 844 426 878 l 426 840 l 407 840 q 331 581 354 729 q 304 310 321 518 q 273 341 276 335 q 268 379 269 347 l 267 403 l 233 403 q 119 406 235 403 q 6 403 51 407 q 15 435 8 414 q 25 468 22 457 q 38 456 28 456 q 43 458 40 456 q 15 486 36 472 q 18 536 21 489 q 14 594 14 594 l 15 617 q 53 714 49 674 q 71 794 60 765 l 90 794 q 89 822 89 792 q 90 832 89 828 l 118 850 q 156 933 126 881 q 193 953 169 938 q 435 1088 313 1088 q 482 1083 457 1088 q 472 1101 472 1090 l 482 1111 l 490 1111 l 490 1093 q 547 1111 510 1101 l 547 1101 q 568 1097 565 1101 l 556 1093 q 818 979 711 1076 q 947 729 925 882 q 947 710 947 729 q 911 701 935 707 q 919 674 924 676 l 947 674 l 947 654 q 890 661 903 661 q 881 658 881 661 q 967 626 881 649 q 965 618 967 619 q 960 617 964 617 q 953 618 956 618 l 947 617 q 946 581 946 621 l 947 571 l 967 561 l 965 556 q 975 543 965 546 q 939 506 964 531 q 950 490 946 490 q 967 486 954 490 q 965 468 967 481 q 964 449 964 456 q 967 431 964 442 q 944 442 958 442 q 939 440 940 442 l 939 413 l 967 413 q 967 399 967 413 q 975 393 967 401 q 978 311 975 367 q 981 228 981 256 m 314 104 q 290 115 307 106 q 263 124 274 124 l 258 124 l 258 104 l 231 86 l 165 104 l 174 94 q 169 92 171 97 q 193 86 169 86 l 174 58 q 151 52 167 53 q 128 49 135 51 q 105 28 121 46 q 74 11 89 11 q 19 72 29 11 q 15 169 18 121 l 1 169 q 15 171 15 169 q 6 179 15 175 q 8 282 11 221 q 6 385 6 385 l 35 393 q 118 375 63 386 l 118 347 q 231 365 156 356 l 239 347 l 193 347 l 211 328 q 286 319 211 328 q 301 211 299 285 q 314 104 304 138 m 547 1051 q 528 1070 543 1063 q 500 1083 514 1078 l 500 1046 q 528 1043 519 1043 q 547 1051 547 1043 m 893 686 q 864 719 893 706 l 874 682 q 886 679 882 679 q 893 686 893 679 m 825 740 q 792 807 825 754 q 747 860 760 860 q 724 860 724 860 l 733 840 l 696 794 q 771 804 721 796 q 799 729 779 779 q 825 740 825 729 m 924 600 l 914 604 l 882 617 l 882 599 l 919 599 q 924 600 922 599 m 758 738 q 733 757 744 754 l 743 739 q 754 736 751 736 q 758 738 757 736 m 843 557 q 833 563 843 563 l 826 561 q 813 533 813 544 q 821 529 815 529 q 836 533 824 529 q 843 557 843 551 m 882 468 q 879 482 879 469 q 871 488 879 488 q 847 479 847 488 q 882 468 863 471 m 789 496 q 761 506 750 506 q 758 501 758 506 q 771 478 758 494 l 789 496 m 882 393 q 854 403 872 403 l 854 385 q 882 393 882 385 m 883 325 q 856 338 883 338 q 828 333 828 338 l 882 319 l 883 325 m 808 319 q 804 332 804 321 q 789 338 804 338 l 789 319 l 808 319 m 874 278 q 789 282 846 282 l 781 254 q 867 274 810 261 q 874 278 874 281 m 731 328 q 706 347 717 344 l 715 328 q 726 326 718 326 q 731 328 729 326 m 743 244 q 739 257 739 246 q 724 263 739 263 l 724 244 l 743 244 m 831 -56 q 799 -36 831 -43 l 808 -54 q 825 -58 825 -58 q 831 -56 831 -58 m 275 271 q 265 274 274 274 q 249 264 249 274 q 267 254 249 254 q 275 271 275 263 m 78 454 q 53 468 68 465 l 53 449 l 65 449 q 78 454 78 449 m 663 -162 q 631 -147 650 -150 l 631 -165 l 649 -168 q 663 -162 663 -168 m 713 -196 q 701 -193 710 -193 l 696 -194 q 679 -219 679 -211 q 690 -222 682 -222 l 696 -222 q 713 -196 713 -206 m 201 207 q 199 221 199 208 q 193 226 199 226 q 174 221 174 226 q 201 207 174 214 m 561 -160 q 528 -147 549 -150 l 528 -165 l 540 -167 q 561 -160 561 -167 m 203 139 q 199 142 203 142 q 185 133 185 142 q 201 124 185 124 q 203 139 203 119 m 106 208 q 71 244 106 221 l 64 244 q 35 244 35 244 l 35 225 q 81 225 35 225 l 90 207 l 101 206 q 106 208 106 206 m 361 -137 q 361 -122 361 -137 l 361 -122 q 351 -119 361 -119 l 361 -137 m 221 11 q 218 25 218 13 q 211 31 218 31 q 192 25 192 31 q 221 11 192 18 m 211 -26 q 208 -12 208 -25 q 193 -7 208 -7 l 193 -26 l 211 -26 m 106 103 q 99 106 103 106 q 69 101 89 106 q 43 94 50 96 q 51 84 47 93 q 65 75 56 75 q 89 86 72 75 q 106 103 106 97 m 286 -92 l 267 -92 l 268 -65 l 267 -54 l 249 -54 l 249 -72 q 232 -68 232 -72 q 239 -64 233 -67 q 215 -61 225 -61 q 207 -64 207 -61 q 258 -92 207 -67 l 258 -129 l 276 -129 l 286 -92 m 285 -179 q 258 -175 276 -172 l 258 -137 l 231 -137 l 232 -147 q 227 -157 232 -151 q 221 -165 222 -162 q 235 -176 232 -171 q 239 -194 238 -193 q 285 -179 285 -183 z "},"1":{"ha":1035,"x_min":0,"x_max":972,"o":"m 361 1057 l 350 1043 q 339 1075 339 1063 q 347 1082 339 1082 q 361 1057 361 1082 m 972 -107 q 968 -187 972 -137 q 961 -268 963 -251 q 861 -279 951 -269 q 760 -286 800 -286 q 715 -285 719 -286 q 699 -256 699 -281 q 681 -249 699 -249 l 671 -278 l 564 -278 q 574 -249 565 -268 q 596 -243 578 -244 q 614 -233 614 -242 q 603 -210 614 -225 q 671 -181 647 -190 l 671 -229 l 700 -229 q 690 -157 690 -174 q 700 -103 690 -128 q 718 -83 717 -93 l 690 -83 q 642 -181 654 -99 l 614 -179 q 593 -210 593 -178 l 564 -190 l 574 -161 q 604 -156 576 -160 q 626 -146 626 -153 q 603 -132 626 -140 q 581 -137 583 -132 q 599 -143 596 -137 q 568 -156 586 -156 q 544 -151 563 -151 q 544 -165 544 -151 q 535 -171 544 -169 q 564 -268 547 -203 q 506 -274 525 -274 q 438 -239 481 -274 q 457 -181 444 -207 l 418 -181 l 417 -178 q 422 -168 417 -174 q 428 -157 428 -162 l 428 -151 l 399 -122 q 400 -82 400 -126 l 399 -74 l 369 -74 q 379 -181 379 -196 q 365 -185 372 -183 q 360 -200 364 -186 l 379 -200 q 399 -258 385 -219 q 360 -239 372 -256 l 340 -268 q 240 -279 304 -279 q 78 -268 222 -279 l 78 -249 l 107 -249 q 122 -210 114 -236 q 136 -171 131 -183 l 117 -171 q 97 -210 110 -183 q 78 -249 85 -236 q 42 -235 42 -240 q 49 -229 42 -233 l 19 -229 l 18 -175 l 19 -54 q 194 -43 83 -47 q 369 -35 318 -39 l 369 4 l 350 4 q 358 -24 358 -21 q 357 -28 358 -26 q 351 -25 353 -28 q 344 -10 350 -22 q 339 8 339 1 l 340 14 l 360 33 l 360 43 q 349 96 361 61 q 331 150 332 142 l 354 149 l 379 150 l 340 179 l 340 296 q 360 315 360 303 l 340 335 q 338 360 338 343 q 339 391 338 371 q 340 421 340 411 q 389 421 350 424 l 389 450 q 340 450 372 456 l 340 460 q 350 693 340 686 l 340 713 q 336 719 336 715 q 350 742 336 728 l 340 771 q 369 781 351 778 l 340 790 q 342 850 342 810 l 340 878 q 163 893 217 893 q 88 888 121 893 l 88 890 q 94 899 88 893 q 101 911 101 906 q 87 926 101 915 q 72 939 72 936 q 75 949 75 939 q 68 975 75 954 q 76 983 76 983 q 69 985 75 985 l 49 985 l 49 965 l 39 965 l 49 897 l 42 899 q 10 888 36 899 q 6 917 13 899 q 0 943 0 936 q 9 1030 0 974 q 19 1111 18 1086 q 56 1113 32 1111 q 92 1114 81 1114 q 125 1110 115 1114 q 143 1092 135 1106 q 126 1092 139 1088 l 117 1072 q 156 1014 131 1054 q 143 1017 147 1017 q 138 1014 138 1017 q 156 994 138 1007 q 176 1017 176 1000 q 165 1050 176 1032 q 146 1082 147 1079 q 151 1097 146 1097 q 156 1092 154 1096 l 156 1101 q 253 1107 199 1107 q 340 1101 301 1107 q 311 1082 340 1076 l 311 1053 q 319 1049 318 1053 q 321 1040 321 1046 q 319 1031 319 1032 l 321 1024 q 367 1032 363 1032 q 389 965 369 1032 l 408 965 l 428 994 q 389 1024 415 1004 l 399 1043 l 399 1101 q 554 1104 501 1104 q 651 1101 618 1104 q 656 909 651 1038 q 661 717 661 781 q 632 661 661 661 q 607 663 624 661 q 583 664 590 664 l 574 693 q 551 692 576 692 q 544 693 547 692 l 544 732 l 542 733 q 528 727 539 733 q 511 721 518 721 q 484 742 494 721 q 476 781 474 764 l 457 781 q 461 776 461 779 q 438 771 461 771 l 428 800 l 422 800 q 408 781 413 800 l 404 781 q 394 786 401 781 q 379 790 388 792 l 379 761 q 424 754 401 758 q 458 735 458 747 q 444 718 444 725 q 447 713 444 714 l 438 713 q 447 693 447 696 q 476 703 457 696 q 506 713 496 710 q 515 674 507 700 q 582 649 524 660 q 661 635 661 635 l 660 618 l 661 567 q 604 588 619 588 q 587 574 596 588 q 574 557 578 560 q 592 545 579 556 q 613 535 604 535 q 661 547 628 542 q 663 513 661 536 q 664 476 664 489 q 663 445 664 467 q 661 413 661 424 q 615 410 646 410 q 549 418 596 410 q 483 424 507 426 l 457 421 q 535 374 482 404 l 515 344 q 539 343 513 343 q 556 360 549 343 q 564 383 560 371 q 661 374 596 381 q 651 267 658 338 l 622 267 q 635 256 626 263 q 643 258 636 258 l 651 257 l 651 218 q 583 208 628 218 l 574 179 q 525 169 558 178 q 554 101 533 146 l 583 101 q 569 63 576 82 q 540 40 558 40 q 486 53 524 40 l 486 33 l 574 14 q 535 -6 564 7 l 535 -25 q 556 -12 547 -12 q 560 -19 560 -12 q 548 -57 560 -32 q 525 -93 536 -82 q 532 -90 526 -90 q 535 -132 535 -90 q 547 -132 535 -132 q 554 -142 544 -132 q 622 -64 603 -100 q 583 -43 583 -60 q 593 -35 583 -40 q 608 -32 608 -35 q 592 -18 608 -28 q 574 -3 575 -8 q 632 -15 593 -7 l 642 4 q 624 0 633 0 q 615 4 615 0 q 624 22 615 13 q 642 33 633 32 l 613 33 q 603 121 608 63 l 632 131 q 632 169 635 143 l 651 169 q 661 -54 651 49 q 971 -35 806 -35 l 972 -107 m 47 -253 l 39 -268 q 17 -256 17 -262 q 38 -247 22 -247 q 47 -253 47 -247 m 457 881 l 457 936 q 418 956 442 940 q 418 897 418 956 q 438 884 422 896 q 456 872 454 872 q 457 881 457 875 m 485 819 q 457 839 475 836 l 457 810 l 467 810 q 485 819 485 806 m 632 489 q 603 518 624 500 l 603 469 q 617 469 603 469 q 622 479 622 469 q 626 475 624 475 q 630 482 628 475 q 632 489 632 489 m 160 942 q 136 956 160 956 q 129 953 129 956 q 156 926 129 942 q 160 942 160 933 m 561 515 q 554 528 561 521 l 525 538 q 535 499 526 528 l 531 500 q 524 496 524 500 q 525 479 524 472 l 554 489 l 553 493 q 557 504 553 497 q 561 515 561 511 m 521 440 q 506 460 521 444 l 515 440 l 519 439 l 521 440 m 468 438 q 444 451 468 451 q 431 449 432 451 q 467 431 431 449 l 468 438 m 449 419 q 444 424 449 424 l 438 421 q 422 401 422 415 q 428 400 424 400 l 438 403 q 449 419 449 419 m 628 236 q 621 239 626 239 l 613 238 q 596 218 596 225 q 603 217 597 217 l 613 218 q 628 236 628 228 m 369 383 q 369 399 369 383 q 360 403 369 403 l 369 383 m 515 228 q 515 243 515 228 q 506 247 515 247 l 515 228 m 396 329 q 369 344 385 342 l 369 325 l 382 324 q 396 329 396 324 m 544 208 q 541 219 540 210 q 535 229 542 229 q 531 229 533 229 q 525 228 526 228 l 525 208 q 476 208 515 204 l 475 193 q 486 179 475 174 q 482 176 485 179 q 515 169 482 169 l 506 199 q 544 208 519 200 m 465 283 q 369 306 436 294 q 378 284 376 299 q 379 257 379 269 q 465 283 465 271 m 796 -93 l 796 -74 q 783 -72 790 -72 l 767 -74 l 796 -93 m 467 169 q 464 185 464 171 q 456 189 464 189 q 436 183 436 188 q 467 169 436 175 m 760 -121 q 746 -111 758 -111 q 719 -137 719 -111 q 744 -151 726 -154 l 747 -151 q 760 -121 760 -136 m 786 -165 q 774 -160 782 -160 q 763 -165 763 -160 q 776 -181 763 -167 q 786 -165 786 -171 m 457 121 q 444 138 456 121 q 408 150 435 149 l 399 121 l 438 140 l 436 136 q 457 121 436 118 m 738 -190 q 735 -175 735 -189 q 728 -169 735 -169 q 708 -175 708 -169 q 738 -190 708 -183 m 483 71 q 457 92 476 83 q 450 60 450 75 l 457 43 q 483 71 483 64 m 189 -108 l 188 -108 q 156 -122 176 -108 q 160 -124 158 -122 q 136 -132 160 -132 l 146 -161 q 189 -108 189 -118 z "},"2":{"ha":1139,"x_min":0,"x_max":1064,"o":"m 535 932 l 526 919 q 507 935 507 926 q 521 939 507 939 q 535 932 535 939 m 1064 -67 q 958 -47 1028 -64 l 958 -19 q 1025 -3 990 -3 q 1055 -24 1050 -3 q 1064 -67 1060 -46 m 1010 701 q 1006 651 1010 676 l 986 651 q 996 622 986 642 l 976 594 q 983 581 976 590 q 989 565 989 571 q 968 543 989 550 q 939 526 943 533 q 924 470 931 513 q 910 413 918 428 l 890 413 l 863 364 q 814 344 846 360 q 781 300 799 332 q 719 290 776 290 q 708 288 714 290 l 708 265 q 699 239 708 247 l 671 239 q 656 219 660 235 q 621 203 651 203 q 588 171 610 203 q 556 135 567 139 l 526 135 q 513 106 519 128 q 499 76 507 85 l 469 76 q 444 41 457 72 q 414 7 432 10 l 432 29 q 421 10 431 22 q 413 39 413 15 l 383 19 q 368 25 368 19 q 403 47 383 46 q 410 68 410 65 q 397 78 410 78 q 385 72 390 78 q 376 67 381 67 l 374 67 l 374 96 l 365 97 q 353 90 361 97 q 335 86 344 83 q 333 50 333 90 q 335 39 333 42 l 354 39 q 360 16 357 28 q 374 0 364 4 l 374 -10 q 450 -25 403 -25 q 545 -17 482 -25 q 639 -8 608 -8 q 708 -19 683 -8 q 717 -35 714 -22 q 738 -47 721 -47 l 728 -19 q 781 -24 746 -22 q 833 -29 817 -26 l 833 -47 q 846 -44 842 -44 q 851 -50 851 -44 q 844 -72 851 -57 q 838 -94 838 -86 q 843 -106 838 -101 q 849 -103 846 -103 q 850 -104 850 -103 q 833 -143 850 -118 l 794 -143 q 799 -146 797 -144 q 787 -158 799 -151 q 771 -162 775 -164 l 767 -162 l 767 -143 l 776 -143 l 776 -135 q 747 -125 747 -125 q 714 -135 717 -125 q 699 -153 711 -149 q 610 -167 654 -160 q 556 -224 556 -178 q 565 -268 556 -236 q 475 -282 544 -282 q 314 -270 421 -282 q 154 -258 207 -258 q 94 -263 133 -258 q 39 -268 56 -268 q 33 -245 39 -261 q 28 -219 28 -229 q 38 -204 28 -206 q 57 -201 56 -201 q 47 -137 47 -153 q 76 -29 47 -126 l 96 -29 q 106 19 96 -11 q 124 31 114 31 q 129 31 125 31 q 133 29 133 29 q 143 69 143 29 l 143 76 l 163 76 q 172 125 164 93 l 192 125 q 229 186 218 181 q 268 211 258 201 q 278 231 272 218 q 288 249 285 243 l 317 249 l 317 268 l 321 268 q 335 249 331 268 l 339 249 q 383 268 354 249 q 431 257 399 269 q 479 239 456 249 l 479 258 q 471 256 474 256 l 471 257 q 489 278 471 265 l 450 288 q 453 285 453 288 q 413 268 453 278 q 411 299 411 264 q 422 324 411 310 q 440 344 439 342 l 450 344 q 449 376 449 339 l 450 383 q 484 405 457 393 q 517 421 511 417 q 594 489 564 458 q 613 522 603 497 q 632 556 622 547 q 661 565 643 556 q 685 656 685 597 q 678 726 685 681 q 672 796 672 772 l 671 804 l 661 804 l 622 872 q 594 881 611 874 l 593 886 q 603 890 593 906 q 582 904 582 897 q 585 914 582 907 q 589 926 589 921 q 565 939 583 936 l 565 958 q 592 969 592 958 q 576 979 592 979 q 565 968 571 979 q 546 958 558 957 l 546 976 l 514 975 l 499 976 q 494 947 494 964 q 517 910 494 913 q 500 910 511 908 q 485 913 489 913 q 449 889 467 913 q 383 865 432 865 q 374 863 379 865 l 374 833 q 350 819 371 825 q 325 804 329 814 l 325 776 q 303 788 310 788 q 296 783 296 788 q 301 772 296 781 q 307 757 307 764 q 294 719 307 747 q 278 681 279 685 l 258 681 q 260 658 260 683 q 258 651 260 654 q 128 715 204 669 q 0 786 24 775 q 10 824 3 799 l 29 824 q 29 835 31 828 q 26 846 26 843 q 40 862 26 856 q 57 872 54 868 q 76 929 60 893 q 101 942 82 936 q 125 958 119 949 q 135 986 125 971 l 163 986 q 192 1025 171 1001 q 226 1036 203 1032 q 258 1044 250 1040 q 339 1081 299 1063 q 433 1090 347 1083 l 450 1092 q 483 1111 456 1111 q 618 1098 496 1111 q 747 1082 740 1085 q 781 1064 763 1078 q 826 1056 793 1056 l 833 1054 l 833 1035 q 890 996 863 1019 q 881 967 881 963 l 881 958 q 900 958 889 957 q 918 961 914 961 q 985 847 953 961 q 1010 701 1010 753 m 1064 -106 q 1054 -278 1051 -235 q 804 -268 971 -268 q 843 -182 824 -224 q 883 -192 892 -192 l 890 -192 l 900 -153 l 904 -153 q 913 -160 908 -153 q 919 -167 917 -167 q 929 -162 925 -167 l 939 -106 q 913 -107 931 -106 q 888 -108 896 -108 q 881 -106 881 -108 q 910 -76 881 -106 l 908 -78 l 907 -76 q 930 -60 907 -74 q 958 -47 953 -47 l 958 -67 q 993 -65 954 -65 q 1006 -67 1001 -65 l 1015 -86 q 1064 -106 1032 -93 m 882 -158 q 875 -164 882 -164 l 872 -162 q 860 -146 860 -154 q 864 -143 860 -143 q 882 -158 882 -143 m 750 -137 q 738 -162 750 -147 q 732 -146 732 -154 q 747 -135 732 -135 q 750 -137 750 -135 m 786 -268 q 594 -268 786 -268 q 575 -239 593 -260 l 574 -229 q 636 -181 569 -199 q 728 -162 682 -171 l 747 -192 q 778 -190 743 -190 l 786 -192 q 786 -268 786 -192 m 699 986 q 671 996 689 996 l 671 976 q 699 986 699 976 m 650 983 q 639 988 646 988 q 619 977 631 988 q 608 958 608 967 q 618 954 613 954 q 632 958 619 954 l 632 976 q 650 983 650 976 m 613 1006 l 613 1025 l 594 1025 l 594 1006 l 589 1006 q 546 1015 594 1006 l 536 996 l 613 1006 m 939 575 q 935 586 933 579 q 938 599 938 600 q 928 604 938 604 l 919 603 l 910 575 l 939 575 m 976 603 q 973 625 976 610 q 969 647 969 640 q 976 690 969 660 q 939 708 968 694 q 939 651 939 708 q 903 656 922 656 q 835 646 878 656 q 767 632 786 633 q 747 565 761 610 l 767 556 q 782 524 778 524 q 776 603 785 568 q 814 622 793 608 l 814 603 q 897 615 864 615 q 976 603 932 615 m 488 968 q 479 996 488 979 q 440 1006 465 997 q 449 975 444 1001 q 475 954 451 954 q 488 968 488 954 m 717 572 q 708 576 715 576 q 694 561 694 576 q 699 546 694 553 q 717 572 717 551 m 699 268 l 699 288 q 642 307 683 292 l 632 278 l 565 278 q 546 344 551 322 l 517 335 q 512 345 515 335 q 494 356 508 356 l 489 354 q 464 329 464 338 q 508 317 464 325 l 508 288 q 556 270 518 282 q 603 258 594 258 l 632 278 l 642 278 q 699 268 657 278 m 532 231 q 499 249 524 236 l 489 231 l 526 229 q 532 231 529 229 m 563 163 q 536 182 550 178 l 546 163 q 558 160 554 160 q 563 163 563 161 m 765 -106 q 738 -96 756 -96 l 738 -115 q 765 -106 765 -115 m 378 135 q 361 144 378 144 q 347 140 347 143 q 374 125 347 132 q 378 135 378 133 m 546 -143 q 543 -129 543 -142 q 526 -125 543 -125 l 526 -143 l 546 -143 m 571 -164 q 564 -161 569 -161 q 556 -162 558 -161 l 556 -182 q 531 -190 531 -182 q 546 -194 538 -194 q 556 -192 550 -194 q 571 -164 571 -172 m 421 -110 q 413 -67 421 -94 l 393 -67 q 393 -106 393 -67 l 403 -125 q 411 -126 406 -126 q 421 -110 421 -126 m 331 -60 q 297 -29 331 -54 q 308 -46 301 -31 q 329 -61 315 -61 q 331 -60 331 -61 m 435 -149 l 383 -135 l 374 -153 l 431 -149 q 435 -149 432 -149 m 336 -178 l 335 -172 q 297 -172 335 -172 q 299 -174 297 -174 q 300 -175 300 -174 l 299 -175 q 268 -162 289 -175 l 268 -143 l 239 -135 l 239 -106 l 211 -106 q 213 -62 211 -83 q 221 -19 213 -35 l 239 -19 q 249 10 239 -7 l 278 10 l 268 29 q 307 67 282 42 q 258 96 290 75 l 258 76 q 271 82 267 82 q 274 76 274 82 q 246 19 274 60 q 211 -29 228 -6 l 192 -29 q 194 -35 194 -31 q 191 -54 194 -42 q 188 -72 188 -67 q 201 -96 188 -87 q 163 -115 188 -101 q 231 -125 189 -114 q 303 -204 246 -204 q 336 -178 336 -204 m 163 -39 q 161 -15 161 -37 q 151 -8 161 -8 l 143 -10 l 147 -10 q 136 -19 147 -12 q 125 -29 125 -25 q 142 -36 125 -35 q 163 -39 153 -37 m 211 -162 q 207 -149 207 -161 q 192 -143 207 -143 l 192 -162 l 211 -162 m 100 -206 q 76 -182 100 -185 l 76 -221 l 82 -221 q 100 -206 100 -221 z "},"3":{"ha":1108,"x_min":0,"x_max":1014,"o":"m 789 1036 q 757 1053 757 1044 q 765 1056 757 1056 q 781 1047 778 1056 q 789 1036 785 1039 m 749 1057 q 739 1053 747 1053 l 732 1054 q 722 1078 722 1071 q 726 1083 722 1083 l 732 1083 q 749 1057 749 1063 m 582 1074 l 563 1036 q 554 1038 556 1036 q 553 1042 553 1039 q 554 1050 554 1047 l 554 1054 q 543 1058 543 1060 q 544 1074 543 1079 q 557 1071 553 1071 q 525 1083 554 1078 l 525 1101 q 582 1111 544 1104 q 582 1074 581 1093 m 596 1032 q 582 1017 596 1024 l 581 1031 q 586 1038 581 1038 q 596 1032 596 1038 m 919 829 q 901 707 919 786 l 872 699 l 872 679 l 864 679 l 864 669 l 835 669 l 835 642 l 714 567 l 707 567 q 676 600 676 567 q 685 642 676 624 q 572 622 624 622 q 497 642 567 622 l 497 661 l 535 661 q 544 689 536 671 q 588 714 551 697 q 610 760 610 724 l 610 764 l 638 783 q 624 825 624 808 q 629 839 624 822 q 640 842 632 842 q 667 829 651 842 q 638 821 658 826 q 661 810 651 810 l 667 811 l 675 829 l 707 828 l 722 829 q 721 849 721 822 q 732 858 721 858 l 751 829 q 804 822 772 822 q 862 826 824 822 q 919 829 900 829 m 918 893 q 901 858 918 872 l 901 839 q 797 849 867 843 l 797 867 q 788 869 793 869 q 777 860 782 869 q 769 849 772 850 q 771 872 771 846 q 758 883 771 881 q 742 886 744 885 q 732 907 731 896 q 736 928 736 936 q 724 941 736 935 q 706 947 713 947 q 696 938 696 947 q 714 896 696 919 q 686 908 708 897 q 658 915 669 915 q 644 906 646 915 q 629 896 643 897 q 629 910 629 896 q 619 914 629 914 l 592 896 l 582 914 q 532 925 574 917 q 482 933 490 933 q 361 904 429 933 q 253 839 299 876 q 225 801 246 822 q 160 803 226 803 l 153 801 l 160 801 l 169 754 l 150 754 l 150 783 l 85 829 q 75 867 82 844 q 49 893 68 881 q 19 914 25 907 q 8 938 13 921 q 0 961 4 956 q 150 1026 50 982 q 207 1064 168 1042 q 243 1067 224 1068 q 279 1063 275 1063 l 290 1064 l 290 1083 q 349 1100 319 1092 q 407 1111 386 1111 q 455 1103 418 1111 q 493 1090 492 1094 q 469 1092 485 1089 l 469 1074 q 551 1025 536 1046 q 582 933 561 1011 l 619 933 l 619 947 q 629 979 614 976 q 621 988 621 982 q 647 999 621 990 l 657 971 l 685 971 l 685 1008 l 671 1007 q 661 1013 663 1006 q 661 1025 661 1013 q 657 1036 661 1033 q 751 1026 689 1033 l 760 999 q 783 996 776 996 q 854 1008 783 996 q 894 956 875 982 q 918 893 918 921 m 560 542 q 551 538 558 538 q 532 550 542 538 q 522 572 522 563 q 529 578 525 578 q 549 564 538 578 q 560 542 560 550 m 1014 154 l 994 154 l 1004 135 q 979 128 979 135 q 1004 126 990 121 q 996 119 996 122 q 1010 115 996 115 l 994 117 l 994 97 q 976 117 982 101 q 956 119 963 119 q 914 111 939 119 q 872 97 879 99 q 914 65 914 76 q 882 50 907 57 q 947 60 888 51 q 951 78 949 68 q 961 89 953 89 q 985 89 985 89 q 992 68 992 78 q 967 60 988 53 l 967 4 q 928 -33 960 0 q 892 -62 901 -62 q 879 -51 889 -51 l 872 -53 l 871 -64 q 882 -71 871 -76 l 872 -90 l 863 -92 q 846 -83 846 -92 q 864 -81 849 -81 l 864 -62 l 835 -62 q 807 -43 831 -50 q 797 42 801 -28 l 864 42 l 872 60 q 850 78 850 82 q 858 78 850 79 q 861 79 860 78 q 840 89 861 89 l 835 89 l 789 60 q 756 56 756 56 q 750 58 750 56 q 755 67 750 60 q 760 78 760 74 q 694 97 760 90 l 694 117 l 719 115 l 732 117 q 694 126 726 119 q 713 181 703 153 q 724 233 724 215 l 722 239 l 694 247 q 689 272 689 258 q 654 328 689 306 q 592 360 622 343 l 582 379 q 533 385 561 385 q 431 372 493 385 q 328 351 344 354 q 310 417 324 374 l 290 417 q 263 488 263 483 q 267 498 263 493 q 272 507 272 503 l 272 511 l 244 511 l 244 539 q 328 567 274 547 l 338 586 q 435 607 392 607 q 476 585 476 607 q 442 529 476 564 q 535 482 465 521 q 544 529 538 499 l 549 529 q 564 534 556 529 q 578 539 572 539 q 590 529 585 539 q 610 519 596 519 q 638 529 608 519 l 638 549 l 650 549 q 704 539 643 549 q 950 424 882 510 q 1014 154 1014 340 m 844 -108 l 835 -110 q 828 -106 828 -110 l 844 -90 l 844 -108 m 667 50 q 644 51 656 51 q 626 57 626 54 q 667 79 626 56 l 667 50 m 722 -33 l 694 -25 q 678 -44 686 -44 l 675 -43 l 675 -6 q 656 5 671 -4 q 639 17 640 14 q 657 13 646 18 q 657 29 657 13 q 667 32 657 32 q 703 10 692 32 q 722 -33 714 -11 m 801 -118 q 779 -137 801 -126 q 665 -208 765 -165 q 535 -250 571 -250 q 500 -240 517 -250 q 474 -231 483 -231 l 469 -231 l 479 -258 q 394 -268 451 -261 q 371 -258 378 -258 l 367 -258 l 357 -278 l 353 -278 q 314 -272 340 -278 q 272 -267 288 -265 l 253 -268 l 244 -278 q 57 -268 157 -268 q 36 -137 39 -217 q 28 -6 32 -32 q 242 -28 169 -28 q 302 -22 263 -28 q 361 -15 342 -15 q 387 -25 369 -15 q 417 -35 404 -35 q 422 -6 435 -35 q 497 15 442 -3 q 572 32 546 32 q 586 23 583 32 q 592 4 589 14 l 629 4 l 629 -15 l 600 -15 q 647 -47 607 -39 q 714 -53 657 -49 l 722 -71 q 707 -76 714 -74 q 704 -81 694 -81 q 672 -83 682 -83 q 642 -81 664 -83 q 610 -81 621 -79 q 633 -61 631 -76 q 625 -60 631 -60 q 590 -78 608 -60 q 563 -100 572 -97 q 531 -100 551 -103 q 497 -97 503 -97 q 490 -99 493 -97 q 525 -118 511 -114 q 486 -135 488 -128 q 507 -139 494 -140 l 525 -137 q 576 -119 546 -133 q 572 -118 579 -118 l 572 -100 l 575 -100 q 607 -110 582 -100 q 650 -121 632 -121 l 667 -118 q 693 -90 692 -92 q 725 -78 706 -79 q 751 -71 736 -78 l 742 -43 l 769 -53 l 769 -54 q 789 -81 769 -61 q 783 -106 788 -106 q 779 -100 781 -106 l 779 -118 l 794 -117 q 801 -118 801 -117 m 679 943 q 647 961 671 958 l 657 933 l 665 932 q 679 943 679 932 m 807 783 l 807 801 l 769 811 l 751 783 q 807 783 751 783 m 454 1082 q 422 1092 454 1092 l 421 1092 q 450 1074 421 1083 q 454 1082 454 1078 m 388 1050 q 357 1064 381 1061 l 367 1046 l 376 1044 q 388 1050 388 1044 m 697 721 q 647 736 674 732 l 657 717 q 697 721 697 717 m 742 624 q 738 636 738 625 q 722 642 738 642 l 722 624 l 742 624 m 996 265 q 976 276 988 275 q 981 271 981 272 q 957 267 981 267 q 967 253 961 263 q 967 239 971 240 l 994 239 l 976 257 q 996 265 996 257 m 771 422 q 751 444 771 442 l 760 417 l 764 417 q 771 422 771 417 m 218 915 q 207 924 218 918 l 197 942 q 160 942 179 940 l 169 924 q 217 914 194 914 l 218 915 m 863 229 q 835 239 853 239 l 835 219 q 863 229 863 219 m 199 875 q 150 886 186 878 l 150 867 l 192 874 q 199 875 196 874 m 113 924 q 65 924 65 924 l 85 904 l 96 903 q 108 913 106 903 q 113 924 110 922 m 589 399 q 573 413 589 401 q 554 436 557 425 l 544 397 q 575 394 564 394 q 589 399 589 394 m 424 564 q 394 576 418 574 l 404 557 l 411 556 q 424 564 424 556 m 450 474 l 422 511 q 392 510 428 510 l 385 511 q 408 529 408 511 q 385 539 404 539 q 335 524 369 539 q 282 511 301 510 q 326 492 307 492 l 328 492 l 357 511 l 385 482 q 450 474 407 481 m 469 -118 q 465 -104 465 -117 q 450 -100 465 -100 l 450 -118 l 469 -118 m 489 -160 q 450 -156 489 -156 q 441 -140 447 -154 q 422 -128 435 -126 q 371 -161 397 -144 l 404 -156 l 432 -203 l 460 -203 l 479 -165 q 489 -160 489 -156 z "},"4":{"ha":1142,"x_min":0,"x_max":1044,"o":"m 853 1043 q 833 1015 853 1035 q 822 1013 828 1013 q 818 1017 818 1014 q 850 1046 836 1046 q 853 1043 853 1046 m 669 1108 q 642 1092 669 1099 q 649 1104 643 1093 q 661 1111 653 1111 q 669 1108 669 1111 m 292 808 q 278 794 292 804 l 276 806 q 282 815 276 815 q 292 808 292 815 m 1044 106 q 1030 117 1032 110 q 1025 135 1028 125 q 993 122 1010 132 q 1006 115 996 118 l 986 86 q 910 86 986 86 q 919 43 911 76 q 925 -1 925 17 q 919 -39 925 -22 q 900 -57 904 -44 q 914 -121 914 -61 q 910 -201 914 -162 q 843 -172 888 -193 l 824 -135 q 815 -132 818 -132 q 800 -138 810 -132 q 783 -144 790 -144 l 776 -143 l 757 -115 q 735 -117 761 -117 q 728 -115 731 -117 l 728 -86 l 722 -85 q 691 -95 711 -85 q 661 -106 671 -106 q 615 -82 647 -106 q 601 -69 610 -78 q 603 -67 601 -68 q 599 -37 599 -37 q 603 -29 599 -33 l 603 0 l 610 0 q 651 -10 619 0 l 661 19 q 614 19 661 19 q 596 47 599 19 q 594 86 596 67 q 456 106 456 86 q 508 163 456 125 q 485 163 500 161 q 464 165 469 165 l 450 163 q 431 143 442 149 q 413 163 429 149 q 417 172 413 165 q 422 183 422 179 l 421 192 q 335 192 421 192 q 317 221 325 197 q 288 221 307 224 q 260 240 274 224 q 218 257 247 257 q 211 258 213 257 l 201 288 q 167 293 190 293 q 135 297 144 293 l 125 317 q 93 344 124 317 q 47 354 82 356 q 38 374 38 361 q 7 382 36 382 q 0 383 3 382 l 0 413 q 28 428 1 413 q 47 450 44 436 l 46 469 q 46 475 46 472 q 47 479 47 478 l 76 499 l 76 526 q 106 536 88 526 q 115 565 111 544 q 125 594 119 586 l 163 613 l 163 642 q 239 565 239 565 q 286 472 286 511 q 256 393 286 444 q 211 317 213 319 l 403 317 l 403 297 q 424 306 414 296 q 440 317 435 315 q 513 321 467 324 q 585 317 588 317 q 592 449 592 371 q 588 613 592 504 q 585 776 585 722 l 603 738 l 622 736 l 661 738 q 622 776 649 754 l 594 776 l 585 881 q 561 883 568 883 q 556 872 539 883 q 469 767 515 842 l 469 738 q 440 728 458 738 q 419 679 429 714 q 404 634 410 644 q 371 597 399 624 q 354 556 353 579 q 319 544 342 544 q 282 554 307 544 q 257 575 257 564 q 278 575 263 579 l 268 594 q 243 593 271 593 q 233 604 233 593 q 231 622 231 622 q 182 651 213 633 q 192 699 183 668 q 238 743 231 726 q 258 794 249 768 q 276 786 272 796 q 288 776 279 776 l 307 794 l 308 794 q 354 786 324 790 l 354 804 q 365 801 364 806 q 364 789 364 806 l 364 786 q 403 786 364 786 l 450 786 l 440 814 q 410 809 431 814 q 378 804 389 804 l 374 804 l 374 810 q 354 824 375 824 q 343 819 349 824 q 331 814 338 814 l 325 814 q 322 847 325 825 q 319 879 319 869 q 374 929 319 904 l 363 929 q 344 946 344 926 q 374 968 344 968 q 383 999 374 969 q 403 1025 389 1018 l 413 1025 q 433 1093 424 1060 q 518 1113 443 1113 q 642 1092 613 1113 l 661 1044 l 681 1044 q 681 1082 685 1053 l 699 1092 l 728 1090 q 757 1101 750 1089 q 775 1113 764 1113 l 786 1111 q 782 1086 782 1099 q 799 1069 782 1069 q 833 1082 811 1069 l 833 1054 l 747 1025 q 768 1026 744 1026 q 804 1006 768 1026 l 794 986 q 868 986 794 986 l 872 986 q 878 882 878 942 q 872 738 878 835 q 875 731 879 735 q 869 725 869 725 q 872 725 869 725 l 881 728 l 872 699 q 899 576 886 638 q 914 454 914 503 q 913 419 914 436 l 910 393 q 890 364 894 382 q 904 367 899 367 q 906 365 906 367 q 881 344 906 361 l 900 344 l 910 317 q 946 310 924 310 q 992 317 963 310 q 1035 325 1021 325 l 1044 297 q 1025 286 1025 297 q 1044 278 1033 272 q 1035 259 1042 272 q 1025 239 1029 246 q 994 250 999 250 l 986 249 l 986 221 l 1044 192 l 1043 133 l 1044 106 m 776 -172 q 738 -172 738 -172 q 733 -153 733 -164 q 754 -133 733 -133 q 765 -146 765 -133 l 767 -153 l 776 -153 l 776 -172 m 718 -143 q 693 -149 693 -143 q 699 -153 694 -150 q 672 -133 672 -153 q 690 -115 679 -115 l 718 -143 m 869 -243 l 863 -258 q 747 -271 854 -264 q 613 -278 614 -278 q 604 -233 604 -250 q 613 -231 604 -219 q 603 -193 611 -222 q 597 -154 597 -169 q 608 -133 597 -133 q 622 -172 640 -133 l 622 -203 l 624 -204 q 661 -172 618 -204 l 671 -211 l 675 -211 q 681 -211 682 -211 l 671 -214 l 642 -221 l 642 -249 q 736 -192 725 -190 l 738 -192 l 738 -194 q 757 -211 738 -208 l 767 -192 q 863 -221 797 -197 q 869 -243 869 -232 m 626 -100 q 613 -115 626 -108 l 611 -104 q 618 -94 611 -94 q 626 -100 626 -94 m 421 86 q 354 96 399 88 l 344 115 q 319 101 328 117 q 299 85 310 85 q 281 90 293 85 q 258 96 269 96 q 110 93 119 93 q 0 96 36 93 q 10 344 0 153 l 10 325 q 86 317 36 326 l 96 288 q 121 282 104 282 q 156 265 144 282 q 178 249 168 249 q 196 253 186 249 q 208 258 206 258 q 218 246 214 258 q 231 231 222 233 l 231 211 q 174 211 231 211 l 153 211 l 143 192 q 172 172 150 189 l 192 172 l 192 192 q 211 211 206 193 q 279 185 243 203 q 344 153 332 158 l 325 135 q 354 135 346 138 q 364 172 353 150 q 389 148 383 151 q 421 135 394 144 q 421 86 421 86 m 657 1019 q 642 1026 654 1026 q 628 1021 628 1026 q 642 1006 628 1015 q 657 1019 657 1006 m 658 957 q 636 968 654 968 q 625 963 625 968 q 651 939 625 954 q 658 957 658 949 m 728 871 q 718 890 728 881 q 671 890 671 890 l 671 872 q 718 872 686 869 q 725 869 724 869 q 728 871 726 869 m 843 747 l 843 767 l 836 765 q 819 778 819 764 q 822 792 819 782 q 825 807 825 803 q 811 818 825 818 q 786 814 797 818 l 794 776 q 747 776 786 772 q 742 760 744 768 q 728 747 739 753 l 738 728 q 760 726 735 726 l 767 728 l 767 757 l 843 747 m 776 804 q 718 814 757 806 q 747 804 728 810 l 747 786 l 757 785 q 776 804 776 785 m 836 704 q 786 718 803 715 l 794 699 q 836 704 836 699 m 479 1006 q 476 1021 476 1007 q 469 1026 476 1026 q 450 1021 450 1026 q 479 1006 450 1013 m 681 811 q 632 824 676 813 l 622 804 l 665 810 q 674 811 668 810 q 681 811 678 811 m 456 849 q 431 863 456 863 q 424 858 424 861 q 450 833 424 849 q 456 849 456 842 m 838 426 q 794 479 838 442 l 793 490 q 799 509 793 497 q 804 525 804 521 l 804 526 l 776 526 q 765 479 765 504 l 767 469 l 804 440 l 804 431 q 829 421 821 421 q 838 426 838 421 m 617 671 q 600 681 617 681 q 588 678 588 681 q 613 661 588 668 q 617 671 617 665 m 696 592 q 651 613 690 600 l 671 585 l 681 583 q 696 592 696 583 m 764 511 q 742 524 764 514 q 718 536 721 535 l 738 499 q 764 511 764 499 m 886 375 q 843 393 886 382 l 863 374 l 878 372 q 886 375 886 372 m 949 288 q 946 303 946 289 q 939 307 946 307 q 918 301 918 307 q 949 288 918 296 m 875 306 q 843 325 875 318 l 853 307 q 869 303 861 303 q 875 306 875 303 m 674 378 q 622 393 646 389 l 632 374 q 674 378 674 374 m 796 228 l 783 233 q 747 249 758 242 l 747 231 q 790 228 775 228 q 796 228 796 226 m 890 76 l 863 76 l 833 57 q 881 57 833 57 l 890 76 m 838 19 q 821 29 838 29 q 807 26 807 29 q 833 10 807 17 q 838 19 838 18 m 732 92 q 699 106 726 99 l 699 143 l 671 143 l 671 115 q 699 100 692 115 q 715 85 706 85 q 732 92 732 85 m 824 39 l 824 57 l 796 51 l 786 47 q 769 53 781 49 q 749 58 757 58 l 738 57 l 728 39 q 688 39 728 39 q 665 32 665 39 l 718 19 l 708 -19 l 728 -19 q 764 25 758 22 q 824 39 794 32 m 651 153 q 623 163 642 156 q 594 172 604 169 q 579 143 579 151 q 585 143 579 142 l 585 125 q 607 124 582 124 l 613 125 l 622 153 l 651 153 m 890 -47 q 853 -39 878 -46 l 833 -57 q 851 -50 847 -50 q 856 -54 856 -50 q 824 -115 856 -69 l 814 -115 q 814 -96 814 -115 q 824 -86 814 -89 l 824 -57 q 786 -67 790 -68 l 794 -96 q 776 -115 788 -100 q 863 -125 806 -118 q 890 -47 865 -107 m 393 115 q 389 129 389 117 q 374 135 389 135 l 374 115 l 393 115 m 208 126 q 172 143 185 140 l 182 125 l 203 126 q 208 126 208 125 m 100 174 q 83 183 100 183 q 69 179 69 182 q 96 163 69 176 q 100 174 100 171 z "},"5":{"ha":1047,"x_min":-10,"x_max":964,"o":"m 861 1028 l 860 865 q 784 864 835 865 q 708 863 733 863 q 566 878 660 863 q 425 894 472 894 q 384 888 411 894 q 342 882 357 882 q 293 903 317 882 q 249 924 269 924 q 213 918 236 924 q 179 913 190 913 l 169 885 q 263 894 225 894 l 303 894 q 290 760 296 828 q 264 629 282 682 q 243 649 260 632 q 218 661 231 661 q 199 657 215 661 q 201 647 201 651 q 189 629 201 636 q 169 657 185 640 q 140 667 167 660 q 119 685 119 674 q 124 698 119 690 q 128 710 128 706 q 97 728 128 722 q 57 733 78 731 q 85 1111 57 900 q 291 1108 154 1111 q 496 1106 428 1106 q 519 1101 510 1106 q 547 1063 522 1063 q 565 1076 558 1063 q 576 1092 571 1089 q 554 1100 554 1103 q 582 1104 554 1104 q 671 1064 619 1104 l 661 1044 l 681 1044 l 690 1083 q 651 1092 676 1083 l 711 1092 q 860 1101 792 1092 q 861 1028 861 1071 m 67 686 q 54 700 54 686 l 67 714 l 67 686 m 256 522 q 249 507 256 506 l 246 507 l 236 525 q 217 529 235 526 q 200 535 200 532 q 203 542 200 538 q 207 556 207 547 l 208 556 l 256 554 q 256 522 256 554 m 964 176 l 944 176 q 942 186 939 179 q 946 199 946 199 q 935 204 946 204 q 940 207 940 204 q 928 211 940 208 q 917 214 917 214 l 907 194 q 919 197 911 197 q 921 196 921 197 q 897 185 917 188 l 897 167 l 893 165 q 878 172 886 165 q 860 176 869 178 q 926 232 904 210 q 907 233 919 235 q 886 231 888 231 q 873 241 875 231 q 869 261 871 251 l 840 261 l 840 232 l 869 232 l 879 204 q 860 224 856 207 l 854 224 q 822 204 836 224 l 817 204 q 813 200 813 204 q 813 185 813 185 l 832 167 l 793 167 l 822 147 q 894 147 822 147 q 943 110 943 147 q 935 63 943 93 l 938 44 q 914 21 938 26 q 880 6 885 13 q 878 -14 875 0 q 881 -35 881 -35 q 850 -51 881 -47 q 851 -81 851 -49 q 785 -136 851 -103 l 785 -146 q 754 -150 756 -150 q 728 -133 732 -150 q 718 -108 722 -111 q 651 -79 696 -100 q 651 -103 651 -79 q 678 -126 651 -114 q 708 -146 704 -139 q 718 -183 710 -160 q 624 -231 688 -201 q 562 -241 603 -237 q 501 -250 521 -244 l 482 -268 q 425 -272 453 -272 q 381 -255 383 -272 q 365 -239 378 -237 l 360 -240 l 360 -278 l 250 -278 q 130 -260 207 -278 q 11 -243 53 -243 q -10 -203 -10 -243 q 28 6 -10 -119 q 169 -14 76 6 l 179 -32 l 185 -33 q 200 -28 192 -33 q 217 -22 208 -22 q 251 -33 225 -22 q 292 -43 276 -43 q 444 -22 369 -43 q 476 -4 458 -18 q 522 4 489 4 q 557 31 536 4 q 586 63 578 58 q 614 72 597 63 q 619 96 619 79 q 624 119 619 113 l 651 129 q 661 211 661 190 q 646 293 661 238 q 614 365 629 356 l 596 365 q 586 403 589 375 l 557 403 q 513 433 544 407 q 457 451 489 451 q 391 444 435 451 q 325 438 347 438 q 303 440 317 438 l 303 442 q 283 460 303 457 l 321 488 l 324 488 q 363 478 336 482 l 368 478 l 368 497 l 399 496 l 415 497 q 350 554 371 521 l 331 554 l 331 525 l 311 535 l 311 554 l 283 554 q 289 538 289 532 q 288 536 289 538 q 246 601 279 536 q 293 610 263 601 l 303 629 q 316 624 307 629 q 331 618 325 618 q 378 644 336 618 q 478 669 419 669 q 690 639 619 669 q 719 613 701 635 q 765 601 731 600 l 813 544 l 840 544 q 852 515 849 536 q 860 488 856 494 q 813 460 835 474 q 846 469 824 463 q 879 478 868 475 q 964 279 935 400 q 935 269 950 275 q 926 242 925 265 l 964 224 l 961 190 l 964 176 m 283 460 q 269 417 276 439 q 217 403 243 410 l 217 374 q 132 386 188 386 q 10 374 100 386 q 28 488 26 429 l 29 486 l 29 497 l 31 539 q 28 582 32 564 q 67 592 42 583 q 58 601 58 594 q 67 610 58 606 l 85 610 l 75 582 q 93 576 83 579 q 104 563 99 575 l 128 565 l 142 563 l 142 525 l 114 525 q 57 460 86 476 l 57 440 q 103 439 53 439 l 114 440 l 132 478 l 165 476 l 179 478 l 169 507 q 140 518 140 507 q 165 526 140 526 q 224 507 207 526 q 256 460 240 483 l 283 460 m 639 1031 q 604 1054 619 1050 q 586 1007 601 1050 l 567 1007 l 576 979 l 604 989 q 624 1036 610 1006 q 639 1031 632 1031 m 644 957 q 643 960 644 958 q 631 971 640 971 q 610 957 622 971 q 596 935 597 943 q 607 931 600 931 q 630 940 615 931 q 644 957 644 949 m 378 1054 q 374 1065 372 1060 q 376 1078 376 1078 q 360 1083 376 1083 l 360 1054 l 378 1054 m 549 1054 q 519 1056 539 1054 q 490 1057 500 1057 q 463 1054 472 1057 l 454 1026 q 360 1044 422 1032 l 368 1007 l 331 1007 q 331 969 331 1007 l 350 969 l 350 950 q 332 947 335 950 q 360 950 340 947 l 378 932 l 374 932 q 353 928 353 932 q 385 921 369 921 q 397 922 393 921 q 415 942 403 938 q 425 903 418 929 l 444 903 l 444 942 q 407 958 407 957 q 431 979 424 979 l 435 979 l 425 960 q 453 953 433 958 q 485 947 472 947 q 514 957 514 947 q 444 1007 507 968 q 460 1008 449 1010 q 475 1006 475 1006 l 482 1007 l 492 1044 q 501 1026 513 1036 l 529 1026 l 549 1054 m 690 572 l 690 592 q 643 610 674 596 l 661 572 l 690 572 m 331 913 l 321 942 l 293 950 l 303 913 l 331 913 m 582 581 q 564 583 576 583 l 549 582 q 551 581 550 582 q 529 572 551 583 l 539 554 q 582 581 582 571 m 678 444 q 651 460 667 457 l 651 440 l 664 439 q 678 444 678 439 m 515 546 q 479 564 515 567 l 463 563 l 454 544 l 425 554 l 425 525 q 447 524 433 525 q 468 522 461 522 q 515 546 515 522 m 413 522 q 388 544 400 542 l 388 515 q 394 515 389 515 q 401 514 399 514 q 413 522 413 514 m 124 814 q 75 847 119 825 q 85 808 76 844 l 107 807 q 124 814 124 806 m 151 771 l 151 790 q 140 792 146 792 l 122 790 l 151 771 m 153 751 l 151 761 q 94 781 132 767 l 104 733 q 140 744 121 740 q 142 743 147 744 q 146 740 144 740 q 153 751 153 740 m 785 53 q 781 67 781 56 q 765 72 781 72 l 765 53 l 785 53 m 763 32 q 760 36 763 36 l 756 33 q 749 7 749 13 q 751 3 749 3 l 756 6 q 763 32 763 26 m 738 15 q 735 29 735 17 q 728 35 735 35 q 707 29 707 35 q 738 15 707 21 m 756 -14 q 699 -14 699 -14 q 701 -32 701 -22 q 699 -51 701 -42 l 715 -51 q 746 -42 732 -51 l 756 -14 m 199 393 q 194 407 194 396 q 179 413 194 413 l 179 393 l 199 393 m 624 -193 q 619 -179 619 -190 q 604 -174 619 -174 l 604 -193 l 624 -193 m 557 -146 q 529 -136 547 -136 l 529 -156 q 557 -146 557 -156 m 390 -104 q 360 -79 382 -83 l 368 -117 l 374 -118 q 390 -104 390 -118 m 303 -69 q 303 -54 303 -69 q 293 -51 303 -51 l 303 -69 m 363 -135 l 321 -99 l 321 -136 l 356 -137 q 363 -135 363 -137 m 410 -156 l 408 -154 q 390 -165 404 -154 q 368 -174 375 -175 l 340 -156 l 331 -174 q 326 -172 329 -174 q 319 -171 322 -171 l 319 -172 q 324 -182 328 -179 l 321 -183 q 345 -185 329 -183 q 369 -187 361 -187 q 397 -183 385 -187 q 410 -156 410 -158 m 300 -197 l 256 -174 l 264 -203 l 271 -203 q 300 -197 300 -203 m 250 -157 q 217 -136 250 -142 l 226 -156 q 244 -160 243 -160 q 250 -157 250 -158 m 410 1013 q 397 997 410 1006 l 394 1011 q 401 1018 394 1018 q 410 1013 410 1018 z "},"6":{"ha":1061,"x_min":-3,"x_max":992,"o":"m 992 121 q 976 53 992 97 q 961 -17 961 10 q 956 -47 961 -37 q 935 -59 950 -56 q 917 -68 921 -62 q 897 -104 907 -79 q 879 -143 886 -133 q 864 -137 876 -142 q 844 -132 851 -132 l 833 -133 q 851 -143 832 -143 q 835 -167 847 -147 q 796 -199 822 -186 q 751 -208 783 -204 q 728 -210 732 -211 q 729 -208 724 -210 l 711 -208 q 719 -224 719 -208 l 711 -246 q 678 -246 711 -246 q 610 -262 667 -246 q 517 -278 554 -278 q 196 -199 354 -278 l 196 -181 q 202 -185 197 -181 q 210 -190 207 -190 l 215 -189 l 225 -181 l 188 -181 q 178 -164 178 -175 q 183 -139 178 -156 q 189 -112 189 -122 q 168 -78 189 -89 q 188 -78 175 -81 q 207 -75 204 -75 q 222 -85 219 -75 q 225 -106 224 -96 l 239 -106 q 300 -106 300 -106 q 308 -68 300 -90 q 243 -58 288 -65 l 243 -31 l 239 -31 q 201 -44 226 -29 q 151 -58 175 -58 q 138 -54 139 -58 q 188 -49 156 -46 q 206 17 193 -26 q 140 7 185 14 q 151 -18 151 -7 q 140 -22 151 -22 q 117 -22 132 -24 q 103 -19 103 -19 l 93 -21 q 124 -53 124 -46 q 65 -58 106 -58 q 18 92 17 47 q 103 82 47 93 l 113 63 l 121 63 q 178 72 136 63 q 92 99 136 93 q 0 100 72 100 q -3 176 -3 153 q 3 292 -3 215 q 10 406 10 368 q 0 456 10 419 l 18 456 l 38 578 q 61 567 46 567 q 65 568 63 567 q 51 596 51 576 q 87 694 51 631 q 122 788 122 757 q 149 842 122 818 q 188 886 182 872 q 196 943 188 906 l 253 989 q 256 1026 256 996 q 263 1046 256 1025 l 290 1046 l 308 1074 l 313 1074 q 320 1068 317 1074 q 328 1063 324 1063 q 338 1064 333 1063 l 318 1083 q 364 1094 339 1093 q 411 1096 382 1097 q 458 1093 449 1093 q 545 1102 488 1093 q 633 1111 603 1111 l 683 1111 q 678 1079 682 1083 q 650 1075 675 1075 q 626 1047 638 1075 q 608 1008 611 1011 q 571 989 594 1004 q 557 951 568 986 q 524 933 551 932 q 508 894 514 921 q 495 857 501 868 q 468 826 489 846 q 442 795 447 806 q 425 743 436 785 q 403 700 415 710 q 374 690 392 700 q 375 657 375 693 q 342 610 375 646 q 308 564 308 574 q 308 540 308 540 q 599 592 514 592 q 776 560 689 592 l 786 540 q 764 535 764 540 q 776 528 764 528 q 785 535 781 528 q 796 540 790 542 q 897 453 897 469 q 897 447 897 451 q 896 440 896 443 q 917 390 896 422 l 944 390 l 954 344 l 944 315 q 922 326 936 326 q 917 325 921 326 l 917 307 q 974 297 924 304 q 992 121 992 146 m 129 -93 q 103 -106 124 -106 q 101 -86 101 -112 q 110 -76 101 -76 q 129 -93 129 -76 m 154 -154 q 149 -154 154 -154 q 132 -142 142 -154 q 122 -124 122 -131 q 125 -122 124 -124 q 143 -135 132 -122 q 154 -154 154 -147 m 528 974 q 496 1008 528 990 l 506 971 q 519 968 514 968 q 528 974 528 968 m 454 982 q 431 1056 454 985 l 411 1056 q 399 1042 407 1044 q 383 1036 392 1039 q 383 981 383 981 l 389 979 q 431 989 382 979 q 421 988 421 990 q 440 981 421 981 q 450 975 443 975 q 454 982 454 975 m 936 335 l 936 363 q 899 372 922 364 q 868 335 868 332 q 907 325 875 329 l 907 353 l 913 354 q 917 344 917 354 q 928 333 918 333 l 936 335 m 729 538 q 711 550 724 550 q 669 542 696 550 q 626 531 638 532 l 656 513 q 678 513 664 514 q 699 510 694 510 q 729 538 729 510 m 308 906 q 281 915 299 915 l 281 896 q 308 906 308 896 m 819 286 q 796 299 815 299 q 776 292 776 299 q 814 269 776 285 q 819 286 819 278 m 783 361 q 707 408 783 382 q 608 438 657 422 q 614 431 614 435 q 599 428 614 428 l 594 431 l 594 429 q 618 400 594 424 q 642 399 626 397 q 667 401 664 401 l 674 400 l 683 382 q 758 363 708 376 l 758 344 q 783 361 783 350 m 533 531 l 533 550 q 501 559 524 554 q 468 568 479 564 q 481 548 474 565 q 510 531 488 531 l 533 531 m 828 240 q 821 243 825 243 q 794 225 813 243 q 775 200 775 207 q 782 199 776 199 q 804 204 793 199 q 828 240 828 228 m 569 443 q 551 456 565 453 l 561 428 q 569 443 569 436 m 543 465 l 515 465 l 543 475 l 533 493 q 499 475 504 475 l 496 475 q 478 493 489 494 l 449 475 q 483 460 454 471 q 494 426 494 456 q 496 418 494 421 l 524 428 l 543 465 m 411 522 l 411 540 q 399 542 408 542 l 383 540 l 411 522 m 440 475 q 403 503 422 503 l 374 475 l 440 475 m 168 671 q 163 685 165 674 q 140 708 161 697 q 144 701 144 707 q 131 671 144 692 q 158 667 160 667 q 163 668 163 667 q 160 671 163 669 l 168 671 m 296 549 q 292 550 296 550 l 282 556 l 253 568 l 253 540 q 290 547 267 542 q 290 550 296 550 l 296 549 m 879 -68 q 851 -58 869 -58 l 851 -78 q 879 -68 879 -78 m 203 582 q 178 596 193 596 l 178 578 l 190 576 q 203 582 203 576 m 814 -19 q 804 -11 814 -17 q 749 26 786 1 l 729 7 q 747 -4 732 6 q 764 -14 761 -14 q 768 -8 768 -14 q 771 -1 768 -1 l 776 -3 l 776 -21 q 804 -21 776 -21 q 814 -19 814 -22 m 139 625 q 131 633 139 633 q 93 625 135 633 l 85 606 q 96 601 92 604 q 100 596 100 597 q 93 596 99 593 l 122 588 q 139 625 139 607 m 722 54 l 721 63 q 696 74 696 60 q 701 92 696 81 l 683 92 q 681 150 678 114 q 685 208 685 204 q 665 271 685 233 q 646 335 644 308 q 570 366 639 340 q 492 392 501 392 q 394 358 440 392 q 338 278 347 325 l 318 278 q 308 213 308 254 q 313 151 308 192 q 318 92 318 111 q 308 54 318 74 q 323 48 311 49 q 338 44 335 47 q 347 28 346 38 q 347 7 349 19 q 346 -12 346 -8 l 346 -21 q 438 -51 392 -36 q 529 -69 494 -69 q 589 -37 557 -69 q 636 -3 621 -6 q 683 -11 664 -12 l 683 7 l 664 7 q 661 0 664 1 l 661 4 q 664 44 660 13 l 701 54 q 706 32 704 43 q 721 17 707 26 q 719 36 718 24 q 722 54 722 53 m 851 -115 l 851 -96 q 821 -97 854 -97 l 814 -96 l 814 -78 q 767 -68 799 -76 q 806 -89 806 -81 q 753 -86 769 -86 l 749 -86 q 711 -97 731 -97 q 694 -87 700 -97 q 679 -76 689 -76 l 674 -78 l 656 -106 q 757 -121 717 -121 q 804 -118 775 -121 q 851 -115 840 -115 m 806 -149 l 804 -143 q 758 -143 758 -143 l 776 -161 l 790 -164 q 806 -149 806 -164 m 683 -143 l 683 -124 q 671 -122 679 -122 l 656 -124 l 683 -143 m 232 300 l 215 315 l 215 297 l 225 296 q 232 300 232 296 m 615 -75 q 599 -68 608 -68 l 589 -86 q 615 -75 615 -86 m 664 -161 q 661 -147 661 -160 q 646 -143 661 -143 l 646 -161 l 664 -161 m 286 194 q 281 196 285 196 l 271 194 q 261 178 261 181 q 264 174 261 174 l 271 175 q 286 194 286 186 m 586 -142 q 543 -124 586 -135 l 561 -143 l 576 -144 q 586 -142 586 -144 m 532 -96 q 506 -86 524 -86 l 506 -106 q 532 -96 532 -106 m 294 64 q 278 74 294 74 q 265 69 265 72 q 290 54 265 61 q 294 64 294 63 m 206 185 l 206 204 l 178 194 q 113 204 157 197 l 113 222 l 104 224 q 83 213 94 224 q 68 203 72 203 l 65 204 l 56 232 l 47 232 q 40 201 40 215 l 47 185 q 67 183 54 181 q 88 186 86 186 l 93 185 l 122 157 l 126 157 q 131 172 131 157 l 131 175 l 138 176 q 150 171 143 176 q 161 165 157 165 l 168 167 q 206 185 192 182 m 229 88 q 196 100 217 100 l 196 82 l 208 81 q 229 88 229 81 m 424 -99 q 393 -96 414 -96 l 383 -96 l 383 -106 q 424 -99 424 -106 m 328 -11 l 318 7 q 291 13 310 11 q 263 17 272 14 l 263 -3 q 283 -10 267 -4 q 304 -12 294 -12 l 328 -11 m 365 -83 l 365 -78 q 318 -78 318 -78 l 338 -96 l 350 -97 q 365 -83 365 -97 z "},"7":{"ha":1033,"x_min":0,"x_max":961,"o":"m 961 1101 q 932 940 953 1033 l 914 940 q 878 872 896 907 q 861 799 861 836 q 856 768 861 781 l 838 760 q 792 617 792 689 l 790 607 l 761 597 q 734 508 749 569 q 704 417 719 447 q 676 419 685 419 q 657 417 668 419 q 685 379 664 403 l 685 369 q 665 321 669 361 q 657 264 661 272 q 617 225 617 256 q 622 204 617 218 q 628 182 628 190 q 617 149 628 174 q 600 113 601 117 l 561 113 q 590 83 567 101 q 569 13 579 25 q 514 -31 569 11 q 554 -83 533 -53 l 542 -78 l 542 -107 q 529 -93 532 -103 q 519 -87 528 -87 l 514 -87 q 517 -119 517 -110 q 514 -135 517 -126 l 533 -125 q 531 -132 531 -128 q 542 -135 531 -140 l 514 -154 l 524 -183 l 494 -183 q 485 -231 493 -200 l 475 -240 q 467 -211 469 -237 q 475 -207 472 -211 q 458 -200 475 -200 l 447 -201 q 449 -206 449 -203 q 428 -221 449 -215 l 428 -192 q 438 -154 428 -203 l 428 -154 l 429 -153 q 400 -144 429 -144 q 389 -169 389 -158 q 400 -174 389 -178 l 390 -192 q 365 -198 382 -197 q 343 -201 349 -199 l 343 -221 q 285 -231 324 -219 l 285 -258 q 267 -278 275 -261 q 236 -282 253 -282 q 204 -280 226 -282 q 171 -278 182 -278 q 171 -261 172 -271 q 168 -244 168 -249 q 171 -221 168 -229 l 190 -221 q 218 -130 204 -176 q 232 -40 232 -83 q 238 -1 232 -18 l 257 -1 q 285 69 261 17 q 299 150 299 104 q 304 189 299 172 l 333 207 q 343 250 340 221 q 351 293 346 279 l 371 303 q 381 350 372 319 l 400 350 q 418 417 401 375 q 442 428 424 425 q 467 436 461 432 q 438 446 461 440 q 464 511 450 469 q 485 578 481 565 l 514 588 q 508 607 514 593 q 503 629 503 621 q 647 901 503 636 l 628 901 l 618 874 q 556 867 601 867 q 501 870 538 867 q 447 874 465 874 q 224 869 374 874 q 0 864 75 864 q 10 1101 10 957 q 188 1092 69 1101 q 365 1083 307 1083 q 504 1092 456 1083 q 543 1104 514 1093 q 583 1113 567 1113 q 635 1107 601 1113 q 685 1101 668 1101 q 774 1103 715 1101 q 863 1104 833 1104 q 961 1101 928 1104 m 378 -249 q 371 -278 378 -264 l 351 -258 q 360 -228 361 -228 q 361 -231 361 -228 q 378 -249 378 -231 m 751 997 q 747 1008 746 1003 q 750 1019 750 1021 q 732 1025 750 1025 l 732 997 l 751 997 m 864 875 l 856 883 q 854 889 853 888 q 857 894 857 893 l 856 896 q 847 892 851 896 l 838 854 q 864 875 864 868 m 675 1017 l 657 1054 q 646 1056 651 1056 l 628 1054 l 647 1007 q 675 1017 656 1008 m 651 950 q 635 960 651 960 q 621 956 621 958 q 647 940 621 947 q 651 950 651 949 m 674 839 q 647 864 661 860 l 657 835 l 667 833 q 674 839 674 833 m 686 814 q 675 819 682 819 q 663 810 663 819 q 675 788 663 804 q 686 814 686 804 m 569 921 q 542 931 560 931 l 542 911 q 569 921 569 911 m 467 1064 l 428 1064 q 408 1007 408 1025 q 418 994 408 994 q 435 1014 435 994 q 438 1044 435 1040 l 440 1044 q 467 1064 454 1044 m 760 682 l 751 693 l 724 693 l 704 731 l 675 731 q 750 679 693 679 q 760 682 760 679 m 485 940 q 476 961 476 946 q 485 988 476 971 l 467 988 q 410 931 449 967 q 382 907 382 911 q 428 932 404 919 q 478 939 446 939 l 485 940 m 657 758 l 647 768 l 647 750 l 631 750 q 614 744 614 750 q 647 721 631 731 q 657 758 657 750 m 396 953 q 381 960 393 960 q 367 956 367 960 q 381 940 367 950 q 396 953 396 940 m 343 947 l 343 978 l 314 978 q 332 928 314 928 q 343 947 343 928 m 371 911 q 314 921 351 914 q 311 910 311 915 q 324 892 311 899 l 324 883 l 351 883 l 371 911 m 208 996 q 181 1017 197 1014 l 181 988 l 192 986 q 208 996 208 986 m 514 531 l 514 550 l 494 550 l 494 531 l 514 531 m 540 510 q 528 515 536 515 q 514 511 526 515 q 496 475 496 486 q 508 471 500 471 q 524 474 515 471 q 540 510 540 497 m 638 426 q 524 464 560 446 l 524 446 l 514 446 q 500 435 500 446 q 524 397 500 418 q 447 369 497 390 l 447 331 q 424 326 439 324 q 400 331 413 328 l 399 313 l 400 283 q 418 236 406 276 l 447 236 l 447 256 q 460 265 460 256 q 447 293 460 275 l 475 293 q 473 313 476 300 q 469 332 469 326 q 475 350 469 339 l 485 350 q 495 365 490 353 q 505 379 500 376 q 523 383 510 382 q 542 388 536 385 l 542 407 l 544 407 q 558 401 549 407 q 574 396 567 396 l 581 397 l 571 417 l 590 417 q 589 401 589 422 q 596 397 589 397 q 638 426 608 397 m 507 222 q 475 236 497 233 l 485 217 l 496 215 q 507 222 507 215 m 551 110 q 514 132 533 124 l 514 103 q 551 110 551 103 m 381 157 q 381 169 381 169 l 351 189 l 371 160 q 379 157 376 157 l 381 157 m 467 -21 l 467 7 q 410 17 464 8 l 407 61 q 418 89 406 74 q 438 113 428 100 q 404 127 426 118 q 371 140 382 136 l 371 124 q 354 36 371 90 q 333 -50 335 -22 l 361 -50 l 371 -11 q 388 -7 388 -7 q 400 -40 404 -7 l 418 -58 q 413 -74 418 -61 q 410 -78 411 -75 l 408 -79 q 438 -107 408 -78 q 438 -31 438 -107 q 467 -21 450 -31 z "},"8":{"ha":1124,"x_min":-11,"x_max":1026,"o":"m 932 676 q 918 661 932 668 l 917 672 q 922 682 917 682 q 932 676 932 682 m 815 764 q 796 746 807 747 q 792 765 792 754 q 803 774 792 774 q 815 764 815 774 m 482 1067 q 468 1056 482 1060 l 467 1065 q 472 1075 467 1075 q 482 1067 482 1075 m 519 957 q 506 943 519 950 l 504 953 q 510 963 504 963 q 519 957 519 963 m 918 661 l 917 656 q 808 525 874 525 q 754 544 783 525 q 725 589 725 564 q 738 613 725 600 q 760 625 750 625 q 778 624 765 624 l 786 624 l 796 643 l 768 643 q 750 671 763 661 q 778 708 760 683 q 890 690 821 707 q 894 667 889 669 q 918 661 907 664 m 740 643 q 714 658 714 643 q 731 681 714 667 l 732 681 q 740 667 744 681 l 740 643 m 411 925 q 393 914 411 918 q 392 929 392 908 q 397 933 392 933 q 411 925 411 933 m 786 501 l 778 483 q 746 490 746 483 q 750 493 747 492 q 740 496 740 493 q 748 501 740 497 q 756 510 756 506 q 749 511 754 511 l 746 511 q 771 511 746 511 q 786 501 786 511 m 1026 163 q 1013 99 1026 101 q 1006 114 1013 113 q 985 35 992 104 q 965 -60 976 -42 q 942 -79 960 -69 q 918 -97 924 -89 q 908 -135 917 -110 q 836 -187 904 -143 q 750 -237 768 -231 q 489 -278 656 -278 q 206 -228 299 -278 q 181 -196 188 -201 q 144 -183 168 -185 q 122 -172 133 -182 q 111 -149 115 -167 q 101 -123 107 -131 q 76 -104 96 -115 q 47 -87 51 -90 l 47 -32 l 0 -12 q 0 31 0 -12 q -6 83 0 47 q -11 138 -11 119 q 0 203 -11 175 l 18 203 q 47 296 31 247 q 66 307 51 303 q 85 315 81 311 l 85 333 q 174 400 129 367 q 274 425 215 425 q 290 428 285 425 l 300 446 q 328 418 314 418 l 328 446 q 421 428 340 443 l 421 446 l 393 446 q 458 483 415 460 q 440 521 447 508 q 426 513 425 521 l 421 503 l 429 503 q 440 493 440 503 q 396 494 444 494 q 383 493 388 494 l 365 465 q 358 468 358 463 q 375 503 358 479 q 322 483 350 493 q 272 474 294 474 l 290 493 q 281 494 286 494 q 263 483 285 494 l 263 511 q 239 513 265 513 q 219 493 229 513 q 201 474 210 474 q 178 474 178 474 q 40 747 40 588 q 65 906 40 821 l 85 906 q 103 960 93 932 q 139 994 115 994 q 203 1037 156 994 q 294 1079 251 1079 q 333 1067 310 1079 q 371 1054 357 1054 q 388 1060 378 1054 q 403 1064 399 1065 l 356 1083 l 431 1083 q 451 1058 440 1078 q 481 1046 458 1046 q 514 1056 514 1046 q 501 1074 514 1061 q 489 1094 489 1086 q 528 1113 499 1113 q 555 1102 539 1113 q 581 1092 571 1092 q 606 1097 589 1092 q 632 1103 622 1103 q 733 1068 654 1103 q 824 1018 813 1033 l 861 961 l 881 961 q 892 926 885 954 q 908 896 896 904 l 899 849 q 890 854 893 854 q 879 832 879 854 l 881 821 q 928 801 897 817 q 917 756 917 764 q 927 740 917 747 q 946 726 938 732 l 946 699 q 932 700 940 701 q 917 697 918 697 q 908 699 911 697 l 899 726 q 876 721 881 725 q 861 708 868 711 q 833 811 854 743 l 815 811 q 806 783 815 811 q 731 793 756 789 q 750 839 736 810 l 768 839 l 769 844 q 767 856 769 844 q 768 868 765 863 q 740 864 739 864 q 666 885 701 864 q 628 906 631 906 l 628 933 q 593 938 621 938 q 568 932 569 938 q 608 906 585 924 q 618 876 608 894 q 647 871 628 871 q 675 868 667 871 q 713 839 688 857 l 683 839 q 693 815 693 835 l 693 811 l 683 811 l 682 793 q 682 774 682 786 q 683 756 683 760 q 731 751 700 754 q 778 746 763 749 q 779 726 779 753 q 768 718 779 714 q 771 717 769 718 l 765 717 l 754 718 q 703 726 738 721 q 699 692 700 708 q 685 669 696 669 q 638 661 668 669 q 649 717 639 675 q 656 771 656 750 q 613 849 656 799 q 543 906 571 899 q 515 907 532 908 q 486 904 489 904 l 478 906 l 496 924 q 525 922 519 928 q 524 929 524 924 q 533 961 524 939 q 542 955 536 960 q 551 950 547 950 q 563 951 557 950 l 571 981 q 506 981 571 981 l 506 999 q 515 1011 515 1001 l 515 1018 l 496 1036 l 468 1036 q 469 999 469 1040 l 468 989 l 450 989 l 450 961 q 281 951 343 946 l 318 924 q 343 924 328 921 q 367 926 363 926 q 383 924 379 926 l 393 906 l 404 904 q 440 914 414 911 q 433 928 440 914 q 421 933 428 936 q 432 943 421 943 q 478 924 447 943 q 361 839 381 869 q 339 690 339 804 q 344 611 339 625 q 403 568 354 589 q 500 543 461 543 q 581 568 542 543 l 590 586 l 608 586 l 608 558 q 629 560 606 560 q 638 558 636 560 l 646 531 q 665 526 657 526 q 681 538 681 526 q 665 558 681 556 q 640 557 669 557 l 638 558 q 608 586 625 579 q 638 633 614 604 l 638 653 q 672 649 650 653 q 676 646 675 649 q 675 643 679 644 l 703 643 l 703 624 q 701 628 703 626 q 700 621 701 625 l 699 592 q 703 549 697 567 l 721 531 q 721 513 722 524 q 718 494 718 499 q 721 483 718 492 l 750 483 q 765 462 756 481 q 786 443 774 443 q 794 449 790 443 q 801 456 799 456 q 878 410 810 456 q 956 353 946 364 l 954 335 q 956 325 954 329 l 974 325 q 1007 244 976 315 q 1026 163 1026 197 m 310 456 l 299 454 q 292 458 292 454 q 310 474 297 465 l 310 456 m 263 465 q 206 474 244 468 l 225 474 q 237 475 228 472 q 246 481 246 478 l 225 483 l 243 483 q 256 475 251 483 q 263 465 261 467 m 257 449 q 243 436 257 446 l 243 447 q 249 457 243 457 q 257 449 257 457 m 843 829 l 833 839 q 810 849 826 843 q 786 858 794 854 l 815 821 l 826 819 q 843 829 843 819 m 853 615 q 849 628 849 617 q 833 633 849 633 l 833 615 l 853 615 m 256 942 q 188 1008 244 954 l 188 1004 q 178 989 188 999 l 194 982 l 194 981 q 215 943 194 971 q 235 943 224 944 q 254 940 250 940 l 256 942 m 858 292 q 833 306 849 303 l 833 288 l 846 286 q 858 292 858 286 m 621 526 l 581 540 l 581 521 q 618 525 593 522 q 621 526 619 525 m 993 118 l 993 122 q 967 138 993 138 q 938 132 938 138 l 993 118 m 693 418 q 600 447 618 447 q 571 418 581 447 l 611 418 q 675 399 633 418 l 693 418 m 796 221 q 793 236 793 224 q 786 240 793 240 q 767 236 767 240 q 796 221 767 228 m 935 46 q 922 61 935 53 q 899 71 908 69 q 915 76 915 75 q 908 81 914 78 q 919 103 910 88 q 928 129 928 119 q 913 138 924 138 l 908 138 l 871 108 q 840 110 881 110 q 786 71 825 110 q 833 81 840 81 l 853 81 l 853 63 q 925 42 919 42 q 935 46 935 42 m 222 694 q 197 708 211 706 l 197 690 l 208 689 q 222 694 222 689 m 901 19 q 861 53 881 51 l 861 33 l 843 33 l 844 35 l 843 35 q 806 43 832 40 l 806 25 q 869 6 864 6 l 881 6 l 890 25 q 901 19 896 19 m 328 643 q 305 639 321 642 q 281 633 289 636 q 285 629 285 632 q 267 624 285 624 l 263 624 l 243 661 l 225 661 q 225 615 225 661 l 225 586 l 206 586 q 178 606 204 594 l 206 568 l 225 568 l 235 586 q 254 586 242 586 q 274 585 268 585 q 282 586 276 585 q 290 586 288 586 q 297 608 296 590 q 300 633 299 621 q 318 633 300 633 q 328 643 324 633 m 779 57 q 750 71 771 71 l 758 53 l 768 51 q 779 57 779 51 m 289 554 q 278 560 288 560 q 259 546 269 560 q 249 522 249 532 q 260 518 253 518 q 280 530 271 518 q 289 554 289 542 m 806 6 q 758 15 790 7 q 778 6 763 10 l 768 -12 l 796 -12 l 806 6 m 758 -7 q 746 -3 756 -3 q 736 -7 736 -3 q 750 -22 736 -15 q 758 -7 758 -10 m 272 390 q 272 406 272 390 q 267 410 272 410 q 247 399 247 410 q 272 390 254 390 m 721 71 q 703 90 721 88 l 703 94 q 708 137 701 110 q 714 175 714 164 q 714 185 714 179 q 713 193 713 190 l 693 203 l 694 226 q 693 240 694 235 l 675 240 l 674 244 q 679 257 674 250 q 685 267 685 264 l 683 268 l 665 268 q 656 291 660 272 q 646 315 651 310 q 579 349 635 328 q 506 371 524 371 l 458 353 q 449 358 453 351 q 440 364 444 364 q 431 361 436 364 l 413 333 l 399 332 q 372 338 389 332 q 347 343 354 343 q 347 300 347 343 q 338 258 347 281 l 318 258 q 307 214 317 250 q 299 167 299 188 q 318 43 299 138 l 338 43 q 336 24 336 47 q 349 10 336 11 q 365 6 363 8 q 418 -53 392 -25 q 496 -82 444 -82 q 583 -64 535 -82 q 656 -12 639 -42 q 665 25 656 1 l 703 25 l 721 71 m 338 381 q 281 381 281 381 q 249 328 265 360 q 263 333 256 326 l 281 296 l 310 296 q 338 381 325 350 m 468 -115 q 462 -100 464 -112 q 449 -87 460 -87 l 440 -87 l 421 -115 l 468 -115 m 454 -185 q 421 -172 442 -175 l 421 -190 l 433 -192 q 454 -185 454 -192 m 254 21 q 215 33 242 31 l 206 6 q 254 21 229 13 m 433 -144 q 410 -131 433 -137 q 376 -125 386 -125 q 341 -138 364 -125 q 318 -162 318 -151 q 321 -164 319 -164 q 358 -149 331 -164 q 393 -135 385 -135 q 421 -162 401 -146 l 431 -144 l 433 -144 m 336 -83 q 326 -78 335 -78 q 308 -89 308 -78 q 328 -107 315 -103 q 336 -83 336 -93 m 232 -67 l 215 -50 l 215 -69 l 225 -71 q 232 -67 235 -71 m 188 -32 q 185 -17 185 -31 q 176 -12 185 -12 l 168 -12 l 140 -32 q 188 -32 140 -32 m 106 -43 q 75 -40 96 -40 l 65 -42 l 65 -50 q 106 -43 106 -50 z "},"9":{"ha":1117,"x_min":0,"x_max":1017,"o":"m 1017 596 q 869 53 1017 365 l 832 53 q 850 33 833 47 l 860 43 l 850 15 q 785 33 828 21 q 803 58 803 47 l 793 72 q 783 75 788 75 q 772 71 779 75 q 760 67 764 67 q 738 89 743 67 q 728 119 732 117 q 681 129 714 129 q 633 138 647 129 q 624 151 628 140 q 614 167 621 163 q 681 289 638 207 q 638 295 667 289 q 593 301 608 301 q 574 293 574 301 q 586 271 574 283 q 482 242 551 263 q 510 261 482 264 q 511 272 510 264 q 511 283 511 279 q 501 299 511 300 l 492 279 q 436 268 472 278 l 454 271 l 454 232 q 246 261 290 232 q 236 299 240 265 q 189 308 221 300 l 189 307 q 94 383 139 307 l 75 383 l 75 421 q 61 432 61 425 q 65 442 61 436 q 69 451 69 449 q 67 453 69 453 q 42 442 46 453 l 69 442 l 47 440 l 47 478 q 56 468 56 474 l 57 460 l 85 468 l 85 450 q 126 447 94 447 q 151 440 140 447 l 161 413 l 179 413 l 178 436 q 179 450 178 444 l 186 449 q 192 450 189 449 q 179 468 192 458 q 147 461 147 464 q 151 460 149 460 q 132 488 147 461 q 110 485 118 485 q 94 488 103 485 q 113 494 101 493 q 132 497 129 496 q 135 524 133 511 q 154 538 138 538 q 169 533 160 538 q 183 528 179 528 q 201 557 201 533 q 199 578 201 563 q 199 601 197 593 q 183 600 193 597 q 168 603 168 603 q 161 601 164 603 l 161 554 q 135 556 153 554 q 107 557 117 557 q 85 554 99 557 l 85 525 q 74 518 83 519 q 57 515 65 517 l 57 497 l 38 497 l 28 525 q 38 522 36 522 l 39 522 q 36 529 39 522 q 38 535 33 533 l 19 544 q 10 639 13 564 q 24 639 10 639 q 28 649 28 639 q 38 644 32 644 q 39 650 39 646 l 38 657 q 19 663 32 660 q 0 667 7 665 q 47 875 13 760 q 104 885 67 876 l 104 903 l 67 903 q 65 928 65 900 q 78 938 65 936 q 97 944 92 940 q 105 965 101 947 q 114 989 108 982 l 132 989 q 165 1015 138 989 q 199 1044 192 1040 q 461 1111 328 1111 q 746 1054 553 1111 q 850 1036 782 1053 q 879 1007 858 1025 q 865 964 872 986 q 840 932 857 942 q 850 913 853 924 q 897 932 867 919 l 897 950 l 935 942 q 935 925 935 936 q 933 908 933 914 q 935 901 933 906 q 935 894 935 896 l 974 885 q 992 704 982 825 l 1011 696 q 1017 596 1017 651 m 669 89 q 665 81 669 81 l 661 82 q 629 118 629 106 q 631 119 629 119 l 661 119 q 669 89 669 100 m 803 -51 q 775 -61 793 -53 q 788 -62 775 -61 q 796 -69 796 -62 q 765 -126 796 -71 l 746 -126 q 704 -206 725 -167 q 643 -268 679 -250 l 643 -278 q 578 -286 610 -286 q 501 -281 556 -286 q 425 -278 453 -276 q 443 -250 443 -278 q 425 -221 443 -221 l 444 -221 q 454 -193 444 -211 q 415 -183 442 -192 q 415 -258 415 -183 q 397 -278 397 -264 q 353 -283 383 -283 q 305 -281 338 -283 q 256 -278 272 -278 q 340 -211 282 -254 l 340 -193 q 354 -225 354 -212 q 350 -231 354 -231 l 378 -231 l 378 -199 q 394 -139 378 -178 q 425 -89 410 -100 q 454 -79 436 -89 q 464 -51 461 -71 q 472 -24 467 -31 q 491 -12 476 -17 q 510 -4 506 -8 q 535 35 521 8 q 557 72 550 63 q 578 60 561 71 q 611 49 594 49 q 643 65 635 49 q 661 82 651 82 q 708 63 686 71 q 708 33 708 63 q 722 3 708 7 q 746 -4 746 -4 l 746 -32 q 778 -33 743 -33 l 785 -32 q 803 -14 783 -17 l 803 -51 m 857 897 q 850 908 857 908 q 840 903 846 908 l 832 865 l 850 865 q 857 897 857 882 m 850 818 l 850 856 q 813 856 832 854 q 801 806 801 815 q 804 801 801 801 q 826 809 806 801 q 850 818 846 817 m 935 733 l 897 724 q 883 740 885 729 q 879 761 881 750 l 868 761 q 813 761 813 761 l 813 743 l 811 743 q 800 740 801 743 q 832 724 807 733 l 832 704 l 803 704 q 775 639 794 683 l 803 639 q 814 669 813 643 q 858 692 817 692 q 899 708 878 692 q 935 733 932 732 m 571 957 q 539 979 571 960 l 529 960 q 568 956 567 956 q 571 957 569 956 m 875 536 q 832 563 875 542 l 840 535 l 863 533 q 875 536 875 532 m 793 607 q 775 629 788 625 l 775 601 l 785 600 q 793 607 793 600 m 850 450 q 821 469 847 469 q 801 465 801 469 q 850 450 801 460 m 378 922 q 372 933 375 924 q 356 942 368 942 q 317 933 317 942 q 378 922 338 929 m 733 996 q 714 999 728 999 q 678 994 701 999 q 643 989 654 989 l 643 950 q 629 947 635 947 q 610 954 622 947 q 590 960 597 961 l 586 960 l 596 903 q 578 903 596 903 q 444 903 444 903 q 444 914 444 907 q 443 924 443 921 q 454 932 443 936 l 454 969 q 425 942 443 963 q 406 943 429 943 q 397 942 400 943 q 399 938 399 940 q 393 931 399 935 q 388 922 388 926 q 407 913 388 919 l 425 885 l 397 885 l 331 781 l 321 781 l 319 775 q 326 763 319 769 q 332 754 332 757 q 322 716 332 753 q 311 660 311 679 q 331 525 311 564 l 350 525 l 388 460 q 451 435 401 450 q 517 421 500 421 l 519 421 l 539 440 q 600 463 592 454 q 633 515 617 489 q 692 708 692 521 q 651 847 692 818 q 650 849 651 847 q 656 856 650 851 q 661 865 663 861 l 633 865 l 633 894 l 642 893 q 650 897 650 893 q 624 903 638 907 l 633 932 q 656 933 642 935 q 678 929 675 929 q 690 932 682 929 l 690 960 q 733 996 711 972 m 765 472 q 763 471 765 471 q 690 488 753 471 q 701 513 701 501 q 699 515 701 515 q 727 497 708 510 q 756 479 746 483 q 765 472 765 475 m 681 499 q 661 515 681 511 l 671 497 l 678 496 q 681 499 679 497 m 219 947 q 189 951 206 951 l 179 950 l 179 942 q 219 947 219 942 m 681 336 q 676 350 676 339 q 661 356 676 356 l 661 336 l 681 336 m 283 790 q 236 808 267 796 l 236 838 q 214 838 228 840 q 192 835 196 835 q 179 838 183 835 l 179 885 q 114 894 157 886 l 122 875 l 140 876 q 147 875 144 876 q 104 865 147 865 l 104 838 q 142 828 129 832 q 143 789 143 832 l 142 781 l 122 781 l 122 751 q 101 736 118 743 q 75 724 81 729 l 78 706 q 75 696 78 701 l 57 696 q 47 667 56 686 q 69 665 44 665 l 75 667 l 75 686 q 114 696 88 688 q 132 724 117 707 l 132 733 l 136 733 q 151 714 147 733 q 171 711 163 711 q 225 728 196 711 q 274 761 250 744 l 276 758 q 283 790 283 758 m 624 308 q 619 322 619 310 q 604 326 619 326 l 604 308 l 624 308 m 800 118 q 765 138 800 126 l 785 119 q 797 117 793 117 q 800 118 799 117 m 735 158 q 699 176 711 171 l 708 157 l 729 158 l 735 158 m 308 471 q 283 488 308 482 l 283 468 l 299 467 q 308 471 308 467 m 151 679 q 142 696 151 689 l 142 676 q 94 676 142 676 q 100 656 97 667 q 114 649 103 646 l 111 617 l 114 601 l 132 601 q 151 679 151 660 m 717 -19 q 690 -4 708 -7 l 699 -22 l 708 -25 q 717 -19 717 -25 m 407 308 q 404 315 407 308 q 400 322 401 322 l 397 321 q 388 326 399 321 q 393 357 393 346 q 388 374 393 357 l 360 383 q 350 403 357 390 q 378 425 378 417 q 367 432 372 429 q 367 435 365 433 q 368 443 368 439 l 368 443 q 360 440 363 443 l 360 421 l 331 421 q 303 374 322 406 q 272 418 288 396 q 226 440 253 440 l 217 413 q 193 414 210 414 q 185 413 185 415 q 204 401 185 406 q 224 396 224 397 q 208 393 219 393 l 226 403 q 228 408 226 403 q 233 414 231 414 l 236 393 l 233 393 q 219 379 222 393 q 217 356 217 356 l 236 356 q 269 392 272 392 l 269 390 l 264 383 l 283 383 q 293 346 285 371 q 304 337 294 342 q 314 321 314 332 l 311 308 q 293 279 297 294 q 378 318 303 286 q 407 308 388 318 m 665 0 q 604 43 665 13 l 596 25 q 643 6 613 19 l 633 -14 l 639 -14 q 661 -4 657 -14 q 665 0 664 -3 m 213 814 q 199 800 213 807 l 197 813 q 203 819 197 819 q 213 814 213 819 m 231 796 q 217 771 231 789 q 211 789 211 782 q 226 800 211 800 q 231 796 231 800 m 214 763 q 165 740 206 740 q 151 746 151 740 q 189 781 151 756 l 194 781 q 214 763 214 783 z "}," ":{"ha":956,"x_min":0,"x_max":0,"o":""},"!":{"ha":461,"x_min":-29,"x_max":372,"o":"m 342 1061 q 324 1050 333 1056 q 313 1031 319 1046 q 332 1015 332 1026 q 319 1010 328 1010 q 313 1011 317 1010 q 322 992 322 1006 q 301 943 322 965 q 253 921 279 921 q 181 931 239 921 q 189 951 186 935 q 211 960 190 963 q 181 971 200 965 l 181 990 l 171 1011 q 160 1013 168 1013 q 132 999 132 1013 q 140 990 132 994 l 161 971 l 161 950 l 140 960 q 50 931 110 953 q 44 957 47 943 q 26 971 40 971 q 18 965 22 971 q 8 958 14 958 l 0 960 l 10 1000 l 17 1000 q 21 1003 21 1000 q 10 1011 21 1011 q 15 1047 11 1024 q 19 1081 19 1069 q -29 1089 3 1083 q 17 1099 0 1088 q 40 1111 35 1110 q 136 1115 72 1115 q 235 1113 169 1115 q 332 1111 300 1111 l 332 1081 q 338 1085 336 1085 q 342 1061 342 1085 m 42 875 l 31 869 q 17 889 17 881 q 21 892 18 892 q 42 875 42 892 m 332 810 q 310 796 328 799 q 282 789 283 789 l 282 769 l 313 769 q 301 668 304 706 q 232 658 278 667 l 261 638 l 267 638 q 285 642 275 636 q 300 649 296 649 l 301 649 q 301 633 301 649 q 313 628 301 628 q 292 608 308 617 q 290 583 289 599 q 293 557 293 560 l 292 547 l 272 547 l 271 540 q 278 531 271 532 q 292 528 285 529 q 292 436 292 436 l 289 438 q 281 419 276 438 l 282 386 q 286 389 283 389 q 282 367 289 389 q 288 369 285 369 q 293 357 293 369 l 292 346 l 261 336 l 261 333 q 267 305 261 324 q 272 276 272 286 l 292 276 q 293 268 293 274 q 292 246 293 242 q 226 235 275 244 q 161 228 186 228 q 111 236 129 228 l 140 256 l 111 256 q 100 317 111 276 q 140 296 128 303 q 135 299 138 299 q 133 294 133 297 q 151 256 133 283 q 176 261 154 258 q 194 271 194 264 q 181 296 194 282 q 232 317 199 303 l 232 336 q 192 336 222 332 l 192 306 q 117 331 131 324 q 71 386 90 346 q 51 389 51 386 l 71 397 l 71 426 q 31 426 54 432 q 26 467 31 442 q 19 507 21 497 q 58 496 58 507 q 50 488 58 492 l 151 488 q 161 557 154 535 q 121 538 153 556 l 115 538 q 104 543 104 538 l 106 549 q 100 557 106 556 q 40 528 81 547 l 19 557 q 32 558 25 561 q 44 556 43 556 l 50 557 l 50 588 l 71 588 q 72 594 72 590 q 50 597 72 604 l 60 618 l 101 617 l 121 618 l 121 638 q 71 635 88 635 q 11 696 17 635 q 10 799 10 747 q 22 797 14 799 q 33 796 31 796 q 50 799 42 796 l 19 799 q 10 850 19 817 q 71 860 31 851 l 71 879 q 140 869 94 875 q 121 879 138 878 l 111 879 q 106 919 106 907 q 111 931 106 931 q 146 911 146 931 l 151 900 q 196 900 151 900 q 332 839 244 900 l 332 810 m 49 596 l 31 568 l 26 567 q 19 578 19 567 l 31 597 q 43 600 39 600 q 49 596 49 600 m 60 336 l 49 335 q 42 339 42 335 q 60 357 50 353 l 60 336 m 372 35 q 357 -179 357 -110 q 363 -278 357 -231 q 196 -287 285 -287 q 10 -278 97 -287 q 31 35 17 -226 l 372 35 m 324 1086 q 292 1101 315 1099 l 301 1081 l 313 1079 q 324 1086 324 1079 m 221 638 q 140 649 194 642 l 140 636 q 160 617 140 617 q 193 626 174 617 q 221 638 213 636 m 150 597 q 121 608 140 608 l 121 588 q 150 597 150 588 m 242 265 q 239 282 239 267 q 231 286 239 286 q 210 281 210 286 q 242 265 221 275 m 181 -237 l 161 -207 q 111 -207 111 -207 l 111 -237 l 121 -237 q 181 -237 133 -231 z "},"\"":{"ha":517,"x_min":15,"x_max":497,"o":"m 497 986 q 486 993 490 985 q 481 1003 482 1001 q 450 1063 450 1029 q 456 1117 450 1081 q 424 1125 444 1117 q 453 1143 450 1133 l 447 1143 q 432 1142 436 1143 q 450 1164 450 1154 q 442 1167 450 1167 q 426 1162 436 1167 q 410 1157 417 1157 l 407 1158 q 425 1182 419 1182 q 473 1163 453 1182 q 493 1117 493 1143 q 481 1083 493 1092 q 464 1068 465 1071 q 497 1051 464 1068 l 497 1026 q 496 1028 497 1028 l 496 1028 l 496 1021 q 497 986 496 997 m 390 1117 q 367 1092 382 1113 q 325 1100 357 1100 q 333 1150 329 1125 q 360 1183 340 1183 q 370 1175 368 1183 q 374 1165 372 1167 q 353 1151 353 1156 q 390 1142 353 1142 l 390 1117 m 365 1058 q 351 1043 365 1043 l 350 1043 q 332 1071 332 1061 q 339 1076 332 1076 q 365 1058 365 1076 m 497 765 q 333 774 496 765 q 325 839 332 796 q 333 840 328 840 q 346 839 338 840 q 357 838 354 838 q 367 839 364 838 l 367 856 q 392 878 386 867 q 407 904 399 890 q 353 879 371 879 q 328 929 328 879 q 331 987 328 949 q 333 1043 333 1025 q 336 1044 335 1043 q 339 1044 338 1044 q 349 1040 343 1044 q 361 1035 356 1035 l 367 1035 l 367 1051 q 372 1053 368 1053 q 378 1051 374 1053 q 386 1050 383 1050 q 389 1051 388 1050 q 390 1051 389 1051 l 390 1068 q 386 1067 389 1067 l 386 1067 q 397 1078 386 1072 q 414 1085 408 1085 q 424 1079 424 1085 q 407 1060 424 1064 q 415 1063 413 1063 q 421 1053 421 1063 q 424 1043 421 1044 q 374 1035 424 1043 q 407 1019 381 1028 l 407 994 q 415 993 410 993 q 428 994 419 993 q 440 996 436 996 q 456 982 451 996 q 471 968 461 968 q 484 973 476 968 q 496 978 492 978 l 497 978 q 497 938 497 978 q 479 951 479 947 q 481 953 479 953 q 458 938 458 949 q 469 926 458 926 q 480 931 474 926 q 489 938 486 936 q 497 765 497 853 m 196 799 q 194 765 196 776 q 15 774 85 765 q 39 953 25 833 q 40 956 40 954 q 35 961 40 957 q 31 969 31 965 q 38 976 31 971 q 47 986 46 982 l 31 986 l 32 1007 q 25 1082 33 1035 q 15 1158 15 1136 q 22 1156 18 1156 q 29 1161 26 1156 q 35 1167 32 1167 q 39 1165 38 1167 l 47 1142 q 60 1151 57 1144 q 65 1163 63 1158 l 104 1142 q 135 1168 118 1154 q 165 1182 151 1182 q 168 1179 168 1182 q 154 1150 168 1185 q 172 1154 164 1149 q 186 1165 179 1160 q 186 950 186 1165 q 191 874 186 924 q 196 799 196 824 m 414 914 q 382 938 414 925 l 382 928 q 406 911 382 911 q 414 914 414 911 m 383 804 q 350 831 372 814 l 350 807 q 365 805 356 807 q 379 803 375 803 q 383 804 382 803 m 186 969 q 186 1011 186 969 l 161 1019 q 161 1010 161 1019 q 160 1008 161 1010 q 154 1011 157 1008 q 157 1024 157 1019 q 155 1031 157 1026 q 153 1039 153 1036 l 154 1043 q 174 1054 174 1050 q 146 1060 169 1060 l 154 1076 q 135 1075 161 1075 q 129 1076 133 1075 q 146 1117 135 1090 q 138 1119 140 1119 q 131 1114 135 1119 q 124 1108 128 1108 l 121 1108 l 121 1117 q 102 1126 115 1118 q 79 1135 89 1135 q 67 1131 67 1133 q 89 1125 67 1125 q 85 1117 81 1117 q 78 1118 88 1117 q 72 1117 81 1118 q 72 1076 72 1076 q 161 969 125 1039 q 186 969 174 972 m 64 1100 q 61 1113 61 1101 q 47 1117 58 1117 l 47 1100 l 64 1100 z "},"#":{"ha":1656,"x_min":0,"x_max":1599,"o":"m 1269 132 q 1203 132 1269 132 l 1189 132 q 1200 151 1193 135 q 1224 163 1206 163 q 1269 132 1258 163 m 1599 701 q 1558 621 1585 675 q 1546 628 1556 622 q 1529 633 1536 633 l 1519 632 q 1531 618 1524 619 q 1549 611 1546 613 q 1529 542 1540 589 l 1506 543 l 1458 542 l 1439 572 l 1469 572 l 1479 601 l 1489 601 q 1500 628 1500 624 q 1489 701 1489 658 l 1439 661 q 1442 628 1442 639 q 1439 611 1442 622 l 1408 611 q 1389 582 1404 600 q 1394 556 1389 556 q 1399 561 1396 556 l 1399 532 q 1375 529 1392 529 q 1303 535 1351 529 q 1229 542 1254 542 l 1231 553 q 1232 549 1226 549 q 1244 557 1244 553 q 1219 561 1244 561 q 1219 522 1219 561 l 1199 522 q 1200 490 1200 528 q 1185 411 1200 461 q 1160 332 1161 340 l 1154 333 q 1149 326 1149 333 q 1160 301 1149 319 q 1183 300 1164 300 q 1349 311 1340 300 l 1439 311 q 1411 238 1425 274 q 1360 188 1388 188 q 1339 182 1349 188 q 1351 153 1351 164 q 1329 142 1351 142 q 1258 163 1318 142 l 1269 182 q 1235 189 1257 188 q 1199 192 1208 189 q 1239 201 1207 199 l 1238 256 l 1239 282 q 1179 272 1231 279 q 1199 222 1188 257 q 1178 240 1182 231 q 1169 251 1174 249 q 1160 222 1150 243 q 1144 219 1149 219 q 1099 242 1118 219 q 1071 227 1090 242 q 1017 213 1051 213 l 1010 213 l 1010 182 q 1032 185 1024 185 q 1042 181 1042 185 q 1016 163 1042 174 q 982 151 990 151 l 979 151 l 969 192 q 944 181 961 190 q 915 172 926 172 l 910 172 l 910 192 q 850 182 889 190 l 869 182 l 889 172 l 889 151 q 938 164 931 164 q 952 149 947 164 q 960 122 957 135 l 979 122 l 989 151 q 996 153 993 153 q 1001 146 999 153 q 1010 139 1004 139 q 1019 142 1014 139 q 1049 172 1029 172 q 1060 166 1056 172 q 1069 160 1065 160 q 1079 163 1074 160 l 1078 169 q 1089 192 1078 186 q 1119 151 1097 178 l 1110 132 q 1093 129 1099 129 q 1069 135 1085 129 q 1049 142 1054 140 q 1050 125 1049 136 q 1051 107 1051 114 q 1049 92 1051 103 l 1029 82 q 999 -8 1019 53 l 979 -18 q 981 -50 981 -14 l 979 -58 q 949 -99 967 -71 q 939 -157 946 -107 q 919 -208 933 -196 q 879 -218 906 -208 q 883 -217 882 -218 q 860 -208 869 -208 l 850 -228 q 899 -237 858 -231 l 889 -258 q 857 -260 879 -260 q 818 -258 849 -260 q 779 -258 794 -257 q 810 -247 790 -243 l 789 -228 q 669 -237 778 -231 q 739 -118 694 -162 l 729 -99 q 758 -44 750 -56 q 810 -15 781 -15 q 829 -18 818 -15 q 822 -36 822 -25 q 850 -49 828 -49 l 860 -18 l 864 -18 q 885 -24 885 -18 q 879 -28 883 -25 q 896 -22 897 -28 l 894 -17 q 899 -8 894 -12 q 903 -3 903 -4 q 883 7 903 3 q 860 13 872 10 q 925 14 872 14 q 989 22 967 14 q 996 26 993 24 q 969 42 996 36 l 979 63 q 990 57 985 57 q 1000 79 1000 57 l 999 82 q 965 96 992 83 q 931 104 943 104 l 919 101 l 919 82 q 903 81 914 79 q 886 83 888 83 l 879 82 l 879 51 q 819 32 860 47 q 829 122 821 63 q 589 151 701 122 l 589 182 l 610 201 l 610 232 l 582 221 q 569 213 571 217 l 571 206 q 572 203 571 204 q 571 206 571 203 l 571 207 l 568 221 q 560 282 568 224 q 626 260 610 269 q 679 222 653 242 q 663 218 663 221 q 672 210 663 213 q 694 210 681 208 q 710 211 711 211 q 739 201 725 211 l 760 172 l 765 171 q 788 184 779 169 q 800 201 796 199 l 829 201 q 660 251 763 226 q 667 275 665 257 q 669 301 668 289 q 763 307 711 303 l 782 308 q 788 310 785 308 q 779 311 786 311 q 879 308 829 310 q 949 242 915 300 q 981 260 964 247 q 919 301 976 267 q 999 542 947 382 q 899 546 949 546 q 738 540 760 546 q 679 482 697 532 q 629 301 654 392 q 619 312 622 301 q 606 322 615 322 l 600 322 l 589 301 q 529 292 569 300 l 519 251 q 525 254 521 254 q 539 242 536 254 q 400 213 469 222 q 397 233 399 222 q 385 243 394 243 q 360 242 357 243 q 390 192 368 221 q 429 182 404 190 q 417 157 417 165 q 438 150 417 150 q 480 156 453 150 q 521 163 507 163 q 540 153 532 163 q 560 142 549 143 l 560 122 q 515 125 529 125 q 482 124 504 125 q 450 122 460 122 l 440 82 l 444 82 q 462 88 451 82 q 479 93 472 93 l 490 92 l 510 72 q 511 74 507 74 q 511 69 511 74 q 451 -10 511 -10 q 426 -10 443 -10 q 400 -8 408 -8 l 400 13 l 406 11 q 420 21 415 11 q 429 32 425 31 q 388 33 433 33 l 379 32 l 360 -8 q 328 -4 336 -8 q 329 1 322 1 l 324 3 q 300 -8 311 3 l 292 -8 q 272 4 272 -8 q 277 19 272 7 q 282 36 282 31 q 279 42 282 40 l 310 42 q 314 74 314 51 q 310 122 314 97 q 0 113 207 119 q 25 189 13 151 q 60 261 42 238 l 90 261 l 90 292 q 102 288 96 293 q 114 282 108 282 q 199 297 142 282 q 286 311 256 311 q 342 289 342 311 q 353 281 342 281 l 360 282 l 369 311 q 400 322 389 317 l 410 322 q 434 397 410 353 q 458 474 458 440 l 460 482 l 479 492 q 485 522 483 501 q 490 551 486 542 q 297 540 397 539 l 150 542 q 200 692 163 597 l 219 692 q 239 714 224 693 q 271 732 250 732 q 340 721 278 732 l 369 732 q 550 721 431 729 q 569 792 554 746 q 617 861 603 806 q 639 951 628 907 q 671 971 671 953 q 669 986 671 975 q 668 1004 668 997 l 669 1011 q 689 1031 685 1019 q 879 1031 811 1040 l 879 1061 q 710 1092 783 1088 l 739 1092 l 739 1111 q 764 1113 746 1111 q 789 1113 781 1113 l 858 1111 q 889 1111 897 1110 q 949 1101 910 1108 q 839 832 908 1017 q 822 843 822 832 q 839 861 829 856 q 644 838 651 849 l 669 832 l 668 831 q 696 821 668 821 q 708 832 701 821 q 729 842 715 843 l 719 821 q 792 818 743 818 q 825 801 825 818 q 810 732 825 789 q 1060 721 986 732 q 1074 757 1067 739 q 1111 760 1075 760 l 1119 761 q 1113 778 1115 778 q 1099 782 1106 778 q 1157 947 1114 843 q 1219 1111 1204 1061 q 1240 1110 1226 1111 q 1260 1108 1253 1108 q 1279 1111 1265 1108 q 1314 1101 1299 1101 q 1347 1106 1325 1101 q 1379 1111 1368 1111 q 1429 1101 1396 1111 q 1479 1092 1463 1092 l 1458 1092 q 1460 1060 1460 1097 q 1447 1025 1460 1047 q 1429 992 1439 1008 l 1408 992 q 1404 962 1404 982 q 1399 932 1404 942 l 1369 911 q 1358 842 1367 888 q 1350 856 1350 843 l 1349 861 l 1343 861 q 1325 857 1336 863 q 1311 851 1314 851 l 1308 851 q 1289 871 1297 869 q 1299 832 1299 864 l 1329 832 l 1339 811 q 1308 732 1328 785 q 1549 721 1438 721 q 1546 724 1546 721 q 1579 732 1546 724 l 1599 701 m 289 -44 q 278 -50 288 -50 l 269 -49 q 258 -22 258 -26 q 264 -17 258 -17 q 281 -26 272 -17 q 289 -44 289 -36 m 460 -58 q 440 -147 456 -89 l 419 -158 q 390 -243 406 -200 q 358 -261 383 -261 q 318 -259 354 -261 q 249 -257 282 -257 q 215 -265 238 -257 q 181 -278 189 -276 q 168 -246 168 -247 l 169 -247 q 202 -144 169 -174 q 235 -85 235 -115 q 240 -58 235 -69 l 260 -49 q 310 -58 279 -56 l 310 -87 l 290 -87 q 272 -92 272 -87 l 300 -118 q 294 -142 300 -142 q 290 -137 292 -142 l 290 -178 q 379 -158 321 -172 q 381 -135 381 -161 q 362 -112 381 -125 q 343 -87 343 -99 q 369 -58 350 -68 q 346 -50 346 -50 q 367 -46 346 -46 q 413 -52 383 -46 q 460 -58 443 -58 m 1360 949 l 1358 951 q 1315 957 1344 954 q 1269 961 1285 960 q 1319 932 1269 961 l 1339 932 q 1360 949 1360 932 m 1276 811 q 1253 822 1272 822 q 1242 817 1242 822 q 1269 792 1242 808 q 1276 811 1276 801 m 1289 732 q 1285 746 1285 733 q 1269 751 1285 751 l 1269 732 l 1289 732 m 1161 817 l 1119 832 l 1119 811 q 1158 815 1133 813 q 1161 817 1160 815 m 1208 751 q 1179 771 1194 771 l 1179 742 l 1190 740 q 1208 751 1208 740 m 1331 607 q 1299 621 1321 621 l 1308 601 l 1319 600 q 1331 607 1331 600 m 1249 661 l 1239 692 q 1169 692 1169 692 q 1165 658 1165 675 q 1189 611 1165 626 q 1163 599 1183 610 q 1143 585 1143 588 q 1219 611 1189 597 l 1217 638 l 1219 651 l 1249 661 m 832 915 q 829 932 832 921 q 814 939 814 932 q 819 942 814 940 l 779 942 q 829 903 818 903 q 832 915 832 906 m 1129 572 q 1126 588 1126 574 q 1118 593 1126 593 q 1097 586 1097 593 q 1129 572 1108 581 m 1314 268 q 1289 301 1314 293 l 1269 272 q 1281 269 1269 272 q 1293 264 1293 265 q 1289 261 1292 263 q 1304 258 1300 258 q 1314 268 1314 258 m 1057 488 q 1046 493 1056 493 l 1039 492 q 1032 474 1032 478 q 1049 461 1032 461 q 1057 488 1057 478 m 1119 279 q 1099 292 1119 292 l 1089 261 l 1099 261 q 1111 258 1107 258 q 1114 261 1114 258 l 1110 272 l 1113 271 q 1119 279 1119 271 m 1061 299 q 1019 311 1050 311 l 1010 272 l 1039 272 l 1039 292 l 1046 292 q 1061 299 1061 286 m 1029 101 q 1026 118 1026 103 q 1018 122 1026 122 q 997 117 997 122 q 1029 101 1008 111 m 904 214 q 886 222 900 222 q 872 218 872 222 q 899 201 872 219 q 904 214 904 210 m 826 268 q 818 274 825 274 q 800 263 800 274 q 819 251 800 257 q 826 268 826 265 m 558 461 l 558 463 q 519 482 547 471 l 519 461 l 558 461 m 593 413 q 560 432 582 429 l 569 401 l 578 400 q 593 413 593 400 m 588 376 q 579 379 585 379 q 560 372 574 379 l 560 342 q 535 326 535 338 q 550 319 539 319 q 560 322 557 319 q 588 376 574 342 m 669 151 q 665 167 665 154 q 650 172 665 172 l 650 151 l 669 151 m 260 572 l 250 601 q 220 611 240 606 q 190 621 200 617 q 210 591 197 611 q 229 561 222 571 l 260 572 m 478 290 q 440 301 478 292 l 450 272 q 460 271 454 271 q 469 282 469 271 q 478 290 478 286 m 901 -182 q 869 -168 892 -171 l 879 -187 l 890 -189 q 901 -182 901 -189 m 839 -237 q 836 -224 836 -236 q 819 -218 836 -218 l 819 -237 l 839 -237 m 768 -208 q 739 -197 758 -197 l 739 -218 q 768 -208 768 -218 m 350 213 l 350 242 q 279 251 332 249 l 269 282 q 261 283 267 283 q 240 282 238 283 q 250 242 244 268 q 350 213 283 232 m 271 196 q 258 214 271 214 l 250 213 l 240 163 l 269 163 q 271 196 271 153 m 350 82 q 350 99 350 82 l 350 99 q 340 101 350 101 l 350 82 m 390 -208 q 388 -183 388 -206 q 375 -178 388 -178 l 369 -178 l 360 -197 q 390 -208 371 -200 m 379 -237 q 376 -224 376 -236 q 360 -218 376 -218 l 360 -237 l 379 -237 m 310 -197 l 269 -187 l 269 -228 l 254 -226 l 251 -226 l 263 -231 q 300 -237 274 -235 l 310 -197 z "},"$":{"ha":919,"x_min":0,"x_max":832,"o":"m 832 260 q 828 175 832 258 l 796 167 l 819 97 l 796 97 q 801 100 797 100 q 811 89 806 100 l 749 11 q 719 21 715 21 q 706 14 706 21 q 718 11 706 11 l 718 10 q 694 -4 718 4 q 697 -11 697 -7 q 686 -21 697 -17 l 671 11 l 665 13 q 640 11 638 13 q 679 -36 653 -6 q 500 -90 618 -51 q 513 -239 513 -240 q 507 -269 513 -257 q 458 -279 492 -281 l 414 -278 q 403 -271 413 -271 l 399 -269 q 406 -129 399 -189 q 399 -83 393 -108 q 376 -81 392 -79 q 354 -83 351 -83 q 289 -51 342 -83 l 285 -51 q 266 -56 278 -51 q 249 -60 254 -60 l 242 -60 l 235 -36 q 193 -36 221 -37 l 179 -36 l 179 -21 l 175 -19 q 156 -24 167 -19 q 139 -29 144 -29 l 133 -28 l 110 -4 q 52 16 79 -6 q 0 58 25 38 q 117 229 33 118 q 133 206 122 225 l 156 206 l 156 190 q 203 175 172 188 q 226 143 208 161 q 251 144 222 144 l 257 143 l 281 121 q 306 121 281 121 q 333 108 314 121 q 364 96 353 96 q 381 101 369 96 q 399 104 393 106 q 390 206 396 139 q 413 197 401 197 q 421 199 418 197 q 390 222 408 211 l 399 261 l 375 268 l 374 275 q 375 300 374 304 q 439 297 394 297 l 442 297 q 418 318 442 307 q 381 329 394 329 l 375 331 l 376 349 l 375 386 l 390 386 l 389 375 q 399 369 389 365 l 399 354 q 429 346 410 354 l 421 401 q 415 403 419 403 q 390 386 407 403 l 390 401 q 353 425 357 419 q 344 465 344 433 l 343 471 l 313 488 l 311 493 q 313 518 311 521 l 319 519 q 310 522 317 522 l 274 526 q 285 503 278 519 q 296 479 292 488 l 319 479 q 322 474 322 476 q 313 471 322 471 q 343 408 321 450 q 282 425 339 410 q 226 447 239 436 l 218 479 q 210 482 213 482 q 203 473 207 482 q 192 464 199 464 l 188 464 q 166 485 168 483 q 144 486 164 486 q 92 528 124 486 q 54 589 60 565 l 31 596 l 24 651 l 28 649 l 28 650 q 8 674 28 654 q 22 697 22 681 l 24 713 q 35 707 35 718 l 39 721 q 32 722 36 722 q 8 713 33 722 q 4 740 8 719 q 1 767 1 757 q 8 799 1 782 l 31 822 l 31 846 q 101 872 53 872 q 115 867 115 872 q 86 838 108 854 q 101 815 96 833 q 138 811 108 811 q 156 807 139 811 l 149 783 q 188 768 163 781 l 194 783 q 168 800 169 789 q 188 799 172 803 q 172 816 174 808 q 164 831 169 824 q 131 842 131 831 q 134 853 131 846 q 138 865 138 861 q 117 885 138 878 q 86 893 101 889 l 110 917 q 118 911 114 917 q 125 906 122 906 q 133 908 128 906 l 125 924 q 149 938 138 931 q 179 939 151 939 q 242 965 189 939 q 328 988 296 990 l 343 986 l 358 963 l 364 963 q 382 971 376 963 q 403 964 389 971 q 421 956 417 957 q 429 1025 429 1006 q 399 1010 419 1021 l 406 994 q 367 986 390 986 l 367 1010 q 367 1007 365 1008 q 375 1033 375 1022 q 371 1069 375 1046 q 367 1103 367 1093 l 382 1111 q 414 1113 393 1111 q 444 1114 435 1114 q 486 1069 486 1114 q 468 978 486 1061 q 804 893 686 972 q 792 868 797 868 q 788 869 789 868 l 772 838 l 757 838 l 757 815 q 671 706 726 781 q 592 779 644 744 q 493 818 535 818 q 461 800 461 818 q 468 775 461 792 q 375 768 426 775 l 390 744 l 460 760 q 476 628 467 717 q 453 611 463 621 l 468 611 q 468 593 468 611 q 476 581 468 585 l 476 572 q 540 557 482 568 q 578 510 578 549 l 582 508 q 601 526 596 508 q 671 494 626 518 l 679 471 q 656 447 671 468 q 725 431 726 431 l 733 432 l 733 433 q 749 447 733 447 q 757 417 750 436 l 772 417 q 811 371 792 394 q 811 331 811 371 l 811 324 l 828 324 q 832 260 832 290 m 685 819 q 675 824 683 824 q 668 819 668 822 q 679 807 668 814 q 685 819 685 813 m 629 881 q 614 885 622 888 l 608 885 l 601 869 q 572 878 572 878 l 569 876 q 575 863 574 874 q 586 853 576 853 q 613 863 596 853 q 629 881 629 872 m 542 879 q 515 893 542 885 l 515 876 l 531 875 q 542 879 542 875 m 500 876 q 496 886 496 879 q 483 893 496 893 l 483 876 l 500 876 m 421 924 q 418 935 418 925 q 406 939 418 939 l 406 924 l 421 924 m 413 893 q 390 900 406 900 l 390 885 q 413 893 413 885 m 417 832 q 408 839 417 839 q 389 833 389 839 q 414 822 389 829 q 417 832 417 828 m 401 713 q 375 729 401 722 l 382 713 q 397 710 393 710 q 401 713 401 710 m 453 589 l 444 611 l 439 613 q 406 604 439 613 l 399 635 l 389 638 q 376 628 381 638 q 367 619 371 619 q 358 831 367 761 q 296 822 339 828 q 281 846 292 846 l 313 846 q 319 844 315 844 q 335 853 335 844 q 328 854 335 856 l 313 876 q 336 900 319 881 l 339 901 q 375 885 342 901 l 375 917 l 358 908 q 344 925 353 911 q 322 935 338 935 q 271 900 272 935 q 289 900 275 896 q 281 876 272 883 q 260 876 274 876 q 238 875 244 875 q 172 885 201 875 l 172 869 q 153 878 147 878 l 149 876 l 149 854 q 183 869 183 869 l 188 869 l 179 854 l 203 854 l 188 838 l 242 807 q 212 788 214 790 q 203 753 210 786 q 190 753 203 753 q 188 749 188 751 l 188 744 l 203 744 q 218 690 207 726 l 235 690 l 242 658 q 276 646 250 651 q 319 619 299 640 l 313 596 q 358 611 343 611 q 406 603 378 611 q 453 589 451 589 m 585 464 q 582 472 581 467 q 585 482 585 482 q 569 488 585 488 l 569 464 l 585 464 m 749 315 l 725 315 l 718 268 l 742 268 q 749 315 742 285 m 139 886 q 110 900 126 894 l 117 885 l 133 886 q 139 886 136 886 m 772 238 q 769 249 769 239 q 757 253 769 253 l 757 238 l 772 238 m 515 464 q 514 483 514 465 q 507 488 514 488 l 500 488 l 492 479 q 501 474 500 476 l 500 474 l 493 475 l 492 474 q 515 464 507 464 m 586 385 q 561 440 586 394 l 539 440 l 539 425 q 519 431 535 424 q 500 440 504 439 q 507 386 503 422 l 517 385 q 522 393 526 385 q 531 411 531 397 l 531 417 q 546 403 546 410 l 540 401 q 554 393 546 396 q 539 358 539 372 q 551 351 543 351 q 575 362 564 351 q 586 385 586 372 m 804 121 q 801 132 801 122 q 788 136 801 136 l 788 121 l 804 121 m 336 572 q 333 583 333 574 q 319 589 333 589 l 319 572 l 336 572 m 492 440 l 460 447 q 476 457 474 453 q 478 469 479 461 q 475 488 475 482 q 483 494 475 499 l 483 510 q 444 526 471 514 q 428 472 436 488 q 390 432 417 449 l 421 440 q 418 444 418 442 q 425 446 419 446 q 447 442 438 446 l 449 442 q 438 440 446 440 l 444 432 l 446 428 q 438 417 446 419 l 436 411 q 443 401 436 401 l 460 408 l 460 440 l 492 440 m 226 679 q 218 683 225 683 q 207 679 207 683 q 218 667 207 678 q 226 679 226 672 m 694 121 l 694 136 l 692 136 q 694 160 689 136 q 656 182 681 167 q 656 136 656 182 q 694 121 664 135 m 275 568 q 264 574 274 574 q 249 564 249 574 q 265 550 249 553 q 275 568 275 560 m 264 533 q 242 542 256 542 l 242 526 q 264 533 264 526 m 692 97 q 688 99 690 99 q 667 88 681 99 q 654 72 654 78 l 660 71 q 671 74 663 71 q 692 97 692 89 m 656 18 l 656 65 l 650 67 q 624 58 636 67 q 625 107 624 82 q 593 121 622 126 q 643 222 643 157 q 624 276 643 253 l 593 292 l 593 307 q 546 324 578 311 l 531 346 q 483 354 515 347 q 507 89 483 224 q 561 97 526 88 l 569 113 l 574 113 q 578 104 578 113 q 585 104 578 103 q 596 97 588 97 l 601 97 q 608 50 600 79 l 632 42 q 628 40 631 42 q 656 18 628 39 m 468 303 q 458 308 467 308 q 444 299 444 308 q 460 283 444 292 q 468 303 468 294 m 585 49 q 578 74 585 53 l 554 74 l 569 42 q 574 42 571 42 q 578 40 576 40 q 585 49 585 40 m 547 54 q 539 58 547 58 l 546 42 q 547 54 547 36 m 463 96 q 443 106 463 106 q 432 103 432 106 q 460 89 432 99 l 463 96 m 593 -4 q 556 11 574 4 q 515 19 533 21 l 500 18 q 456 1 465 1 l 429 3 q 593 -4 485 3 m 407 -21 l 390 -12 q 375 -4 393 -4 q 340 -14 379 -4 q 328 -21 315 -21 q 315 -29 315 -21 q 336 -36 321 -36 l 328 -60 q 355 -45 339 -60 q 376 -27 371 -31 q 399 -24 382 -24 q 407 -21 407 -24 m 268 824 q 265 815 268 818 q 250 819 261 815 q 239 825 239 824 q 256 831 239 831 q 268 824 268 831 z "},"%":{"ha":1790,"x_min":-7,"x_max":1735,"o":"m 1399 1111 q 1389 1074 1397 1099 q 1332 1007 1367 1054 q 1322 968 1332 993 q 1303 963 1318 963 q 1285 958 1289 963 l 1256 883 q 1232 887 1249 888 q 1208 892 1215 886 q 1189 921 1206 903 q 1160 929 1185 924 q 1135 939 1135 935 q 1151 978 1135 944 l 1169 978 l 1169 1017 l 1228 1017 q 1218 1064 1218 1049 q 1232 1090 1218 1069 q 1246 1111 1246 1110 l 1399 1111 m 1100 871 q 1097 858 1100 867 q 1094 844 1094 849 q 1085 851 1085 844 q 1094 874 1085 861 l 1099 875 q 1100 871 1100 874 m 1218 844 q 1154 739 1197 801 q 1085 636 1097 657 q 1067 686 1067 672 q 1094 740 1067 690 l 1094 760 q 1058 768 1061 760 l 1075 768 q 1098 822 1093 815 q 1142 854 1103 828 l 1142 874 q 1125 878 1125 878 q 1104 874 1115 874 q 1104 885 1104 878 q 1103 894 1103 892 q 1113 901 1103 901 q 1218 844 1133 901 m 1046 807 l 1038 760 q 1027 761 1038 760 q 1017 768 1017 763 l 1018 778 l 1046 807 m 781 864 l 768 863 q 763 867 763 864 l 781 883 l 781 864 m 1735 44 q 1722 -31 1735 0 l 1693 -31 q 1683 -87 1690 -50 l 1665 -87 q 1667 -117 1667 -85 q 1647 -135 1667 -129 q 1617 -144 1619 -143 q 1586 -181 1615 -169 q 1532 -192 1575 -185 l 1542 -211 q 1513 -218 1525 -218 q 1456 -201 1514 -218 l 1456 -221 q 1513 -240 1494 -232 q 1485 -245 1504 -240 q 1454 -250 1465 -250 l 1446 -249 l 1447 -240 q 1433 -229 1447 -229 l 1426 -231 l 1399 -268 q 1379 -271 1392 -271 q 1349 -265 1368 -271 q 1322 -258 1329 -260 q 1322 -274 1322 -258 q 1317 -279 1322 -279 q 1289 -257 1300 -279 q 1278 -217 1278 -235 q 1281 -206 1278 -206 q 1285 -211 1283 -207 q 1286 -193 1282 -203 q 1294 -174 1290 -183 q 1265 -164 1285 -172 q 1269 -160 1268 -162 q 1246 -154 1269 -154 l 1246 -183 l 1251 -182 q 1258 -187 1258 -182 q 1247 -214 1253 -200 q 1228 -231 1238 -231 q 1208 -240 1218 -231 q 1218 -187 1218 -182 q 1215 -185 1218 -185 q 1169 -221 1213 -185 q 1165 -232 1163 -226 q 1169 -244 1169 -243 q 1146 -250 1169 -250 q 1122 -240 1142 -250 l 1122 -221 l 1094 -221 q 1122 -211 1103 -214 l 1122 -183 q 1228 -153 1175 -171 q 1189 -154 1219 -151 q 1194 -154 1194 -156 q 1190 -153 1193 -153 q 1174 -151 1171 -153 q 1179 -154 1174 -153 l 1151 -154 l 1151 -135 l 1146 -136 q 1142 -119 1142 -136 l 1142 -117 q 1104 -125 1128 -117 q 1085 -154 1099 -136 q 1056 -97 1076 -135 q 1029 -107 1029 -97 q 1046 -117 1036 -114 q 1036 -146 1036 -151 l 1038 -154 q 1046 -157 1046 -154 q 1008 -174 1046 -156 q 1007 -162 1006 -168 q 1010 -151 1010 -153 q 988 -130 1010 -139 q 961 -117 965 -121 q 949 -81 953 -106 q 942 -50 944 -57 l 922 -40 l 922 -26 q 922 26 922 26 q 932 20 926 25 q 942 15 938 15 l 951 17 l 951 56 l 914 65 l 918 100 q 922 113 921 122 l 922 132 l 961 132 q 949 147 954 147 q 932 150 943 147 q 939 193 932 193 q 942 189 940 192 q 961 226 946 203 q 1008 246 981 229 q 1013 276 1010 249 q 1029 299 1014 299 q 1046 274 1046 299 q 1035 276 1040 276 q 1028 246 1028 276 q 1044 247 1033 246 q 1060 247 1056 247 q 1068 247 1064 247 q 1075 246 1074 246 l 1075 217 q 1122 207 1092 217 q 1133 249 1128 243 l 1132 236 l 1142 236 q 1121 147 1139 210 q 1103 57 1103 92 q 1124 -15 1103 13 q 1179 -68 1133 -29 q 1167 -111 1167 -100 q 1176 -117 1167 -117 q 1206 -107 1183 -117 q 1246 -97 1229 -97 l 1256 -97 l 1265 -117 q 1360 -125 1289 -125 l 1369 -107 q 1474 -64 1467 -68 q 1521 26 1521 -33 q 1522 36 1521 33 l 1542 36 l 1542 38 q 1544 61 1540 46 q 1549 83 1549 76 q 1542 103 1549 99 l 1522 103 l 1521 110 q 1522 140 1521 143 l 1532 139 q 1542 146 1542 139 l 1542 150 q 1508 167 1514 149 q 1492 199 1500 192 q 1461 210 1483 206 q 1426 217 1435 213 q 1397 244 1407 243 q 1360 243 1407 243 l 1351 246 l 1342 264 l 1336 265 q 1265 241 1307 267 q 1207 215 1222 215 q 1169 217 1165 215 q 1132 283 1157 239 l 1151 313 l 1175 311 l 1189 313 q 1142 331 1174 319 l 1122 322 l 1122 340 q 1160 339 1118 339 q 1224 374 1175 339 q 1332 410 1274 410 q 1465 388 1410 410 l 1475 369 q 1503 371 1471 371 q 1526 363 1510 371 q 1550 350 1549 351 l 1550 331 q 1597 332 1544 332 l 1608 331 q 1615 299 1615 307 q 1608 293 1615 286 l 1599 274 q 1636 293 1604 275 q 1703 197 1650 279 q 1692 174 1692 189 q 1702 163 1692 165 q 1722 160 1713 161 q 1735 44 1735 72 m 1056 578 l 1028 550 l 1028 521 q 1003 508 1022 514 q 979 493 985 501 q 971 446 978 478 q 922 464 958 453 q 932 436 925 463 l 961 436 q 904 350 940 408 q 894 313 904 336 q 876 303 890 307 q 856 293 861 300 q 838 246 853 275 q 692 207 792 207 l 657 207 q 742 340 703 282 q 799 407 763 361 q 818 464 803 428 q 838 474 824 469 q 856 483 851 478 q 878 535 868 500 q 894 588 889 576 q 943 589 911 589 l 949 589 q 926 586 926 588 q 951 569 926 576 q 979 597 951 576 l 979 617 q 932 617 971 621 q 999 731 956 654 q 1038 701 1011 721 l 1028 683 q 1011 676 1011 683 q 1008 664 1018 669 q 1040 676 1040 681 q 1013 672 1015 672 l 1013 672 q 1028 680 1013 675 q 1047 685 1043 685 q 1053 679 1053 685 l 1046 664 l 1047 665 q 1047 653 1047 665 q 1038 626 1044 633 l 999 626 l 989 597 l 1056 597 l 1056 578 m 797 732 q 789 654 797 694 q 665 683 749 663 q 735 621 735 628 q 724 607 735 610 l 732 588 l 751 588 l 751 569 q 619 471 658 496 q 471 417 533 417 q 435 426 458 417 q 399 436 413 436 q 381 431 392 436 q 361 426 369 426 l 361 464 q 342 447 344 464 q 304 426 340 429 l 294 446 q 279 445 289 447 q 265 443 269 443 q 247 446 258 443 l 247 474 l 238 476 q 217 470 229 476 q 203 464 206 464 q 178 485 193 464 q 131 507 163 507 q 107 528 113 507 q 94 560 99 556 q 76 569 90 565 q 57 578 61 572 q 33 628 42 596 q 19 683 19 682 l 0 683 q -7 736 -7 704 q 19 807 -7 792 q 0 864 13 826 l 19 864 q 29 901 21 878 q 38 883 51 893 q 49 886 43 886 q 57 865 61 886 l 57 835 q 29 826 47 835 q 35 804 29 804 q 38 807 36 804 q 33 803 36 806 q 57 797 33 797 q 58 811 58 801 q 104 835 88 829 q 86 901 101 858 l 47 911 l 47 950 l 56 953 q 56 960 56 953 l 57 968 l 82 967 l 94 968 q 97 976 100 969 q 93 985 93 985 q 99 988 93 988 l 104 988 l 94 940 l 124 940 l 114 1007 q 161 1043 138 1025 q 217 1065 193 1065 l 228 1064 q 250 1043 233 1043 l 257 1044 l 257 1082 q 333 1092 283 1083 q 351 1111 339 1107 q 371 1064 364 1088 l 400 1074 l 400 1082 q 399 1092 401 1088 q 390 1092 396 1097 l 390 1111 q 406 1114 399 1114 q 447 1092 431 1114 q 600 1058 524 1075 q 724 968 669 1036 q 746 940 746 946 q 692 939 725 936 l 675 940 l 685 958 l 681 960 q 653 953 668 960 q 628 940 632 942 l 628 931 l 665 883 q 689 881 675 878 q 711 885 710 885 q 724 883 719 885 l 732 854 q 757 856 729 856 l 761 854 q 783 829 769 847 q 786 825 785 828 q 785 825 785 825 q 781 826 783 825 q 797 732 797 774 m 917 60 q 904 46 917 54 l 901 58 q 908 67 901 67 q 917 60 917 67 m 1126 -149 q 1113 -164 1126 -157 l 1111 -153 q 1118 -143 1111 -143 q 1126 -149 1126 -143 m 761 179 q 542 -117 640 -18 q 497 -82 499 -99 q 533 -87 506 -78 l 533 -68 q 496 -69 538 -69 q 485 -68 489 -69 q 467 -50 481 -54 q 514 46 485 -7 l 533 46 q 551 103 538 67 l 571 103 l 600 160 l 608 160 l 608 189 q 678 199 660 200 l 694 197 l 714 169 l 719 168 q 738 174 726 168 q 761 179 750 181 m 488 -247 q 447 -258 475 -251 l 447 -240 q 432 -251 431 -240 l 433 -260 q 396 -274 433 -274 q 360 -271 385 -274 q 324 -268 336 -268 l 324 -240 q 343 -201 328 -225 q 362 -197 349 -197 q 381 -192 375 -196 q 457 -240 431 -225 q 474 -240 463 -239 q 488 -247 488 -242 m 1436 313 q 1418 331 1435 317 q 1423 341 1418 335 q 1428 351 1428 347 l 1426 360 l 1408 360 l 1389 331 l 1358 324 q 1350 321 1350 322 q 1353 321 1350 321 l 1360 322 l 1360 303 q 1436 313 1386 307 m 1626 103 q 1621 113 1624 104 q 1604 122 1618 122 q 1588 117 1588 122 q 1626 103 1588 113 m 640 964 q 590 978 607 975 l 600 958 q 640 964 640 958 m 1246 331 q 1199 340 1231 333 l 1218 313 l 1226 311 q 1238 320 1233 311 q 1246 331 1243 329 m 463 1003 q 438 1025 454 1024 l 438 997 l 451 994 q 463 1003 463 994 m 1463 -99 q 1454 -96 1460 -96 q 1435 -102 1447 -96 q 1421 -115 1422 -108 q 1432 -118 1424 -118 l 1446 -117 q 1463 -99 1463 -100 m 219 978 l 219 997 l 207 997 q 161 997 192 996 q 219 978 200 983 m 1358 -192 q 1350 -182 1358 -190 q 1322 -154 1342 -174 q 1347 -194 1322 -194 q 1358 -192 1358 -194 m 632 768 q 608 849 632 808 q 550 890 585 890 q 517 921 540 890 q 460 951 493 951 q 257 901 363 951 q 247 950 257 921 l 219 958 q 228 901 222 940 q 161 892 206 900 q 133 911 153 908 q 133 874 133 911 l 147 881 q 124 844 138 853 l 114 844 l 114 826 q 156 801 143 817 q 181 760 158 797 l 200 760 q 209 717 207 747 q 218 676 211 688 q 243 656 225 664 q 267 644 261 649 q 308 601 288 622 q 386 588 325 588 q 551 628 485 588 q 632 768 632 676 m 638 533 q 625 542 633 542 q 604 529 615 542 q 593 507 593 517 q 607 500 597 500 q 638 533 638 500 m 1004 138 q 971 150 993 147 l 971 132 l 983 131 q 1004 138 1004 131 m 985 -19 q 979 -1 985 -24 q 942 -1 942 -1 l 961 -31 l 971 -32 q 985 -19 985 -32 m 361 511 l 343 511 l 343 578 l 324 578 q 314 474 314 457 l 343 474 l 343 503 q 346 499 343 499 q 361 511 349 499 m 257 483 l 247 511 l 219 521 l 228 483 l 257 483 m 211 876 l 190 854 q 185 872 185 865 q 197 883 185 883 q 211 876 211 883 m 201 842 q 181 826 201 833 q 179 840 179 821 q 190 844 179 844 q 201 842 201 846 z "},"&":{"ha":1424,"x_min":-1,"x_max":1353,"o":"m 1332 360 l 1303 340 q 1297 321 1297 332 q 1299 308 1297 317 q 1300 297 1300 300 q 1267 281 1300 281 q 1256 274 1257 281 l 1256 246 l 1251 244 q 1230 256 1243 244 q 1204 268 1217 268 q 1189 264 1196 268 q 1169 246 1179 247 q 1208 207 1182 233 q 1215 211 1213 211 q 1218 197 1218 211 q 1222 189 1222 196 q 1181 168 1222 168 l 1169 169 l 1160 197 q 1113 217 1144 204 q 1113 249 1113 217 q 1126 272 1113 258 q 1139 290 1139 285 q 1113 303 1133 300 q 1113 350 1117 311 l 1142 360 l 1122 379 l 1151 397 l 1151 406 q 1151 436 1151 436 l 1132 426 q 1110 458 1110 449 q 1122 464 1113 464 q 1147 451 1128 464 q 1169 436 1165 438 q 1332 397 1200 424 q 1332 365 1332 397 l 1332 360 m 1094 417 q 1056 417 1056 417 q 1054 447 1054 407 q 1063 465 1054 465 q 1082 446 1072 465 q 1094 417 1088 431 m 1353 -212 q 1351 -239 1353 -219 q 1350 -268 1349 -258 q 1160 -258 1224 -268 l 1160 -231 q 1139 -228 1153 -228 q 1113 -232 1131 -228 q 1085 -236 1094 -236 q 1009 -194 1053 -236 q 947 -151 965 -151 q 929 -158 940 -151 q 911 -164 918 -164 q 883 -143 897 -164 q 847 -122 868 -122 q 831 -135 831 -122 q 856 -154 839 -154 l 854 -193 l 856 -211 l 838 -192 q 828 -221 828 -197 q 801 -233 814 -231 q 771 -233 788 -235 q 740 -231 747 -231 l 732 -231 q 690 -266 721 -264 q 628 -268 658 -268 l 628 -240 l 622 -237 q 611 -240 619 -237 q 599 -240 603 -243 q 542 -249 550 -239 q 514 -268 524 -264 l 525 -272 q 501 -267 517 -272 q 478 -262 486 -262 q 468 -270 471 -262 q 457 -278 465 -278 q 400 -249 439 -278 l 392 -249 q 380 -254 386 -249 q 365 -260 374 -260 l 361 -258 q 363 -244 363 -264 q 351 -240 363 -240 q 324 -249 350 -240 q 294 -258 299 -258 l 285 -240 q 143 -183 238 -224 q 149 -165 144 -179 q 154 -143 154 -151 q 147 -132 154 -132 q 124 -144 139 -132 l 114 -117 q 88 -106 104 -115 q 63 -67 72 -97 q 47 -21 54 -44 q 86 -1 72 -11 q 38 -21 68 -4 l 39 -17 q 19 -1 39 -1 q 21 13 21 3 q 21 29 21 18 q 19 46 19 40 q 86 83 42 60 q 104 46 93 72 l 124 46 l 125 32 q 116 22 125 25 q 104 17 107 19 q 104 -4 104 17 l 104 -11 l 133 -31 l 133 -32 q 128 -45 133 -36 q 122 -61 122 -54 l 124 -68 l 143 -87 q 200 -68 161 -79 l 200 -89 q 190 -117 200 -124 l 210 -135 q 222 -136 214 -136 q 257 -135 264 -136 q 257 -121 257 -135 q 269 -115 257 -118 q 276 -117 272 -117 q 294 -97 289 -117 q 271 -104 289 -99 q 243 -110 253 -110 q 224 -103 224 -110 q 247 -97 224 -97 l 247 -68 q 207 -40 207 -49 q 219 7 207 -25 q 231 5 224 8 q 242 1 238 1 q 257 7 249 1 l 267 36 q 171 -11 235 24 q 174 3 174 -1 l 171 36 l 181 36 q 236 71 229 71 q 210 46 233 65 q 243 56 243 46 q 210 83 226 72 q 247 83 210 83 q 251 96 251 90 q 228 103 249 106 q 210 179 222 129 l 181 179 l 181 150 q 129 163 153 163 q 97 131 110 163 q 63 100 83 100 q 47 103 58 100 l 57 122 l 50 122 q 31 115 42 122 q 15 108 19 108 q -1 182 -1 108 q 57 369 -1 244 l 76 369 q 81 397 81 378 q 86 417 81 411 l 104 417 l 171 474 l 171 493 q 253 532 238 532 q 278 532 254 532 q 324 531 300 531 l 324 543 q 276 644 324 571 q 314 674 289 654 q 267 664 285 665 l 267 721 q 307 704 285 717 q 304 701 310 701 l 336 701 q 333 701 335 703 l 333 721 q 314 750 326 725 q 274 747 286 747 q 228 750 258 747 q 285 968 228 860 q 296 972 294 968 q 294 983 294 968 l 294 988 l 324 988 l 333 968 q 332 925 331 947 l 333 882 q 399 868 393 868 l 399 868 q 392 871 397 871 l 374 876 q 286 897 343 886 q 326 879 290 892 q 358 863 358 868 q 338 849 338 857 q 371 839 338 839 q 415 851 415 839 q 408 854 415 854 l 390 864 q 383 886 385 872 q 381 911 382 907 l 369 911 q 356 921 356 908 q 365 946 356 931 q 381 968 381 968 l 333 1007 q 346 1032 339 1032 q 351 1025 349 1032 q 369 1044 356 1028 q 393 1056 378 1056 q 421 1051 403 1056 q 447 1047 439 1047 q 475 1054 461 1047 l 475 1072 q 527 1098 500 1085 q 576 1111 554 1111 q 585 1107 585 1111 q 572 1088 585 1100 q 558 1069 558 1075 q 567 1068 560 1068 q 590 1072 565 1068 q 608 1092 599 1089 l 618 1111 q 796 1092 738 1111 q 951 997 854 1072 q 945 988 950 994 q 940 975 940 981 l 942 968 l 961 958 l 961 931 q 994 893 994 929 q 992 865 994 885 q 989 835 989 844 l 990 840 q 993 826 992 836 q 994 778 994 811 q 990 733 994 739 q 975 725 986 726 q 961 721 964 724 q 940 685 949 711 q 922 644 931 654 q 894 635 913 643 q 875 601 883 626 q 856 569 867 576 q 822 559 846 561 q 789 550 799 557 q 771 521 785 539 q 704 493 749 513 q 703 460 703 496 l 704 454 q 732 426 725 442 q 685 436 708 436 l 685 474 q 701 478 701 474 q 694 483 701 481 q 647 464 693 482 l 647 426 q 781 397 700 410 q 794 349 794 346 q 781 340 794 336 l 789 321 q 810 319 800 317 q 826 322 822 322 q 860 271 860 322 q 856 263 860 263 q 846 274 851 265 l 846 254 q 854 253 850 253 q 857 258 857 253 q 856 264 857 263 q 871 269 861 269 q 904 242 886 269 q 932 207 925 210 l 961 207 l 961 236 l 989 246 q 992 254 992 251 q 988 267 992 260 q 983 278 983 274 q 989 293 983 282 l 1018 303 q 1039 335 1028 313 q 1056 369 1053 365 q 1078 333 1057 365 q 1094 299 1094 308 q 1078 293 1094 293 l 1075 293 q 1074 229 1074 272 l 1075 207 l 1094 189 l 1094 179 q 1085 140 1089 165 q 1046 179 1072 154 q 1046 149 1046 164 q 1056 122 1047 131 l 1056 103 q 1119 97 1097 97 q 1149 110 1149 97 q 1113 160 1149 128 q 1208 150 1151 150 l 1199 122 q 1185 117 1197 118 q 1169 113 1172 115 l 1169 83 q 1149 69 1165 72 q 1133 33 1133 65 l 1132 26 l 1103 26 l 1103 56 q 1065 36 1072 36 q 1065 -1 1063 24 q 1060 -15 1060 -10 q 1075 -31 1060 -26 q 1071 -26 1071 -29 q 1085 -11 1071 -18 q 1108 -42 1115 -42 q 1103 -40 1106 -42 q 1108 -54 1107 -54 q 1122 -58 1121 -58 l 1121 -92 l 1122 -107 l 1136 -104 q 1132 -117 1113 -108 l 1110 -115 l 1085 -117 l 1085 -135 q 1103 -140 1092 -140 q 1128 -154 1121 -140 q 1142 -183 1135 -168 q 1168 -167 1168 -171 q 1159 -164 1168 -165 q 1150 -160 1150 -162 q 1160 -154 1150 -156 l 1161 -124 l 1160 -97 l 1142 -78 q 1140 -61 1140 -72 q 1151 26 1140 -32 l 1169 26 q 1199 17 1183 21 l 1199 -1 l 1204 -3 q 1214 11 1214 -3 q 1239 19 1214 19 q 1295 13 1258 19 q 1350 7 1332 7 q 1338 -75 1350 -17 q 1331 -158 1328 -128 l 1332 -174 l 1350 -192 q 1353 -212 1353 -199 m 893 -162 q 875 -174 893 -169 q 874 -157 874 -179 q 879 -153 874 -153 q 893 -162 893 -153 m 169 -39 q 153 -50 169 -46 q 151 -33 151 -56 q 156 -29 151 -29 q 169 -39 169 -29 m 868 954 q 818 968 835 965 l 828 949 q 868 954 868 949 m 894 888 q 865 911 894 892 q 857 886 857 906 q 865 835 857 868 l 885 835 l 885 892 q 894 888 893 888 m 896 774 q 882 781 892 781 l 875 778 l 865 740 q 896 774 896 758 m 644 974 q 633 979 643 979 q 624 974 624 979 q 638 958 624 968 q 644 974 644 969 m 1263 307 q 1236 321 1249 321 l 1236 303 l 1249 301 q 1263 307 1263 301 m 860 667 q 828 683 849 678 l 828 664 l 846 663 q 860 667 860 661 m 551 988 q 500 1022 542 992 q 443 1044 471 1044 l 438 1044 l 428 1025 q 411 1029 411 1025 q 418 1035 411 1032 l 400 997 l 424 997 q 490 992 447 997 q 551 988 532 988 m 458 964 q 428 978 451 975 l 438 958 l 447 957 q 458 964 458 957 m 781 683 q 771 676 778 682 q 758 671 764 671 q 743 686 751 671 q 714 701 735 701 l 722 674 l 715 672 q 704 678 711 672 q 692 683 697 683 q 663 669 678 683 q 649 640 649 656 q 675 626 654 626 q 706 644 699 626 q 722 664 714 661 l 771 654 l 781 683 m 428 949 q 400 958 418 958 l 400 940 q 428 949 428 940 m 699 600 q 683 608 694 608 q 664 600 664 608 q 694 588 674 596 q 699 600 699 600 m 1322 -125 l 1322 -58 l 1293 -50 q 1303 -125 1307 -87 l 1322 -125 m 650 590 q 629 597 640 600 l 618 597 l 608 550 l 628 550 q 650 590 650 589 m 979 179 q 976 193 976 181 q 969 199 976 199 q 950 193 950 199 q 979 179 950 186 m 979 -68 l 971 -43 q 968 -36 971 -40 q 969 -43 968 -37 l 971 -50 l 951 -50 q 961 -21 969 -24 l 965 -21 q 976 -6 975 -21 q 979 17 978 6 q 968 20 979 17 q 957 25 957 24 q 961 26 957 26 l 954 28 q 939 17 939 28 q 951 -11 939 4 l 951 -21 q 933 -11 938 -18 q 922 -1 928 -4 l 904 -21 l 904 7 l 896 10 q 888 3 892 10 q 878 -3 883 -3 l 875 -1 l 885 26 l 879 26 q 814 3 847 26 q 761 -50 781 -19 q 732 -21 754 -35 l 732 -15 q 736 10 731 -7 q 742 35 742 26 q 732 56 742 47 l 761 56 q 771 83 761 67 q 704 65 749 78 q 635 128 669 96 q 590 197 589 171 l 571 197 q 524 283 557 233 q 506 288 518 288 q 493 308 493 288 q 504 369 493 331 l 475 350 l 447 369 l 447 397 q 571 417 500 426 q 547 436 547 436 q 514 444 539 440 q 508 447 511 446 l 531 447 q 565 446 543 447 q 599 444 588 444 q 619 458 606 444 q 638 474 632 472 l 618 531 q 532 540 571 533 q 608 607 575 565 l 590 635 l 618 635 q 606 657 606 651 q 631 674 606 667 q 665 683 663 682 q 694 721 674 699 l 722 711 l 714 731 q 750 797 742 774 q 761 874 754 814 q 743 903 743 883 q 756 928 743 928 q 761 921 761 928 q 763 965 763 914 l 761 978 l 732 1015 l 761 1015 q 771 1092 767 1064 l 746 1090 l 732 1092 q 731 1038 731 1074 q 725 1022 731 1022 q 675 1035 738 1022 l 685 1007 l 722 1007 q 732 921 725 978 q 617 946 657 946 q 494 874 542 946 l 475 864 q 471 801 468 846 q 449 779 467 794 q 432 761 432 764 q 460 749 432 749 l 467 750 l 475 778 l 494 778 q 532 683 503 743 q 563 668 536 678 q 582 646 582 661 q 576 612 582 635 q 571 578 571 589 q 532 578 558 579 q 535 576 533 578 q 529 574 535 574 q 504 578 529 574 q 495 602 499 582 q 485 626 492 622 l 457 626 l 447 664 l 418 664 q 408 740 413 676 l 381 731 l 381 711 q 382 715 381 714 l 382 704 l 381 644 q 372 649 376 649 q 361 635 365 649 q 390 626 372 633 q 399 602 394 622 q 408 578 403 582 l 428 578 l 428 540 q 392 540 428 540 q 349 527 357 540 q 333 503 340 514 q 381 511 336 503 l 400 493 q 381 474 393 490 l 351 474 q 415 464 400 464 q 451 474 425 464 q 485 483 478 483 q 514 464 503 483 q 447 426 514 464 l 447 397 q 432 397 443 394 q 415 400 418 400 q 408 397 414 400 q 385 360 410 372 q 361 321 360 347 q 340 322 365 322 q 333 321 336 322 l 324 303 l 294 331 q 257 313 290 324 l 257 293 l 294 294 l 314 293 q 296 175 296 221 q 438 -21 296 54 l 457 -50 l 463 -51 q 482 -45 468 -51 q 504 -40 496 -39 l 494 -58 q 657 -40 593 -58 q 679 -28 663 -39 q 704 -19 692 -19 q 743 -44 715 -19 q 789 -78 775 -74 l 799 -87 l 799 -107 q 822 -85 821 -94 l 808 -87 l 808 -68 l 838 -58 l 838 -31 l 853 -29 l 856 -31 l 856 -50 q 857 -46 853 -47 q 857 -50 857 -46 l 857 -64 q 856 -117 857 -99 l 894 -117 l 892 -71 l 894 -50 l 932 -50 q 910 -56 911 -50 l 979 -68 m 1013 99 q 989 113 1013 113 q 982 108 982 113 q 1008 83 982 103 q 1013 99 1013 90 m 314 758 q 310 772 310 761 q 294 778 310 778 l 294 758 l 314 758 m 361 664 q 358 678 358 665 q 343 683 358 683 l 343 664 l 361 664 m 961 83 l 961 113 q 922 122 947 114 l 922 115 q 904 82 925 82 q 888 87 897 82 q 875 93 878 92 l 904 65 l 911 64 q 942 65 947 64 q 961 83 944 74 m 804 240 q 751 254 788 246 q 751 269 751 254 q 742 274 749 272 l 742 293 q 770 303 751 296 q 799 313 789 310 l 771 313 q 761 340 768 314 q 685 350 739 344 l 675 331 q 674 326 674 329 q 685 313 674 319 l 685 254 q 646 239 646 254 q 675 236 658 231 q 649 210 649 231 q 657 200 649 200 q 694 254 671 200 q 714 231 703 250 q 746 217 722 217 l 751 217 l 761 236 q 804 240 803 236 m 1038 -14 q 1011 -1 1038 -1 q 978 -7 978 -1 l 1036 -21 l 1038 -14 m 675 274 q 672 288 672 275 q 657 293 672 293 l 657 274 l 675 274 m 625 299 q 599 313 614 311 l 599 293 l 611 292 q 625 299 625 292 m 428 407 q 425 421 425 408 q 408 426 425 426 l 408 407 l 428 407 m 944 -101 q 913 -87 936 -90 l 922 -107 l 932 -108 q 944 -101 944 -108 m 940 -136 q 913 -117 929 -117 l 894 -135 q 917 -143 903 -137 q 913 -144 918 -144 l 924 -146 q 940 -136 940 -146 m 390 407 l 383 407 q 343 397 372 407 q 346 408 347 400 q 353 417 344 417 l 361 417 l 361 444 l 343 436 q 339 465 328 465 q 343 464 340 465 l 343 483 q 318 489 335 489 q 294 493 301 489 l 314 454 q 247 444 292 450 l 247 426 q 256 419 256 422 q 247 407 256 413 q 239 400 239 401 q 246 399 240 399 q 294 407 264 399 l 294 379 q 278 381 290 379 q 263 381 268 381 l 233 379 l 226 379 l 225 378 l 228 379 q 256 367 256 379 q 228 360 247 354 l 219 331 l 247 331 l 257 360 l 258 360 q 276 351 265 361 q 293 340 286 340 q 314 353 304 340 q 324 379 324 367 q 347 381 333 382 q 369 378 367 378 l 381 379 l 390 407 m 722 -97 q 704 -50 719 -79 l 675 -40 q 704 -68 683 -50 l 685 -97 q 699 -99 690 -99 l 722 -97 m 744 -117 l 732 -107 q 700 -120 721 -108 q 678 -142 679 -132 q 714 -144 686 -147 l 704 -164 l 685 -164 q 694 -175 689 -175 q 728 -154 711 -175 q 744 -117 744 -133 m 160 331 q 149 335 158 335 q 117 300 117 335 q 126 289 117 289 q 143 293 126 289 q 160 331 160 317 m 210 313 q 171 331 196 317 q 168 325 168 328 q 181 313 168 317 l 181 293 l 104 274 q 107 276 107 274 q 67 283 107 283 l 57 254 q 133 254 57 254 l 124 226 q 147 232 147 226 q 143 236 147 235 q 210 313 165 261 m 524 -154 q 494 -125 524 -137 l 504 -154 q 518 -158 517 -158 q 524 -154 524 -158 m 483 -122 q 457 -97 471 -101 l 467 -125 l 476 -128 q 483 -122 483 -128 m 526 -175 q 494 -164 526 -164 l 524 -183 q 526 -175 526 -178 m 318 -57 q 294 -50 318 -50 q 306 -19 306 -40 q 285 7 306 8 q 285 -58 285 7 l 314 -58 q 318 -57 317 -58 m 83 229 q 78 240 83 240 q 54 215 63 240 q 33 190 46 189 q 76 197 40 203 q 83 229 83 225 m 343 -97 q 339 -82 339 -94 q 332 -78 339 -78 q 313 -82 313 -79 q 343 -97 313 -92 m 332 -125 q 304 -117 324 -117 l 304 -135 q 332 -125 332 -135 m 319 -151 q 301 -144 317 -144 q 288 -147 288 -144 q 314 -164 288 -151 q 319 -151 319 -158 m 261 -210 q 247 -164 261 -192 l 219 -154 q 228 -175 224 -165 q 247 -192 233 -185 q 251 -196 250 -193 q 242 -201 251 -199 q 233 -206 233 -204 q 242 -215 233 -210 q 256 -219 251 -219 q 261 -210 261 -219 z "},"'":{"ha":688,"x_min":0,"x_max":588,"o":"m 507 790 q 238 890 372 840 q 29 1035 29 978 q 133 1100 29 1076 q 272 1118 210 1118 q 390 1106 319 1118 q 507 1085 449 1096 q 488 1011 497 1049 q 476 938 476 968 q 507 790 476 903 m 588 -278 l 53 -278 q 26 364 26 -42 q 82 369 54 367 q 133 390 115 374 l 133 443 q 111 446 119 446 q 54 435 88 446 q 0 417 28 426 q 31 643 15 531 q 53 871 49 776 q 203 851 128 861 q 347 817 294 838 q 394 769 364 810 q 447 735 421 735 q 493 749 467 735 q 525 764 519 764 l 535 764 l 535 711 q 544 699 544 708 q 507 631 544 672 q 442 671 485 640 q 374 711 399 701 q 364 708 368 708 q 321 738 361 708 l 347 550 q 268 535 317 540 q 188 524 206 528 l 188 469 q 279 479 214 471 q 369 488 336 488 q 507 443 457 488 q 568 106 551 404 q 588 -278 578 -86 z "},"(":{"ha":578,"x_min":-11,"x_max":494,"o":"m 488 1103 q 463 1056 482 1082 l 439 1056 l 439 1024 l 407 1007 l 392 1032 l 385 1032 q 375 1024 378 1032 q 389 1015 389 1024 l 383 1007 l 407 1007 l 407 992 q 388 965 403 982 q 367 936 372 947 q 374 928 374 929 l 374 928 q 360 936 368 928 q 358 933 360 935 l 358 938 l 360 960 l 335 960 q 351 906 351 914 q 332 873 351 894 q 313 817 313 851 l 311 808 l 296 808 l 279 744 q 269 749 276 744 q 257 754 263 754 l 247 751 q 267 744 249 744 l 271 744 q 253 669 268 726 q 239 594 239 622 q 243 572 239 588 q 247 549 247 557 l 247 544 l 232 544 q 226 457 232 519 q 224 369 222 400 q 175 353 207 367 q 179 339 179 347 q 156 321 179 321 q 142 326 150 321 q 129 331 133 331 l 119 329 l 111 306 l 79 306 l 79 281 q 24 290 40 290 l 28 290 l 32 289 l 32 274 l 0 274 q -11 492 -11 418 q 8 688 -11 599 q 36 750 13 707 q 54 817 54 786 l 56 824 l 79 847 q 79 868 79 847 l 79 872 l 96 872 q 96 900 96 872 q 168 1007 96 949 q 201 1056 189 1024 q 228 1097 214 1088 q 310 1115 251 1115 q 371 1096 371 1115 q 351 1071 365 1082 q 424 1047 376 1065 l 431 1064 l 407 1064 q 415 1079 417 1072 q 410 1094 413 1088 q 449 1104 418 1106 l 488 1103 m 494 -262 l 488 -278 l 410 -279 q 375 -278 360 -279 q 349 -279 367 -276 q 324 -282 332 -282 q 296 -278 304 -282 l 288 -262 l 279 -261 q 274 -266 276 -261 q 267 -271 271 -271 l 264 -269 l 256 -254 q 229 -256 260 -256 l 224 -254 l 215 -231 q 179 -189 193 -212 q 151 -142 165 -165 l 128 -135 q 97 -25 97 -65 l 96 -14 l 72 1 q 58 55 64 19 q 47 106 53 90 l 24 129 l 24 136 q 24 161 24 161 q 96 153 49 158 q 97 179 97 149 l 96 185 l 79 185 q 64 225 76 199 q 84 242 71 231 q 104 257 97 253 l 106 257 q 117 254 117 257 q 111 249 117 251 l 119 249 l 128 281 q 174 290 161 281 q 207 321 190 306 q 232 249 215 285 l 247 249 q 254 214 253 236 q 256 178 254 185 l 271 178 q 269 135 269 182 q 281 92 269 117 q 296 50 293 60 l 311 50 q 351 -71 324 10 l 367 -71 q 371 -117 367 -72 q 399 -142 374 -143 q 422 -201 413 -186 q 439 -212 429 -210 q 456 -222 449 -214 q 463 -254 454 -235 q 494 -262 474 -254 m 56 193 l 32 193 q 15 169 29 186 q 19 197 19 194 q 0 225 19 217 q 4 246 0 246 q 8 242 7 244 q 6 251 21 247 l 15 249 q 33 226 29 235 q 32 225 35 224 l 32 210 q 50 211 29 211 l 56 210 l 56 193 m 246 768 q 239 773 246 769 q 232 776 232 776 q 195 785 213 781 q 160 808 178 789 l 168 824 q 157 826 160 826 q 128 815 144 826 q 121 831 122 817 q 119 847 121 839 q 88 856 96 857 q 111 800 94 831 q 143 792 124 800 q 136 751 142 779 q 115 744 115 751 q 125 742 121 742 q 136 744 128 742 l 151 768 q 175 768 160 767 q 169 771 172 769 l 172 771 l 185 769 q 236 765 222 765 q 246 768 246 765 m 160 201 q 140 218 160 218 l 136 217 l 119 201 q 160 201 119 201 m 224 106 q 221 118 221 107 q 215 122 221 122 q 199 118 199 122 q 224 106 199 113 m 256 18 q 247 42 247 39 q 192 42 192 42 l 224 1 l 239 1 l 256 18 m 358 -107 q 349 -101 357 -101 q 329 -118 329 -101 q 346 -126 333 -126 l 351 -126 q 358 -107 358 -112 m 178 56 q 158 65 178 65 q 146 64 153 65 q 175 50 146 60 q 178 56 178 53 m 382 -158 q 351 -150 364 -150 l 343 -182 l 367 -182 l 375 -158 l 382 -158 m 146 33 q 126 42 146 42 q 114 39 114 42 q 143 25 114 35 q 146 33 146 31 z "},")":{"ha":633,"x_min":0,"x_max":526,"o":"m 474 710 q 461 699 474 707 l 461 708 q 465 717 461 717 q 474 710 474 717 m 390 550 q 383 546 390 546 l 381 546 q 371 560 371 556 q 375 563 371 563 q 390 550 390 563 m 526 368 l 503 360 l 518 328 q 511 267 511 304 q 494 142 511 196 l 478 142 q 438 -3 469 92 l 421 -3 q 374 -132 403 -62 q 349 -141 367 -139 q 325 -149 332 -143 l 332 -172 l 292 -189 q 293 -222 293 -186 l 292 -229 l 251 -278 q 176 -286 228 -286 q 89 -282 147 -286 q 1 -278 31 -278 q 39 -215 17 -236 q 82 -149 61 -194 q 110 -147 90 -144 l 122 -140 l 125 -135 q 119 -124 125 -131 q 114 -111 114 -117 l 114 -108 q 139 -82 136 -85 q 146 -50 146 -71 l 147 -43 l 171 -28 q 171 -1 171 -28 q 185 24 171 10 q 203 45 200 39 q 215 94 206 51 q 243 135 219 118 l 246 136 q 240 142 246 139 q 235 147 235 144 l 236 150 l 251 150 l 253 154 q 244 170 253 163 q 235 186 235 178 l 236 190 l 260 231 q 260 281 260 231 l 260 288 l 276 288 q 278 324 279 303 q 275 358 275 354 q 292 434 275 383 q 308 511 308 485 l 308 522 l 292 522 q 285 611 293 553 l 260 626 l 258 635 q 263 647 258 640 q 268 657 268 654 l 268 658 q 242 714 257 672 q 219 756 229 750 q 218 758 218 757 q 223 763 218 760 q 228 769 228 767 q 209 790 228 774 q 190 826 190 806 q 181 861 190 840 q 163 893 171 876 l 147 893 q 74 1014 125 935 q 31 1053 53 1033 q 0 1096 0 1081 q 31 1113 7 1113 q 76 1108 46 1113 q 122 1103 107 1103 q 167 1108 138 1103 q 213 1114 197 1114 q 236 1111 219 1114 l 243 1094 q 275 1065 263 1083 q 300 1031 297 1033 q 340 1006 315 1025 q 344 989 344 1001 q 354 969 344 972 q 374 965 372 967 q 389 928 385 957 q 397 885 393 907 q 382 894 378 894 l 374 893 l 374 876 l 382 876 q 414 885 381 876 q 454 804 439 853 l 415 807 q 374 772 400 808 q 360 775 365 775 q 374 764 360 771 l 357 747 l 368 746 q 406 751 381 746 q 436 767 436 758 q 414 772 429 772 q 438 781 422 786 q 433 786 435 782 q 454 796 433 796 q 451 756 453 776 q 438 715 450 742 l 421 715 q 415 693 422 696 q 394 693 417 693 l 389 692 q 478 675 419 685 l 478 643 l 494 643 q 496 618 497 632 q 492 593 492 599 q 510 578 492 582 q 497 575 497 578 q 503 569 497 572 l 494 569 q 497 569 497 572 l 478 563 l 478 578 l 461 578 l 454 546 q 425 544 464 544 q 418 547 418 544 q 429 563 422 556 l 438 586 q 469 594 451 585 l 469 611 l 454 611 l 454 626 l 450 626 q 421 643 450 626 q 414 586 425 618 q 374 569 397 585 l 374 571 q 357 586 374 586 q 347 539 353 563 q 317 506 343 526 q 331 497 331 499 l 328 494 q 363 486 328 489 q 406 482 383 485 q 421 503 414 493 q 439 522 436 522 q 458 519 444 519 q 486 522 478 519 q 506 531 493 531 l 510 529 q 496 513 496 515 q 503 514 497 511 q 522 506 504 506 l 526 506 q 524 421 524 450 q 526 368 524 404 m 315 985 q 292 1006 303 1004 l 300 982 l 310 981 q 315 985 315 981 m 381 861 q 357 869 372 869 l 357 853 q 381 861 381 853 m 183 1019 q 179 1022 182 1021 q 151 1047 172 1026 q 124 1064 133 1064 q 107 1063 104 1064 q 123 1033 114 1049 q 178 1018 132 1018 q 183 1019 181 1018 m 258 954 q 242 967 253 967 l 236 965 q 221 933 221 947 q 232 925 224 925 q 258 954 258 925 m 179 982 q 176 993 176 983 q 163 999 176 999 l 163 982 l 179 982 m 308 756 q 283 772 307 772 q 267 769 267 772 q 308 756 267 767 m 413 463 q 374 474 404 464 l 357 457 q 389 440 368 451 q 413 463 413 464 m 346 469 q 332 474 342 474 l 325 474 q 319 461 319 465 q 329 457 321 457 q 346 469 346 457 m 381 363 q 375 369 381 369 q 357 357 367 369 q 347 336 347 344 q 358 332 350 332 q 374 336 357 332 q 381 363 381 357 m 285 -189 l 285 -165 q 249 -149 250 -150 q 243 -108 246 -128 l 219 -108 l 211 -149 l 163 -149 l 158 -147 l 158 -149 q 179 -172 158 -158 q 231 -183 199 -181 q 285 -189 271 -186 m 190 -117 l 147 -100 q 157 -115 154 -106 q 163 -132 160 -124 q 190 -117 190 -122 m 153 -136 q 143 -132 151 -132 q 135 -136 135 -132 q 147 -149 135 -140 q 153 -136 153 -143 m 243 -246 l 243 -221 l 211 -221 l 211 -237 q 243 -246 222 -239 z "},"*":{"ha":1549,"x_min":0,"x_max":1503,"o":"m 1503 425 q 1406 433 1471 425 q 1307 442 1340 442 l 1290 442 l 1275 408 q 1163 405 1238 408 q 1051 401 1088 401 q 867 442 942 401 q 871 482 872 456 q 867 522 867 524 q 942 558 926 558 q 1013 522 954 558 q 1046 556 1014 533 q 1033 576 1044 561 q 1022 603 1022 592 q 1029 621 1022 600 q 1324 735 1164 676 l 1340 703 q 1358 699 1349 699 q 1390 707 1372 699 q 1422 719 1415 718 q 1429 631 1428 700 q 1438 556 1432 567 q 1458 543 1443 546 q 1488 539 1474 540 q 1503 425 1490 501 m 1290 -99 q 997 -278 1172 -153 q 981 -99 994 -218 q 947 0 969 -67 l 915 0 q 890 90 903 29 q 867 179 878 151 q 835 222 861 190 q 817 278 817 244 q 768 286 807 286 q 735 294 751 286 l 589 -82 l 556 -99 q 550 -156 550 -111 q 522 -206 550 -194 q 493 -264 493 -218 q 490 -278 493 -269 q 418 -210 454 -244 q 344 -160 364 -160 q 326 -162 339 -160 q 307 -165 314 -165 q 243 -131 286 -165 q 179 -82 183 -85 q 188 -57 186 -75 q 196 -33 190 -39 q 244 -9 208 -22 q 294 17 281 4 q 328 64 306 25 q 360 114 350 103 q 785 360 528 303 l 768 408 q 654 425 731 413 l 654 436 q 646 464 654 449 q 638 485 638 479 q 656 556 638 507 q 675 632 675 604 q 631 710 675 676 q 589 785 588 744 q 556 792 585 788 q 536 815 536 794 q 572 850 536 828 l 522 867 q 490 1078 510 938 q 833 1078 683 1094 q 832 1103 832 1072 q 850 1111 832 1111 l 850 1107 q 858 1085 850 1103 q 867 1056 867 1068 q 844 1001 867 1033 q 817 947 821 965 q 790 726 806 893 q 751 507 778 586 q 817 457 774 489 l 817 442 q 835 442 824 439 q 851 444 849 444 q 867 442 861 444 q 899 392 886 403 q 878 393 892 393 q 860 388 860 392 q 865 379 860 383 q 869 374 869 375 q 850 376 869 367 l 867 326 q 943 290 875 321 q 1013 244 993 267 q 1054 167 1022 235 q 1095 98 1083 104 q 1131 92 1107 92 q 1159 83 1150 92 q 1171 51 1168 74 q 1176 17 1174 24 q 1290 -99 1196 -24 m 672 388 q 638 343 672 354 q 636 383 636 329 q 650 408 636 408 q 672 388 672 408 m 607 442 q 510 372 607 372 q 0 457 325 372 q 114 522 38 481 l 114 589 q 125 585 126 585 q 119 588 122 585 l 101 593 q 49 604 71 603 q 65 701 57 653 q 99 785 78 768 q 425 621 306 706 q 465 578 436 613 q 507 539 494 544 q 526 538 514 536 q 547 540 546 540 l 556 539 q 597 489 597 504 q 589 490 596 486 l 586 457 l 589 442 q 601 447 594 447 q 607 442 607 447 m 360 -121 q 360 -65 360 -65 q 311 -65 311 -65 q 317 -82 317 -69 q 315 -101 317 -87 q 313 -122 313 -115 q 342 -150 313 -150 q 360 -121 360 -150 z "},"+":{"ha":979,"x_min":6,"x_max":976,"o":"m 976 335 l 904 335 q 914 357 906 354 q 940 357 917 358 l 949 371 q 919 374 939 372 q 890 378 900 376 q 856 332 892 342 q 792 328 840 328 q 685 331 757 328 q 578 335 614 335 l 578 211 q 456 190 528 203 l 456 175 q 521 190 478 181 q 518 188 518 190 q 528 168 518 181 q 510 163 525 168 q 519 161 510 161 q 557 183 551 161 q 561 185 558 183 q 565 185 564 185 q 578 179 571 185 q 593 175 586 174 l 593 146 l 578 146 q 557 151 585 146 q 593 139 560 150 q 594 113 593 131 q 596 85 596 94 q 593 60 596 67 l 564 53 q 556 32 557 47 q 550 8 551 13 q 577 15 574 10 q 578 44 581 19 l 593 44 q 593 31 593 40 q 592 15 592 21 q 593 8 592 14 q 593 1 593 4 q 426 -12 500 -12 q 433 110 426 60 q 471 113 458 113 q 499 100 493 113 q 506 67 499 99 l 506 68 q 503 60 506 65 l 499 31 l 521 17 q 528 110 521 58 q 507 117 528 110 q 486 126 486 124 q 521 139 496 132 q 488 144 504 143 q 469 146 479 146 l 463 146 l 463 161 q 433 168 453 164 l 433 328 q 519 333 463 326 q 526 339 526 333 q 456 371 519 350 q 463 342 463 350 q 456 335 463 335 l 456 357 l 440 357 l 440 371 l 411 371 l 411 364 q 425 356 421 364 q 433 342 431 343 q 224 338 364 342 q 13 335 83 335 q 6 422 11 364 q 28 425 13 425 q 47 437 43 425 q 57 451 51 449 l 57 458 q 63 460 60 460 q 75 455 67 460 q 89 450 83 450 q 130 462 99 450 q 186 474 161 474 q 346 465 321 474 q 375 436 346 439 l 361 465 q 419 465 361 465 l 426 501 q 435 503 429 503 q 463 494 446 503 q 483 499 483 494 q 426 524 483 504 q 419 683 419 660 q 411 813 419 726 q 418 825 415 825 q 419 821 422 822 l 564 821 q 578 501 578 643 q 526 511 519 511 q 513 508 524 511 l 499 494 q 564 494 499 494 l 593 451 l 597 450 q 600 465 600 450 q 631 458 629 458 l 636 458 l 636 465 q 692 468 672 468 q 854 443 775 468 q 861 407 854 431 q 890 424 890 414 q 861 443 890 438 q 860 447 860 444 q 861 465 860 468 l 976 465 l 976 335 m 28 451 q 7 465 7 451 q 21 472 11 472 l 28 451 m 492 697 q 489 708 489 699 q 483 713 489 713 q 468 708 468 713 q 492 697 476 704 m 667 400 q 656 411 668 411 q 636 414 638 413 l 643 429 l 622 436 l 622 393 l 629 393 q 665 386 635 393 l 667 400 m 679 364 q 658 371 672 371 l 658 357 q 679 364 679 357 m 557 465 q 532 481 553 481 q 518 476 521 481 q 557 465 540 469 m 401 422 q 383 436 401 436 l 383 414 l 388 414 q 401 422 401 414 m 492 306 l 492 321 l 485 321 q 469 321 469 321 q 492 306 483 310 m 543 246 q 535 247 543 249 l 542 233 q 543 240 542 236 q 543 246 543 244 m 328 396 q 318 400 324 400 l 318 436 q 289 443 299 442 l 296 422 l 303 422 l 289 400 q 310 378 294 394 q 328 396 328 392 m 278 440 q 253 458 263 456 l 253 450 q 268 436 253 436 q 278 440 278 436 m 550 139 q 550 151 550 139 q 542 154 550 154 l 550 139 m 208 443 q 206 454 206 446 q 194 458 206 458 l 194 443 l 208 443 z "},",":{"ha":356,"x_min":-10,"x_max":314,"o":"m 314 -290 q 313 -317 314 -308 q 290 -338 292 -335 q 288 -365 288 -342 q 274 -375 288 -374 q 258 -379 260 -376 q 244 -419 250 -390 q 232 -458 238 -447 q 206 -489 226 -469 q 179 -521 185 -508 q 153 -600 172 -547 l 21 -600 l 21 -597 q 16 -589 21 -593 q 11 -578 11 -585 q 47 -511 11 -565 l 83 -503 q 85 -500 83 -501 q 85 -497 85 -499 q 68 -494 85 -494 l 65 -493 q 92 -406 71 -464 l 110 -406 q 118 -361 113 -375 l 136 -361 l 136 -358 q 131 -344 136 -351 q 126 -336 126 -336 l 126 -335 q 135 -324 136 -329 q 136 -308 135 -312 q 139 -311 138 -310 q 144 -282 144 -311 q 126 -264 138 -279 q 92 -279 114 -268 q 92 -282 86 -282 q 3 -264 63 -276 l 3 -256 q 0 -199 3 -208 q -4 -193 -6 -193 q -10 -197 -6 -194 l 21 -158 q 10 -153 10 -153 q -6 -158 6 -158 q -7 -146 -6 -154 q -7 -132 -7 -136 q 3 -114 -7 -107 q -4 -86 3 -93 q -6 -87 -6 -86 q -1 -59 -3 -68 q 3 -44 0 -50 l 3 -44 q 88 -43 32 -43 q 192 -44 122 -43 q 294 -44 260 -44 q 296 -77 294 -56 q 297 -110 297 -99 q 294 -140 297 -131 q 284 -149 293 -144 q 276 -162 275 -154 l 276 -168 l 303 -176 q 308 -233 303 -196 q 314 -290 314 -271 m 286 -203 q 272 -183 282 -200 q 254 -167 263 -167 q 232 -168 229 -167 l 258 -203 q 267 -204 261 -204 q 276 -204 271 -204 q 286 -203 283 -203 m 83 -124 q 79 -111 79 -121 q 65 -106 78 -106 l 65 -124 l 83 -124 m 90 -150 q 65 -140 90 -140 l 65 -158 q 90 -150 90 -158 m 171 -194 q 157 -194 167 -194 q 142 -193 147 -193 q 126 -194 132 -193 l 100 -211 q 93 -217 93 -218 q 126 -219 93 -219 q 153 -221 144 -219 q 171 -194 160 -210 m 144 -518 q 92 -503 144 -514 q 118 -511 101 -508 l 118 -537 q 144 -518 144 -519 m 108 -568 q 101 -562 108 -562 q 88 -568 88 -562 q 100 -582 88 -574 q 108 -568 108 -574 z "},"-":{"ha":1125,"x_min":92,"x_max":1075,"o":"m 1075 686 q 1058 419 1075 629 q 951 419 1058 419 l 925 419 l 908 386 l 901 386 q 845 394 883 386 q 788 403 807 403 q 722 388 764 403 q 658 369 676 372 q 507 361 589 361 q 315 365 469 361 q 92 369 161 369 q 108 653 108 496 l 113 651 q 251 660 158 651 q 390 669 344 669 q 393 653 394 669 q 393 642 393 644 q 392 631 392 639 q 404 628 396 628 q 424 631 411 628 q 444 633 438 633 q 458 631 450 633 l 458 581 q 510 589 467 581 q 558 597 553 597 q 557 607 558 604 q 556 618 556 610 q 558 636 556 622 q 601 646 571 646 q 642 653 632 646 q 604 621 638 649 q 581 583 581 600 q 583 581 581 581 q 611 604 588 581 q 642 631 635 628 q 678 596 660 614 q 692 547 692 582 l 725 547 q 710 588 722 560 q 700 629 700 608 q 772 689 700 675 q 881 694 801 694 q 1075 686 944 694 m 833 435 q 824 481 833 453 q 808 525 810 517 l 758 525 q 774 457 767 492 q 819 415 783 415 q 833 435 833 415 m 736 490 q 675 514 736 496 l 692 464 q 704 461 700 461 q 736 490 713 461 m 496 551 q 425 564 476 557 l 425 547 q 496 551 494 547 z "},"":{"ha":1125,"x_min":92,"x_max":1075,"o":"m 1075 686 q 1058 419 1075 629 q 951 419 1058 419 l 925 419 l 908 386 l 901 386 q 845 394 883 386 q 788 403 807 403 q 722 388 764 403 q 658 369 676 372 q 507 361 589 361 q 315 365 469 361 q 92 369 161 369 q 108 653 108 496 l 113 651 q 251 660 158 651 q 390 669 344 669 q 393 653 394 669 q 393 642 393 644 q 392 631 392 639 q 404 628 396 628 q 424 631 411 628 q 444 633 438 633 q 458 631 450 633 l 458 581 q 510 589 467 581 q 558 597 553 597 q 557 607 558 604 q 556 618 556 610 q 558 636 556 622 q 601 646 571 646 q 642 653 632 646 q 604 621 638 649 q 581 583 581 600 q 583 581 581 581 q 611 604 588 581 q 642 631 635 628 q 678 596 660 614 q 692 547 692 582 l 725 547 q 710 588 722 560 q 700 629 700 608 q 772 689 700 675 q 881 694 801 694 q 1075 686 944 694 m 833 435 q 824 481 833 453 q 808 525 810 517 l 758 525 q 774 457 767 492 q 819 415 783 415 q 833 435 833 415 m 736 490 q 675 514 736 496 l 692 464 q 704 461 700 461 q 736 490 713 461 m 496 551 q 425 564 476 557 l 425 547 q 496 551 494 547 z "},".":{"ha":581,"x_min":8,"x_max":322,"o":"m 322 -56 q 321 -61 322 -58 l 321 -58 q 322 -112 322 -76 q 321 -165 321 -147 q 307 -153 310 -162 q 289 -144 304 -144 q 273 -146 283 -144 q 257 -147 263 -147 q 206 -136 244 -147 q 151 -121 156 -122 l 151 -121 l 147 -122 q 128 -124 140 -124 q 97 -110 104 -124 q 79 -85 86 -89 q 44 -103 49 -103 q 65 -126 47 -106 q 93 -140 78 -140 q 112 -136 100 -140 q 129 -132 124 -132 q 151 -139 140 -132 l 178 -183 q 224 -189 193 -189 q 253 -186 253 -189 q 240 -183 250 -183 l 240 -165 q 225 -162 229 -162 q 207 -165 219 -162 q 188 -167 194 -167 q 183 -167 186 -167 q 178 -165 179 -165 l 178 -164 q 169 -147 178 -164 l 172 -147 q 199 -146 182 -147 q 225 -144 217 -144 q 258 -153 258 -144 q 256 -156 258 -154 q 253 -161 253 -158 q 267 -174 253 -167 l 267 -192 q 276 -193 269 -193 q 290 -193 282 -193 q 303 -192 299 -192 q 311 -218 304 -194 q 311 -264 311 -264 q 150 -278 206 -278 q 79 -272 111 -278 q 8 -246 56 -262 q 19 -160 8 -240 q 26 -74 26 -107 q 22 -56 26 -68 q 18 -36 18 -43 q 51 -21 18 -21 q 57 -22 53 -21 q 61 -22 60 -22 l 61 -40 q 114 -29 75 -39 q 167 -21 147 -21 q 196 -35 183 -21 q 222 -49 208 -49 l 232 -22 q 321 -22 232 -22 q 322 -39 321 -28 q 322 -56 322 -50 m 294 -85 l 294 -67 q 258 -58 269 -61 l 249 -85 q 264 -83 254 -83 q 279 -85 268 -83 q 294 -85 289 -85 z "},"/":{"ha":629,"x_min":-14,"x_max":554,"o":"m 554 1075 q 540 1042 554 1064 q 519 1008 521 1011 l 503 1008 q 504 981 504 1013 l 503 975 l 478 958 q 486 914 486 931 q 465 856 486 897 q 435 796 450 825 l 410 796 q 394 808 396 799 q 408 821 399 815 q 375 804 392 815 q 333 838 356 815 q 358 847 339 844 l 358 831 l 375 831 l 375 847 q 365 844 369 844 q 358 853 358 844 q 367 881 358 864 q 378 876 371 881 q 392 871 386 871 l 400 872 q 383 949 396 899 q 468 1018 438 985 l 494 1026 q 494 1057 494 1026 q 485 1069 494 1069 l 478 1068 l 468 1035 q 426 1035 458 1039 l 426 1068 q 451 1111 426 1069 q 554 1103 454 1111 q 554 1075 554 1103 m 418 703 q 396 707 417 703 q 381 715 381 708 q 392 736 381 721 q 363 735 394 735 l 358 736 l 350 761 l 324 761 l 322 769 q 332 771 322 781 q 332 788 332 771 q 357 797 332 797 q 404 765 393 797 q 418 703 411 733 m 413 688 q 400 676 413 681 l 400 686 q 404 694 400 694 q 413 688 413 694 m 403 636 q 400 633 401 635 q 375 600 375 625 l 332 617 l 332 592 l 307 583 q 303 575 303 579 q 326 565 303 565 l 332 565 l 332 583 q 350 588 349 588 q 350 583 354 588 l 375 583 q 367 532 358 535 q 344 492 356 511 q 339 440 339 479 q 332 413 339 424 l 307 396 q 308 363 308 401 q 307 353 308 356 l 272 336 q 278 317 278 331 q 249 207 278 279 q 222 97 221 135 q 196 81 215 88 q 192 47 192 74 q 188 29 192 46 l 163 21 q 164 -14 163 8 q 165 -47 165 -36 q 156 -82 165 -69 q 146 -87 150 -85 l 144 -99 q 67 -107 113 -107 l 51 -107 l 51 -82 l 50 -86 l 49 -83 q 60 -22 49 -58 l 76 -22 q 74 -18 74 -22 q 85 -6 74 -17 l 85 -22 l 144 -14 q 97 -8 108 -14 q 79 33 79 0 q 93 106 79 58 l 111 106 q 144 233 122 165 q 214 263 178 242 l 153 250 l 153 268 l 171 268 q 163 285 172 275 q 239 506 189 358 q 257 496 249 496 q 264 497 261 496 q 254 506 260 506 l 247 506 l 247 532 q 256 519 256 531 l 256 515 q 290 524 293 524 q 256 532 282 529 q 272 625 256 565 q 286 633 274 628 q 299 643 299 639 l 299 676 l 350 693 l 358 651 q 321 646 340 650 l 358 633 l 358 651 q 403 636 403 640 m 104 -192 q 100 -231 104 -206 q 93 -269 94 -261 q 54 -274 82 -269 q 11 -279 26 -279 q -14 -256 -14 -279 q -6 -219 -14 -240 q 8 -185 7 -187 q 26 -188 14 -183 q 46 -193 39 -193 q 93 -175 61 -193 q 104 -192 104 -176 m 315 524 q 313 536 313 525 q 299 540 313 540 l 299 524 l 315 524 z "},":":{"ha":618,"x_min":24,"x_max":393,"o":"m 171 621 q 106 608 108 608 q 101 611 101 608 q 123 627 101 614 q 150 642 144 640 l 149 640 q 171 621 149 632 m 393 411 q 392 389 393 397 q 371 358 383 379 q 336 357 375 357 q 315 369 325 357 q 297 389 301 386 l 265 389 q 279 356 279 368 q 276 347 279 349 q 33 336 196 347 q 24 558 33 485 q 76 558 65 556 q 82 529 79 543 q 113 522 86 522 q 149 546 149 522 q 118 558 149 567 l 118 579 q 171 600 136 586 l 171 621 l 203 611 l 213 485 q 199 486 208 485 q 185 486 189 486 q 178 486 182 486 q 171 485 174 485 q 203 463 174 479 q 193 435 193 446 q 197 431 194 431 l 203 432 l 203 453 q 256 463 221 454 q 243 521 243 521 q 256 579 243 536 q 239 589 247 583 q 233 611 238 589 q 256 642 240 624 q 277 648 263 647 q 297 653 292 649 q 281 650 290 653 l 308 642 l 307 642 q 335 631 307 631 l 339 632 l 339 653 q 353 644 342 651 q 371 642 360 640 q 393 411 393 442 m 76 589 q 63 578 72 588 q 44 568 53 568 q 28 601 28 593 q 44 600 31 607 q 43 617 43 594 q 50 622 43 622 l 56 621 l 56 600 q 50 597 50 599 q 76 589 50 597 m 364 17 l 339 0 q 338 17 338 -6 q 350 21 338 21 q 364 17 364 21 m 371 -285 l 244 -285 q 244 -221 244 -221 q 253 -224 247 -224 q 256 -200 256 -224 l 258 -201 l 260 -201 q 233 -190 260 -190 l 233 -179 q 235 -168 232 -172 q 244 -169 238 -164 l 244 -147 q 276 -147 251 -151 l 265 -179 q 308 -179 274 -174 q 329 -53 308 -136 q 345 -42 332 -49 q 360 -32 358 -36 q 371 -285 363 -117 m 318 -24 q 271 -64 318 -64 q 222 -46 247 -64 q 182 -11 203 -28 l 171 -43 l 192 -43 q 139 -74 175 -54 q 160 -101 160 -86 q 146 -132 160 -112 q 129 -158 132 -151 q 132 -162 132 -158 q 107 -190 132 -165 l 139 -200 q 135 -196 138 -199 q 138 -193 135 -193 q 160 -200 143 -193 l 160 -221 q 160 -236 160 -221 q 150 -232 154 -236 q 157 -246 151 -236 q 163 -262 163 -256 q 160 -274 163 -268 l 129 -296 q 115 -273 122 -285 q 94 -261 108 -261 q 79 -267 89 -261 q 65 -274 69 -272 q 76 -190 68 -246 q 75 -192 76 -192 l 75 -190 q 65 -158 74 -189 q 67 -160 65 -160 l 69 -151 l 76 -117 q 63 -44 63 -108 q 67 -8 63 -17 q 97 21 72 1 q 208 18 142 15 q 318 21 318 21 q 318 -24 318 21 m 213 -200 q 203 -204 208 -204 q 194 -193 194 -204 q 213 -158 194 -165 l 213 -200 m 318 579 q 314 594 314 582 q 297 600 314 600 l 297 579 l 318 579 m 342 549 q 318 568 328 567 l 329 547 l 336 547 q 342 549 339 547 m 242 399 q 203 421 242 406 l 203 389 q 242 399 242 389 z "},";":{"ha":483,"x_min":-8,"x_max":346,"o":"m 346 585 q 340 578 346 578 l 336 579 q 326 615 326 606 q 331 621 328 621 q 336 619 333 621 q 346 585 346 597 m 346 529 l 326 508 q 326 524 326 514 q 325 539 325 535 q 333 560 325 560 l 336 560 l 346 529 m 346 315 q 250 315 314 315 q 154 314 186 314 q 1 326 13 314 q -1 368 -1 329 q 13 619 -1 531 q 42 631 25 621 q 149 624 67 629 q 256 619 215 619 q 276 586 265 603 q 289 550 289 564 q 265 529 289 532 q 279 521 267 529 q 296 518 285 517 q 286 458 292 501 q 293 456 288 456 q 313 468 304 456 q 326 488 325 486 q 346 315 338 432 m 93 1 l 53 -19 q 47 -45 47 -28 q 42 -69 46 -62 l 22 -69 q 69 -131 69 -117 q 1 -181 69 -150 q -3 -142 1 -169 q -8 -100 -8 -114 l -8 -8 l 13 1 l 26 1 q 93 1 93 1 m 339 -344 q 318 -386 339 -365 q 286 -444 294 -412 l 265 -444 q 260 -465 260 -454 q 260 -473 260 -468 q 260 -481 260 -478 q 215 -515 260 -500 l 214 -492 q 204 -465 213 -472 l 206 -464 q 200 -462 204 -462 q 139 -551 139 -462 q 143 -617 139 -549 l 124 -617 l 124 -647 q 97 -653 113 -653 q 78 -644 78 -653 q 133 -597 89 -622 l 135 -586 q 117 -567 135 -567 q 83 -586 93 -567 l 53 -576 q 81 -476 68 -512 q 124 -394 104 -400 l 133 -383 l 133 -414 q 194 -414 194 -414 q 175 -389 192 -410 q 163 -360 163 -376 q 169 -337 163 -353 q 174 -315 175 -322 l 174 -312 q 140 -226 140 -265 q 174 -131 140 -203 q 111 -131 174 -131 l 103 -131 q 92 -67 92 -75 q 124 1 92 -51 l 326 1 q 329 -131 331 -51 q 326 -262 326 -262 q 333 -303 326 -275 q 339 -344 339 -331 m 124 -236 q 32 -304 124 -304 q -8 -303 6 -304 q 1 -222 -4 -276 l -3 -224 q -6 -222 -4 -224 q 13 -192 -6 -214 q 36 -192 13 -192 l 42 -192 q 72 -161 51 -181 q 103 -181 75 -167 l 101 -210 l 103 -222 l 124 -222 l 124 -236 m 92 396 q 83 447 92 397 l 53 447 q 61 365 57 426 l 63 346 l 83 346 q 92 396 92 396 m 243 -229 q 231 -221 238 -221 q 203 -228 218 -221 q 182 -247 182 -236 q 215 -282 182 -261 q 243 -229 243 -246 z "},"<":{"ha":1719,"x_min":-8,"x_max":1729,"o":"m 1729 907 q 1701 879 1714 900 q 1640 867 1694 867 q 1594 846 1628 867 q 1547 825 1560 825 q 1513 832 1540 825 q 1501 836 1508 833 q 1497 839 1494 839 l 1496 836 l 1496 843 l 1500 863 q 1525 935 1513 919 l 1539 947 q 1528 944 1531 944 q 1525 949 1521 944 l 1539 975 q 1556 975 1544 978 q 1571 972 1568 972 q 1586 996 1585 972 q 1594 1030 1589 1025 q 1613 1035 1599 1035 q 1633 1043 1628 1036 q 1676 1022 1654 1032 q 1708 996 1708 1006 q 1688 981 1688 996 l 1689 975 l 1715 975 q 1729 907 1718 953 m 1597 1094 q 1566 1034 1597 1071 q 1511 989 1535 997 q 1486 949 1493 972 q 1471 907 1474 914 l 1443 907 q 1428 934 1435 914 q 1417 961 1422 954 l 1375 975 l 1375 1003 q 1369 1000 1372 1000 q 1354 1018 1360 1000 q 1349 1043 1351 1031 q 1471 1071 1390 1051 q 1525 1094 1481 1074 q 1579 1111 1561 1111 q 1597 1094 1597 1111 m 1471 811 q 1431 815 1429 815 q 1403 811 1428 815 q 1406 804 1406 806 l 1406 804 q 1404 806 1404 804 q 1389 853 1393 832 l 1361 853 q 1349 771 1335 828 q 1283 746 1329 754 q 1214 730 1228 736 q 1178 701 1200 724 q 1144 675 1156 679 q 1117 674 1133 671 q 1089 676 1092 676 l 1076 675 l 1049 649 q 874 601 961 625 q 694 567 772 575 l 694 593 l 654 607 q 664 597 664 603 q 626 581 664 588 q 621 590 621 583 q 640 607 621 603 l 626 635 q 572 644 607 643 q 518 649 532 646 l 518 607 q 626 581 554 599 l 613 553 q 639 553 624 550 q 665 556 661 556 l 681 553 q 518 499 576 511 l 518 539 l 508 540 q 465 519 465 540 q 490 513 474 507 l 490 485 l 485 485 q 232 621 424 485 q 244 648 239 628 q 258 675 250 668 q 356 714 289 701 q 463 729 361 715 q 475 679 469 704 q 518 661 483 660 q 518 686 518 674 q 504 703 517 696 l 504 717 q 483 713 494 713 q 471 721 471 713 q 611 793 471 753 q 790 839 701 817 q 1225 989 935 890 q 1251 1004 1231 990 q 1281 1015 1268 1015 q 1328 976 1310 1015 q 1360 922 1350 929 q 1389 915 1369 915 q 1417 907 1408 914 l 1417 853 q 1471 839 1435 849 l 1471 811 m 1629 -56 q 1607 -74 1615 -74 q 1590 -66 1600 -74 q 1579 -53 1579 -58 q 1604 -46 1583 -46 q 1629 -56 1629 -46 m 1701 -19 l 1689 -74 q 1647 -60 1676 -69 l 1647 -19 q 1613 -11 1636 -11 q 1556 -29 1556 -11 q 1560 -33 1556 -32 q 1565 -33 1565 -33 q 1549 -32 1558 -29 q 1532 -35 1535 -35 l 1525 -33 l 1497 8 q 1471 13 1485 13 q 1429 8 1457 13 q 1386 3 1401 3 q 1321 49 1340 3 q 1304 78 1306 64 q 1335 90 1310 90 q 1471 63 1413 90 q 1508 17 1475 17 q 1536 19 1517 17 q 1568 22 1556 22 q 1701 -19 1589 22 m 1675 -278 q 1658 -283 1664 -283 q 1651 -275 1651 -283 q 1660 -253 1651 -267 q 1675 -237 1668 -240 l 1675 -278 m 1071 128 q 1035 104 1047 104 q 1018 113 1018 104 l 1035 131 l 1057 133 q 1071 128 1071 133 m 1593 -175 q 1565 -182 1588 -182 q 1575 -193 1575 -182 q 1565 -224 1575 -207 q 1539 -196 1551 -219 q 1514 -192 1526 -192 q 1482 -196 1503 -192 q 1450 -200 1461 -200 q 1307 -156 1419 -200 l 1293 -128 q 1271 -126 1285 -125 q 1247 -129 1249 -129 q 1183 -99 1229 -129 q 1117 -60 1132 -64 q 1028 -46 1088 -50 q 939 -33 968 -42 q 897 -7 925 -29 q 844 8 876 10 q 831 131 831 28 q 804 115 817 128 q 789 103 792 103 q 681 131 781 103 q 699 104 699 131 q 694 76 699 89 q 631 83 663 81 q 586 131 607 88 q 560 132 575 135 q 532 128 536 128 q 526 129 531 128 q 518 131 521 131 l 518 158 q 496 158 510 161 q 472 156 476 156 q 450 185 457 156 q 421 215 443 215 q 391 210 411 215 q 360 206 371 206 q 326 213 344 206 l 286 253 l 286 267 q 265 271 276 271 q 231 262 253 271 q 199 253 210 253 q 142 283 190 253 q 82 321 113 301 l 82 349 q 28 349 72 354 q 0 389 22 367 l -1 404 q 7 428 -1 414 q 14 457 15 443 q 65 501 63 475 q 107 521 67 521 q 135 515 118 521 q 157 501 157 510 q 150 499 157 499 l 150 485 q 104 440 104 463 q 114 438 107 438 q 136 444 126 438 l 150 485 l 190 485 q 197 512 194 489 q 204 539 199 535 l 167 538 l 150 539 q 165 564 151 540 q 186 581 175 581 q 238 553 228 581 q 258 499 249 526 q 332 515 315 515 q 422 471 347 515 q 413 474 417 474 q 401 458 401 474 q 422 403 401 414 q 414 403 419 403 q 404 401 407 401 l 410 403 q 417 400 417 403 q 406 388 415 397 q 396 378 396 379 l 463 403 q 517 379 478 400 q 572 349 568 351 l 574 326 q 565 304 575 304 q 558 308 563 304 q 583 286 572 304 q 606 268 593 268 q 638 274 617 268 q 658 288 658 281 q 640 335 658 304 q 797 286 763 300 q 914 201 914 242 q 911 179 914 200 q 913 158 908 165 q 865 136 865 144 q 876 120 865 131 q 885 104 888 110 l 896 103 q 921 110 907 101 q 944 118 935 118 l 953 117 l 953 90 l 965 90 q 1031 83 988 90 q 1094 76 1074 76 q 1119 83 1104 76 q 1142 90 1135 90 l 1144 90 l 1144 63 q 1267 35 1186 56 l 1267 8 q 1313 -4 1293 -4 q 1318 -4 1315 -4 q 1322 -4 1321 -4 q 1389 -87 1340 -4 q 1411 -89 1397 -90 q 1433 -85 1431 -85 q 1443 -87 1440 -85 l 1443 -128 q 1526 -143 1485 -136 q 1593 -175 1592 -157 m 163 606 q 129 579 163 579 q 107 593 107 579 q 136 621 107 607 q 163 606 163 621 m 28 539 l 0 499 q -8 550 -8 532 q 3 571 -8 571 l 14 567 q 17 571 14 571 q 24 558 19 571 q 28 542 28 546 l 28 539 m 722 649 q 717 662 715 651 q 716 674 719 672 q 707 676 713 676 q 679 668 679 676 q 722 649 703 653 m 1068 -28 q 1021 -6 1049 -10 l 1021 -33 q 1035 -35 1026 -33 q 1047 -35 1043 -35 q 1068 -28 1068 -35 m 693 183 q 681 201 692 188 q 667 214 671 214 q 626 199 654 214 l 626 158 q 664 167 646 163 q 693 183 693 174 m 382 363 q 338 379 371 365 q 293 390 311 390 l 286 389 l 258 335 q 164 349 239 336 q 169 339 169 346 q 169 328 171 335 q 168 317 168 319 q 215 293 168 293 q 297 321 240 293 q 382 363 340 342 m 165 399 q 150 403 165 403 l 164 376 q 165 399 165 374 m 136 403 q 82 417 100 411 l 68 363 q 86 364 75 367 q 103 361 101 361 q 122 380 114 361 q 136 403 129 399 z "},"=":{"ha":1582,"x_min":-1,"x_max":1493,"o":"m 1460 671 q 1435 494 1460 622 q 1413 497 1418 497 q 1378 494 1400 497 q 1372 510 1372 503 q 1400 517 1372 521 q 1386 546 1386 538 l 1389 551 q 1382 550 1386 550 q 1373 551 1379 550 q 1363 553 1367 553 q 1358 553 1361 553 q 1354 551 1356 551 l 1343 517 q 1319 523 1335 517 q 1293 529 1303 529 l 1286 529 l 1297 506 q 1210 503 1268 506 q 1122 500 1151 500 q 990 529 1046 500 q 954 516 972 529 q 925 503 936 503 q 907 517 907 503 q 888 529 907 531 l 865 506 q 860 506 864 506 q 853 504 856 504 q 828 511 844 504 q 801 518 811 518 q 763 505 799 518 q 697 492 726 492 q 610 499 668 492 q 524 506 553 506 q 262 500 436 506 q 0 494 88 494 q 1 503 1 497 q 0 518 1 508 q -1 532 -1 528 q -1 536 -1 533 q 0 540 0 539 q 29 546 26 539 q 35 574 32 560 l 44 574 q 136 574 136 574 q 125 665 128 635 l 103 665 l 92 643 q 96 644 97 644 q 103 632 103 644 q 103 608 103 608 q 63 615 97 608 q 22 619 38 621 q 22 700 25 660 q 97 706 72 706 q 228 688 147 706 q 193 661 211 679 q 146 656 188 656 q 142 656 144 656 q 136 654 138 654 l 136 631 q 193 631 136 631 q 189 625 189 626 q 206 619 189 619 l 217 619 l 228 643 l 239 643 l 239 676 q 250 675 243 675 q 261 676 253 675 q 274 676 269 676 l 274 654 q 260 657 265 657 q 253 651 253 657 q 274 619 253 640 l 276 619 q 301 636 301 619 q 296 643 301 638 q 332 638 314 642 q 319 631 328 633 q 307 586 315 617 q 364 563 324 585 l 375 586 q 381 583 378 583 q 385 589 385 583 q 369 610 385 610 q 364 608 367 610 q 375 643 365 624 q 421 643 375 643 l 421 676 q 386 665 388 665 l 375 665 l 388 700 q 865 711 546 711 q 831 700 850 697 q 843 681 836 690 q 875 664 854 664 q 888 665 883 664 l 911 711 q 979 722 933 722 q 1030 707 1010 722 q 1069 676 1050 692 q 1104 688 1081 681 l 1093 711 l 1104 722 q 1114 724 1107 724 q 1138 717 1122 724 q 1161 711 1153 711 q 1260 707 1211 707 q 1359 709 1293 707 q 1457 711 1425 711 q 1460 671 1460 683 m 1493 106 q 1492 63 1493 56 q 1406 57 1453 58 q 1318 58 1374 57 q 1232 60 1256 60 q 1082 50 1126 60 q 1060 43 1079 50 q 1036 39 1047 38 q 990 63 1006 60 l 1001 39 q 638 50 799 39 l 638 85 q 706 119 665 94 q 729 164 713 135 q 611 108 669 136 q 513 28 542 76 q 356 38 453 38 q 178 33 297 38 q 0 28 60 28 l 0 63 l 1 56 l 0 244 q 163 238 54 244 q 325 232 271 232 q 410 244 407 232 q 582 236 478 236 q 909 253 693 236 q 1231 269 1125 269 q 1350 268 1271 269 q 1468 267 1429 267 q 1468 225 1468 253 q 1467 182 1467 197 q 1468 142 1467 156 l 1492 119 q 1493 106 1493 115 m 615 39 q 571 57 571 47 q 592 63 578 63 q 606 54 601 63 q 615 39 611 42 m 1414 651 q 1412 663 1414 654 q 1411 676 1410 672 q 1378 676 1378 676 l 1400 643 l 1406 642 q 1414 651 1414 642 m 1274 551 q 1240 563 1274 563 l 1240 540 q 1274 551 1274 540 m 1196 643 q 1104 676 1165 653 q 1125 617 1115 647 q 1174 583 1142 583 q 1190 607 1186 583 q 1196 643 1193 625 m 940 600 q 911 619 940 614 l 911 597 q 929 594 922 594 q 940 600 940 594 m 1310 136 q 1300 144 1310 144 q 1274 128 1274 144 q 1297 107 1274 114 q 1310 136 1310 126 m 531 633 q 478 654 514 639 l 478 631 q 498 633 485 632 q 518 633 511 633 l 531 633 m 801 179 q 789 189 801 189 q 761 181 761 189 q 797 164 761 174 q 801 179 801 171 m 399 540 q 394 557 394 543 q 375 563 392 563 l 375 540 l 399 540 m 192 581 q 183 588 192 588 q 165 581 165 588 q 182 563 165 579 q 192 581 192 575 m 536 150 q 524 153 528 153 l 524 164 q 531 163 532 163 q 536 176 538 163 l 535 199 l 501 199 q 471 172 471 183 q 478 164 472 167 l 478 142 q 521 146 493 143 q 536 150 536 147 m 374 117 q 331 131 374 119 l 342 96 q 350 94 344 94 q 374 117 357 94 m 285 107 q 281 124 281 110 q 263 131 278 131 l 263 107 l 285 107 m 193 142 l 171 142 q 172 161 171 149 q 172 181 172 175 q 171 199 172 193 l 149 199 q 136 118 136 146 l 136 85 q 171 85 171 85 l 171 119 q 176 111 171 111 q 193 142 186 111 z "},">":{"ha":1710,"x_min":-1,"x_max":1722,"o":"m 1722 350 l 1683 364 q 1710 283 1690 346 q 1556 246 1633 265 q 1415 190 1456 219 q 1392 197 1403 189 q 1372 206 1381 206 q 1363 203 1365 206 l 1363 163 q 1175 122 1300 153 q 1094 83 1146 113 q 1015 43 1043 53 q 899 18 1004 39 q 788 -37 840 6 q 764 -37 778 -40 q 739 -35 744 -35 q 721 -37 728 -35 l 721 -64 q 669 -77 694 -68 q 507 -104 644 -86 l 494 -78 q 469 -78 485 -75 q 444 -81 449 -81 q 414 -50 421 -81 q 374 -24 407 -19 q 374 17 369 -14 q 335 25 360 24 q 294 29 306 25 l 294 69 q 494 133 369 85 q 694 203 633 186 q 982 290 786 226 q 1268 376 1167 351 l 1282 431 q 1093 483 1207 439 q 908 550 951 539 q 815 564 876 551 l 815 590 l 786 596 q 708 603 753 603 l 694 604 q 635 628 672 607 q 574 657 590 651 q 494 669 549 664 q 414 683 440 675 l 400 711 q 238 749 304 749 q 81 804 224 749 l 67 831 q 24 829 71 829 l 14 831 q 22 971 21 883 q 26 1111 24 1076 q 229 1044 207 1051 q 428 964 344 1003 q 396 928 396 942 q 407 924 396 924 q 434 938 413 924 q 479 951 456 951 q 549 929 508 951 q 615 897 596 901 q 675 890 635 892 q 735 885 715 889 l 761 857 q 963 793 838 836 q 1163 724 1113 739 q 1210 718 1176 719 q 1256 711 1239 718 q 1296 671 1268 696 q 1239 647 1267 660 q 1201 607 1201 631 q 1204 592 1201 607 q 1201 576 1206 583 l 1242 576 l 1229 538 l 1268 538 q 1296 671 1286 608 q 1722 538 1392 651 l 1722 350 m 468 -144 l 428 -171 l 413 -172 q 386 -167 401 -174 q 361 -157 364 -158 l 388 -185 q 317 -168 317 -168 q 286 -185 292 -168 q 276 -214 279 -212 q 214 -231 263 -231 q 81 -211 181 -231 q 81 -264 76 -222 l 40 -278 q 15 -254 38 -274 q -1 -228 -1 -240 q 1 -212 -1 -226 q 0 -197 4 -204 q 4 -200 3 -200 q 10 -183 10 -200 q 5 -122 10 -161 q 0 -64 0 -82 q 117 -18 82 -33 q 226 43 182 11 q 265 -15 246 14 q 326 -35 283 -35 q 349 -60 336 -35 q 374 -90 361 -86 q 394 -90 381 -93 q 415 -87 413 -87 q 428 -90 419 -87 l 468 -144 m 1696 483 q 1692 514 1696 497 q 1683 497 1686 506 q 1661 506 1681 499 q 1639 511 1649 511 l 1629 510 l 1615 469 l 1606 469 q 1578 475 1594 469 q 1549 483 1553 482 q 1563 390 1553 453 l 1589 390 q 1619 406 1600 406 q 1633 397 1632 406 q 1633 379 1633 399 q 1650 360 1633 360 q 1672 369 1672 360 q 1664 406 1672 382 q 1656 442 1656 431 l 1656 443 l 1696 483 m 1497 393 q 1469 417 1483 414 l 1482 390 l 1490 389 q 1497 393 1497 389 m 1311 465 q 1256 524 1311 485 l 1256 483 q 1282 457 1272 482 l 1293 456 q 1311 465 1311 456 m 1478 393 q 1457 394 1472 394 q 1415 390 1436 394 l 1403 364 q 1356 358 1388 358 q 1308 350 1324 357 l 1268 310 q 1290 308 1276 306 q 1313 313 1310 313 q 1322 310 1317 313 q 1363 269 1343 281 q 1364 294 1367 282 q 1361 318 1361 314 l 1363 324 q 1478 393 1476 376 m 989 697 q 981 712 986 699 q 958 725 975 725 q 932 718 933 725 q 989 697 967 701 m 1379 224 q 1336 243 1367 240 l 1349 217 q 1363 214 1357 214 q 1379 224 1379 214 m 894 657 q 889 671 888 661 q 888 683 890 681 q 881 685 885 685 q 853 676 853 685 q 894 657 881 661 m 868 617 q 864 638 864 619 q 854 644 864 644 q 826 636 826 644 q 868 617 840 629 m 694 724 q 690 740 689 729 q 693 757 693 760 q 675 764 690 764 q 659 750 661 764 q 654 724 657 736 q 694 724 694 724 m 335 -136 l 333 -135 q 321 -131 333 -131 l 333 -157 q 335 -136 335 -164 z "},"?":{"ha":906,"x_min":0,"x_max":826,"o":"m 804 938 q 776 910 804 924 q 767 936 767 925 q 782 949 767 949 q 804 938 804 949 m 826 819 q 786 642 826 788 l 767 642 q 768 622 768 644 q 767 613 768 617 l 738 613 l 738 632 l 729 633 q 718 613 722 633 q 671 608 703 607 q 622 613 621 613 q 661 603 636 611 q 690 564 668 564 q 706 570 696 564 q 724 575 717 576 l 728 575 q 690 529 724 572 q 647 496 664 496 q 633 502 642 496 q 618 508 625 508 l 613 508 l 575 469 q 526 460 558 468 q 593 408 593 435 q 575 335 593 407 l 556 335 q 546 278 553 317 q 500 260 536 275 q 453 247 472 247 q 421 262 439 247 q 403 289 403 276 q 413 288 403 297 l 410 300 q 421 307 410 313 l 413 335 l 383 325 q 335 268 369 306 l 331 268 q 321 269 324 267 q 325 278 318 272 l 304 283 q 297 288 300 286 q 286 301 286 293 q 297 393 286 326 l 317 403 q 342 476 319 408 q 374 546 356 521 l 393 546 q 403 569 399 550 q 413 594 408 589 l 440 603 l 440 622 q 564 792 564 693 q 478 904 564 904 q 378 888 414 904 q 307 824 343 871 q 294 830 304 825 q 276 835 283 835 l 268 833 l 268 804 q 285 810 279 810 q 292 803 292 810 q 258 738 292 799 q 231 747 256 739 l 231 767 l 221 768 q 210 763 217 768 q 197 757 203 757 q 167 771 185 757 q 143 786 149 785 q 72 807 115 797 q 0 824 1 824 q 125 986 47 918 q 153 1025 133 1004 q 174 1024 149 1024 q 182 1025 179 1024 l 182 1044 q 216 1050 193 1050 q 249 1054 239 1050 l 278 1082 q 457 1111 365 1111 q 651 1082 604 1111 q 667 1058 660 1076 q 681 1035 674 1040 l 708 1035 q 739 1008 718 1031 q 767 976 753 992 l 738 929 q 646 949 651 949 l 642 949 q 651 910 644 936 l 671 910 l 661 863 l 699 872 l 699 881 q 696 911 699 910 q 690 847 690 869 q 693 838 690 838 q 718 910 694 838 l 718 881 q 767 881 718 881 q 776 843 767 865 q 794 853 781 847 q 799 883 794 883 q 804 843 804 883 l 824 843 q 826 819 826 835 m 622 450 q 581 465 581 464 q 613 479 592 474 l 622 450 m 479 211 l 431 192 q 394 197 426 192 q 374 201 361 201 l 374 211 q 360 205 369 210 q 342 201 350 200 l 335 201 q 325 231 335 215 l 344 231 q 354 258 350 250 q 479 211 406 219 m 603 -268 q 508 -258 571 -269 q 489 -239 501 -239 l 469 -268 q 413 -278 464 -269 l 413 -249 l 383 -249 l 383 -268 l 379 -268 q 370 -262 376 -268 q 354 -258 364 -257 l 354 -239 l 361 -242 q 365 -237 365 -242 q 354 -221 365 -232 q 331 -226 331 -221 q 335 -231 331 -228 l 297 -221 l 297 -239 l 301 -239 q 306 -250 306 -239 q 297 -278 306 -261 l 268 -278 q 285 -243 271 -272 q 297 -211 297 -218 q 288 -182 297 -193 l 297 -162 l 278 -162 l 278 -160 q 283 -131 278 -150 q 288 -100 288 -111 l 288 -96 l 268 -86 q 258 19 267 -49 q 468 40 407 40 q 521 35 515 40 q 546 0 533 17 l 575 0 l 575 19 q 568 15 572 18 l 567 17 q 594 39 579 29 q 603 -268 603 -85 m 613 1008 q 603 1017 613 1011 q 594 1054 594 1022 l 589 1056 q 571 1053 588 1056 q 556 1054 560 1051 q 575 1006 563 1039 q 596 1006 576 1006 q 613 1008 613 1006 m 671 976 q 613 986 651 979 l 642 958 q 671 976 651 957 m 411 1064 q 383 1072 403 1072 l 383 1054 q 411 1064 411 1054 m 732 731 q 708 757 722 747 q 715 766 710 760 q 719 776 719 772 l 718 786 l 713 786 q 671 786 671 786 l 671 767 q 732 731 725 731 m 613 833 q 610 847 610 836 q 594 853 610 853 l 594 833 l 613 833 m 325 1006 q 322 1019 322 1008 q 307 1025 322 1025 l 307 1006 l 325 1006 m 335 890 q 328 931 335 921 q 325 929 328 932 q 278 958 315 935 q 293 939 282 949 q 306 882 299 933 l 307 872 l 335 890 m 603 671 l 575 671 q 565 690 576 676 q 554 682 561 682 q 550 682 553 682 q 546 681 547 681 q 556 654 556 671 l 556 651 l 536 651 q 536 603 533 628 l 499 575 q 489 588 496 576 q 476 594 485 594 q 458 590 471 594 q 440 585 446 585 l 440 565 l 472 567 l 517 565 l 517 546 q 536 550 522 550 q 556 556 550 550 q 603 671 569 596 m 546 508 l 536 536 q 504 529 504 535 q 508 526 504 528 q 485 539 496 539 q 475 524 475 539 q 489 479 475 504 q 471 474 481 474 q 464 474 468 474 q 458 474 460 474 q 444 432 444 474 q 440 410 444 415 q 424 404 435 404 q 403 403 408 404 l 403 383 q 469 383 469 383 q 489 460 475 410 l 508 460 q 508 489 511 468 q 527 498 513 494 q 546 508 542 501 m 540 354 q 525 357 532 357 l 508 354 q 492 338 492 346 q 501 335 494 335 q 525 341 510 335 q 540 354 540 347 m 493 6 q 469 19 493 19 q 463 15 463 19 q 489 -10 463 6 q 493 6 493 -4 m 489 -67 q 489 -35 489 -67 q 478 -18 489 -18 l 469 -19 q 460 -37 460 -35 q 469 -39 460 -44 q 463 -46 463 -43 q 489 -67 463 -58 m 574 -211 q 546 -201 564 -201 l 546 -221 q 574 -211 574 -221 m 471 -115 q 440 -96 471 -96 l 440 -135 q 471 -115 471 -135 m 544 -232 q 508 -221 544 -221 l 517 -249 q 526 -250 521 -250 q 536 -239 536 -250 q 544 -232 544 -235 m 478 -231 q 450 -221 469 -221 l 450 -239 q 478 -231 478 -239 m 421 -211 q 393 -201 411 -201 l 393 -221 q 421 -211 421 -221 m 521 522 q 508 508 521 517 l 506 521 q 511 529 506 529 q 521 522 521 529 z "},"A":{"ha":1414,"x_min":-1,"x_max":1349,"o":"m 1039 582 q 1033 581 1038 581 q 1028 582 1032 581 q 1024 583 1025 583 q 1004 614 1004 608 q 1007 617 1004 617 q 1027 603 1015 617 q 1039 582 1039 590 m 383 953 l 375 939 q 354 954 354 946 q 369 960 354 960 q 383 953 385 960 m 1258 6 q 1247 -6 1258 -6 q 1219 9 1233 -6 q 1206 38 1206 24 q 1226 67 1206 57 q 1225 44 1225 69 l 1226 36 l 1257 17 l 1258 6 m 1197 128 q 1192 92 1197 115 q 1186 57 1186 68 q 1169 58 1181 57 q 1151 60 1157 60 q 1143 58 1149 60 q 1136 57 1138 57 q 1142 47 1135 50 q 1156 47 1149 44 l 1156 26 l 1125 26 q 1126 13 1125 21 q 1126 0 1126 4 q 1125 -4 1126 -3 q 1099 17 1118 -4 q 1075 47 1081 38 l 1035 57 l 1014 26 q 1003 35 1010 35 l 993 36 l 993 67 l 974 67 l 974 36 l 943 17 l 933 47 q 882 67 915 53 q 886 61 886 65 q 861 57 886 57 q 903 17 875 43 l 897 17 q 861 26 892 17 q 863 11 863 32 q 851 6 863 6 q 829 28 851 28 l 821 26 l 781 -4 q 624 -15 731 -15 q 406 -4 488 -15 q 371 -139 375 -60 q 365 -278 368 -208 q 243 -282 325 -278 q 119 -286 161 -286 q 0 -278 58 -286 q -1 -236 -1 -282 l 0 -228 l 31 -197 q 29 -164 29 -201 q 47 -107 29 -153 q 71 -44 68 -54 l 92 -44 q 111 42 101 -18 q 132 128 121 101 l 172 229 l 193 239 q 192 272 192 233 l 193 279 q 221 258 221 268 q 213 250 221 253 l 233 250 q 213 189 219 215 l 197 190 q 185 185 185 190 q 224 158 200 165 q 221 163 221 158 q 233 189 221 168 q 253 178 240 185 l 264 158 l 294 158 l 294 107 q 253 97 275 107 q 238 92 240 99 q 233 76 236 85 q 291 92 265 90 q 344 97 317 94 q 340 108 343 103 q 333 107 343 107 l 325 107 q 314 178 325 139 l 264 189 l 263 192 q 268 203 263 194 q 274 219 274 211 q 243 279 274 239 l 243 285 q 249 304 243 293 q 254 318 254 315 l 253 321 l 213 310 q 218 353 215 331 q 235 385 224 385 q 249 377 240 385 q 258 364 258 369 q 253 361 258 361 l 283 361 l 283 392 q 265 397 272 397 q 243 392 257 389 q 256 457 250 425 q 314 472 261 465 l 314 493 q 264 503 297 494 q 282 582 274 543 q 292 664 292 626 q 294 675 292 667 l 314 685 q 313 740 313 678 q 325 786 313 740 l 344 786 q 336 808 336 789 q 343 858 336 829 q 354 908 353 903 q 528 888 413 907 q 517 838 522 871 q 567 864 542 857 q 618 878 592 871 q 619 936 619 888 q 643 964 619 951 q 679 979 661 971 q 668 1011 675 983 q 649 1033 663 1033 q 618 1019 632 1033 l 618 1040 l 588 1040 q 599 1017 590 1033 q 608 997 608 1001 q 594 979 608 979 l 588 979 q 576 990 590 990 l 568 989 q 578 975 569 986 q 588 957 588 964 q 580 950 588 953 q 572 942 572 947 q 578 926 572 936 q 585 911 585 915 q 568 908 585 903 l 568 899 l 564 899 q 524 910 547 899 q 486 929 506 919 l 486 949 q 385 979 478 953 q 406 1101 388 1021 l 426 1111 l 740 1111 l 731 1050 q 797 1094 749 1094 q 831 1079 825 1094 q 842 1050 836 1054 q 862 1046 847 1046 q 882 1041 876 1046 q 898 992 888 1036 q 913 939 908 947 q 933 888 925 915 l 953 878 l 953 838 l 963 838 q 994 664 994 721 q 983 635 994 646 l 993 583 l 963 583 l 963 554 l 953 554 l 953 533 q 964 536 958 536 q 974 493 974 536 l 933 493 q 922 453 932 476 l 953 453 l 974 493 l 1004 493 q 1007 503 1007 499 q 993 513 1007 508 l 1014 543 q 985 561 1000 549 q 1008 564 999 565 l 1024 564 q 1021 563 1022 567 q 1029 563 1021 563 l 1044 564 q 1094 432 1064 504 q 1035 432 1094 432 l 1106 411 l 1106 401 q 1122 344 1106 376 q 1146 290 1143 303 q 1156 219 1147 267 l 1176 219 q 1189 174 1176 219 q 1197 128 1197 147 m 1349 -278 q 1267 -278 1349 -278 q 1265 -269 1265 -275 q 1297 -257 1265 -257 q 1281 -235 1297 -235 q 1250 -254 1264 -235 q 1226 -278 1236 -274 q 1151 -287 1199 -287 q 1068 -279 1121 -287 q 983 -268 1008 -269 q 933 -65 943 -137 q 964 -51 944 -62 q 993 -35 983 -39 q 979 -24 979 -28 q 1004 -4 979 -11 q 1017 -15 1017 -4 q 1004 -44 1017 -26 l 1029 -43 q 1044 -44 1038 -43 l 1054 -65 q 1078 -51 1068 -65 q 1094 -35 1088 -37 q 1182 -24 1128 -24 q 1225 -25 1197 -24 q 1267 -25 1253 -25 q 1297 -126 1290 -86 l 1318 -126 q 1335 -201 1328 -153 q 1349 -278 1343 -257 m 964 -12 l 963 -35 l 946 -36 q 926 -28 926 -37 q 957 -4 943 -4 q 964 -12 964 -4 m 913 847 l 903 868 q 861 868 861 868 l 882 838 l 889 838 q 901 844 894 838 q 913 847 907 850 m 757 922 q 731 969 757 935 l 700 969 q 713 939 707 954 q 750 917 724 917 q 757 922 757 917 m 928 696 q 882 706 911 706 l 892 685 q 928 696 928 694 m 568 1031 l 568 1071 q 558 1085 558 1074 l 557 1090 q 507 1090 507 1090 q 504 1083 504 1089 q 517 1061 504 1074 q 503 1057 511 1060 q 494 1051 494 1054 q 568 1031 519 1044 m 553 954 q 538 961 550 961 l 528 960 q 519 943 519 949 q 532 938 524 938 q 553 954 553 938 m 1021 458 q 1010 464 1021 464 q 983 453 988 464 q 974 432 975 433 l 953 442 l 953 432 q 943 417 943 422 q 953 411 943 411 q 985 417 964 411 q 1014 422 1006 422 q 1008 428 1008 422 q 1015 442 1008 433 q 1021 458 1021 451 m 903 472 l 868 474 l 850 472 q 882 453 850 464 l 903 472 m 539 724 q 528 731 532 731 q 517 726 521 731 q 504 687 518 701 q 490 669 490 672 q 517 644 497 656 q 517 706 517 644 q 539 724 539 710 m 993 149 q 974 149 986 151 q 954 146 957 146 q 943 149 949 146 l 933 178 l 903 178 l 882 199 q 943 219 903 206 q 931 233 938 232 q 913 239 913 239 q 953 310 929 271 l 953 331 q 924 339 933 338 q 928 343 926 339 q 922 371 933 350 l 914 371 q 899 367 899 375 q 903 361 899 364 l 882 340 q 889 343 883 343 q 894 338 894 343 l 892 331 q 842 300 875 319 q 854 289 842 289 l 861 290 l 872 310 q 892 260 879 293 q 850 247 863 247 l 851 250 l 811 279 q 801 389 801 301 q 788 438 801 407 q 771 482 774 468 q 760 625 769 531 l 790 604 l 811 644 q 792 634 804 644 q 774 624 779 624 l 771 625 l 771 626 q 750 644 772 644 q 750 629 750 644 q 740 625 750 625 q 704 721 736 643 q 681 821 681 778 l 679 828 l 639 847 q 611 744 625 796 q 597 638 597 688 q 588 594 597 614 l 557 574 q 558 451 558 525 l 557 432 l 538 411 q 517 314 535 401 q 486 219 503 254 q 553 232 504 221 q 619 240 594 240 q 703 233 644 240 q 785 228 756 226 l 811 229 l 832 239 q 857 221 857 226 q 851 219 856 219 q 794 139 843 139 q 740 149 772 139 q 731 107 742 132 q 771 97 744 104 q 801 76 782 75 q 792 99 792 89 q 814 108 797 108 q 851 97 807 108 l 851 76 l 857 76 q 885 93 879 76 q 882 97 885 97 l 903 97 l 903 128 l 904 128 q 917 122 910 128 q 932 115 925 115 q 943 118 938 115 q 925 104 925 106 q 983 76 925 100 l 983 107 q 947 122 947 114 q 983 128 960 131 l 993 149 m 406 635 q 401 658 401 638 q 389 667 401 667 l 375 665 l 375 644 l 406 635 m 371 657 q 335 696 371 672 l 333 679 q 363 651 331 651 q 371 657 371 651 m 933 57 q 929 71 929 60 q 913 76 929 76 l 913 57 l 933 57 m 335 594 q 332 610 332 596 q 322 615 332 615 q 296 607 296 615 q 335 594 313 597 m 1050 -114 q 1024 -65 1040 -99 l 993 -65 q 984 -106 990 -79 q 974 -146 978 -133 q 983 -174 981 -149 l 983 -186 q 1017 -153 1017 -167 q 1004 -146 1014 -146 q 1050 -114 1028 -131 m 528 401 l 528 422 q 497 432 517 424 l 497 442 q 376 454 458 454 q 344 453 356 454 l 365 411 q 314 411 365 411 l 304 422 q 289 417 289 422 l 325 392 l 314 361 l 335 361 l 335 381 q 392 401 364 392 q 453 414 426 414 q 528 401 472 414 m 719 67 q 717 82 717 68 q 700 88 717 88 l 700 67 l 719 67 m 486 168 q 469 179 485 168 q 435 190 454 190 q 425 190 432 190 q 415 189 419 189 q 399 154 399 165 q 411 147 401 147 q 423 158 421 147 q 426 178 425 168 q 486 168 440 178 m 426 47 q 422 61 422 49 q 406 67 422 67 l 406 47 l 426 47 m 264 47 q 260 61 260 49 q 243 67 260 67 l 243 47 l 264 47 m 357 -69 q 335 -65 346 -62 q 335 -50 335 -65 l 325 -44 l 344 -25 q 349 -32 346 -29 l 349 -32 q 335 17 349 -32 l 304 17 l 304 13 q 299 -10 304 4 q 294 -33 293 -25 l 294 -35 l 325 -75 l 339 -75 q 349 -75 342 -76 q 357 -69 357 -74 m 290 -19 q 253 17 290 -8 q 235 -6 244 13 q 193 -14 229 -15 q 179 -44 179 -37 q 182 -47 179 -47 q 224 -25 185 -47 q 232 -60 232 -28 l 233 -75 q 274 -65 249 -74 l 271 -65 q 261 -50 261 -65 q 264 -35 261 -43 l 283 -25 q 290 -19 290 -22 m 1024 -103 q 1004 -115 1024 -115 q 1003 -99 1003 -121 q 1008 -94 1003 -94 q 1024 -103 1024 -94 z "},"B":{"ha":1199,"x_min":-4,"x_max":1100,"o":"m 1049 732 q 1035 717 1049 724 l 1033 728 q 1039 739 1033 739 q 1049 732 1049 739 m 1100 14 q 1092 -34 1100 -24 q 1067 -49 1083 -44 q 1044 -61 1051 -53 q 1049 -82 1049 -72 q 1044 -100 1049 -87 q 1015 -110 1018 -103 q 1015 -136 1015 -108 q 1003 -147 1015 -144 q 985 -150 986 -149 q 974 -169 978 -154 q 965 -189 971 -185 q 904 -212 947 -206 q 838 -218 871 -215 q 829 -174 835 -211 q 825 -135 824 -136 l 826 -136 l 828 -140 l 828 -121 l 808 -121 q 778 -150 804 -129 q 808 -189 785 -165 l 818 -189 q 819 -200 819 -193 q 817 -219 819 -201 q 818 -239 815 -232 q 533 -279 608 -282 l 503 -278 l 513 -229 q 561 -229 519 -224 l 561 -189 l 529 -190 l 503 -189 q 524 -179 503 -189 q 540 -168 540 -169 q 536 -168 540 -168 l 532 -169 l 532 -150 q 557 -164 557 -157 q 551 -169 557 -168 q 592 -169 551 -169 l 601 -189 q 650 -208 618 -196 l 679 -208 l 679 -189 q 672 -192 676 -192 l 671 -192 q 689 -169 671 -187 q 669 -177 683 -171 q 646 -183 654 -183 q 618 -178 629 -183 q 628 -174 621 -175 l 650 -169 l 640 -150 q 613 -137 635 -149 q 585 -129 597 -129 l 581 -131 q 551 -150 582 -150 l 551 -131 l 528 -131 q 472 -131 472 -131 q 503 -90 478 -117 q 500 -85 500 -89 q 513 -61 500 -74 q 472 -51 501 -60 q 575 -56 550 -51 q 583 -57 579 -56 q 542 -61 583 -57 l 522 -110 l 571 -121 l 571 -90 q 601 -71 582 -86 q 621 -86 615 -79 q 621 -90 622 -90 q 636 -95 625 -90 q 654 -100 647 -100 q 671 -96 671 -100 q 621 -61 671 -82 l 621 -42 q 690 -12 682 -18 q 739 47 713 1 q 753 35 753 42 q 749 28 753 31 q 785 22 774 22 q 797 26 796 22 q 769 55 783 40 q 754 92 754 69 q 757 139 754 104 q 758 185 760 167 q 867 175 794 183 l 867 206 q 837 202 857 206 q 806 199 817 199 q 768 206 783 199 l 758 225 q 742 253 742 233 q 758 254 744 258 q 767 271 767 261 q 763 293 767 279 q 758 314 758 307 q 797 307 769 313 q 838 274 808 304 q 872 289 872 281 q 867 293 871 292 q 840 319 853 301 q 796 322 838 322 q 778 353 778 322 q 729 372 761 360 l 729 382 l 719 385 q 719 381 717 385 q 724 375 724 376 q 713 369 724 374 q 701 360 701 365 q 722 344 701 353 q 749 333 735 339 q 690 329 719 329 q 493 353 651 329 l 493 382 l 463 382 l 463 343 q 286 333 403 321 l 296 293 q 357 314 344 314 l 365 313 q 353 303 365 311 q 340 292 340 296 q 344 283 340 288 l 364 283 l 364 47 l 344 47 q 361 33 358 33 q 364 38 364 33 q 344 -12 357 14 l 364 -12 q 364 -51 364 -12 l 385 -61 q 383 -81 386 -67 q 379 -101 379 -96 q 411 -136 379 -122 q 443 -185 443 -150 l 443 -189 l 472 -208 q 458 -222 465 -222 q 453 -218 454 -222 q 457 -229 458 -221 q 467 -237 456 -237 l 472 -239 q 483 -268 475 -249 q 272 -281 392 -281 q 156 -279 233 -281 q 39 -278 78 -278 q 42 -194 42 -250 q 35 15 42 -125 q 29 225 29 156 q 44 225 29 225 q 49 235 49 225 q 10 254 49 235 q 49 274 29 265 q 19 303 44 285 q 49 392 31 333 q 157 372 72 385 q 154 365 150 369 q 160 360 160 360 l 147 363 q 169 342 147 342 l 178 343 l 168 382 q 226 401 188 388 l 226 411 q 205 417 219 411 q 182 424 190 424 q 149 408 165 424 q 114 392 132 392 l 108 392 q 61 421 67 419 q 18 421 60 421 l 10 422 q 25 447 25 428 q 20 465 25 453 q 13 476 15 476 q 10 471 11 476 q 19 510 11 485 l 10 540 q 14 536 10 536 q 29 550 19 536 l 10 550 q 5 633 10 578 q 0 717 0 689 q 6 787 0 740 q 11 856 11 833 q 10 875 11 868 q -4 889 -4 885 q 0 894 -4 893 l 69 894 q 33 908 51 901 q 10 933 15 915 l 0 943 q 15 931 13 940 q 28 922 18 922 q 49 924 51 922 l 49 943 q 40 967 40 946 l 39 974 l 10 964 l 11 954 l 10 953 q 0 954 -4 953 l 0 982 q 0 1101 0 1101 q 106 1094 31 1101 q 211 1090 172 1088 l 236 1092 q 286 1111 256 1111 l 265 1092 q 354 1101 296 1094 l 364 1063 l 369 1061 q 406 1078 386 1061 q 414 1092 415 1088 l 414 1111 q 433 1114 421 1114 q 470 1108 447 1114 q 503 1101 493 1103 q 713 1092 607 1096 q 896 1022 850 1076 q 963 992 957 996 q 982 915 982 972 q 985 904 982 910 q 1019 889 1013 906 q 1035 856 1029 861 q 1033 858 1035 857 q 1032 854 1032 857 q 1036 828 1032 846 q 1040 800 1040 810 q 1015 736 1040 790 l 975 739 l 956 736 l 975 707 q 1044 697 999 704 q 1035 636 1043 693 q 1015 579 1028 599 q 1000 573 1011 574 q 985 569 989 572 q 961 532 974 563 q 932 508 951 508 q 917 510 925 508 l 906 490 q 797 461 875 472 q 869 446 833 454 q 936 422 917 435 q 956 392 940 410 q 981 383 969 383 q 990 385 985 383 q 997 388 996 388 q 1015 343 1004 388 q 1029 346 1024 346 q 1038 336 1038 346 q 1015 303 1038 314 q 1025 299 1025 303 q 1024 289 1024 283 l 1025 283 l 1031 283 q 1045 292 1040 283 q 1054 303 1050 300 q 1053 282 1053 306 q 1054 274 1053 276 l 1083 264 q 1093 67 1099 140 q 1094 69 1093 68 q 1097 57 1096 64 q 1100 14 1100 29 m 453 -121 q 414 -121 444 -117 q 413 -100 413 -129 q 431 -90 413 -90 q 449 -99 449 -90 q 447 -104 449 -100 q 447 -111 447 -108 q 453 -121 447 -117 m 488 -157 q 472 -169 488 -164 l 472 -158 q 478 -149 472 -149 q 488 -157 488 -149 m 969 929 q 944 938 969 933 q 917 943 919 942 l 936 914 l 939 914 q 957 919 944 914 q 969 929 969 924 m 908 925 q 896 933 908 940 q 896 974 896 933 l 876 974 q 843 922 843 931 q 889 913 850 910 l 906 914 l 908 925 m 844 961 l 838 974 q 806 979 828 979 q 768 983 779 979 l 749 1013 q 694 1019 729 1019 q 640 1022 653 1021 l 679 974 q 699 972 686 971 q 718 975 717 975 q 729 974 725 975 l 729 954 q 715 954 722 957 l 700 954 q 724 944 708 951 q 749 933 740 936 l 768 974 l 772 974 q 792 958 789 974 q 806 942 794 942 q 822 944 807 942 q 838 943 832 946 q 844 961 844 953 m 913 697 q 886 717 899 714 l 896 697 q 908 694 904 694 q 913 697 913 694 m 914 754 q 897 757 906 760 l 886 757 l 876 736 q 818 736 876 736 q 824 726 821 735 q 839 717 826 717 q 883 731 851 717 q 914 754 914 744 m 785 756 q 749 776 785 768 l 768 757 q 782 754 776 754 q 785 756 783 754 m 894 525 q 867 550 882 546 l 867 519 l 882 518 q 894 525 894 518 m 828 558 q 818 569 825 563 l 818 599 q 768 608 800 599 q 789 580 776 600 q 808 550 801 560 q 828 558 828 560 m 719 550 q 716 567 719 554 q 713 586 713 579 l 719 599 l 689 599 l 700 569 q 692 563 692 565 q 719 550 692 556 m 1036 244 q 1004 264 1036 253 l 985 244 l 1026 243 q 1032 242 1028 242 q 1036 244 1036 243 m 739 736 l 710 747 q 681 817 693 763 q 629 882 669 863 q 417 911 569 911 q 315 894 388 911 q 335 875 322 875 q 349 732 349 838 q 347 626 349 693 q 344 540 344 558 q 389 538 375 538 q 470 549 417 538 q 551 560 524 560 q 563 554 558 560 q 574 549 568 549 q 636 583 583 549 q 700 628 668 606 q 703 689 703 635 q 717 724 703 718 q 739 736 736 732 m 1013 290 q 985 303 1000 304 l 975 283 q 917 293 913 293 q 883 276 883 293 q 885 271 883 275 q 886 264 886 267 q 927 263 901 265 q 964 261 953 261 q 975 263 968 261 q 985 264 982 264 l 985 283 l 997 283 q 1013 290 1013 278 m 1074 97 l 1074 117 q 1060 118 1069 118 l 1044 117 l 1074 97 m 1026 165 q 965 185 985 176 l 985 156 q 961 149 972 156 q 969 146 961 146 q 994 156 986 146 q 1026 165 1026 167 m 283 886 q 256 894 283 894 q 268 919 268 910 q 261 925 268 925 q 236 924 233 925 q 242 919 242 922 q 217 914 242 914 l 226 894 q 283 886 263 886 m 582 507 l 581 507 q 571 510 581 510 l 581 490 q 582 507 582 485 m 789 290 l 788 290 q 778 293 788 293 l 788 274 q 789 290 789 268 m 207 885 q 197 918 206 886 q 156 936 192 940 l 128 933 l 99 904 q 128 924 119 910 l 131 924 q 169 908 143 924 q 207 885 188 896 m 271 790 q 253 797 265 797 l 246 796 q 229 769 229 779 q 239 765 232 765 q 260 773 249 765 q 271 790 271 781 m 778 461 q 769 469 772 471 q 758 467 756 467 q 749 471 753 467 l 749 510 l 719 519 l 719 461 q 699 473 707 464 q 682 482 692 482 q 672 475 676 482 q 660 471 667 468 l 660 442 l 657 442 q 618 456 643 440 q 581 471 593 471 q 563 461 567 471 q 551 451 558 451 l 553 504 l 551 531 l 532 531 q 522 471 529 522 l 503 490 l 513 451 l 483 422 q 472 426 474 421 q 474 438 474 421 l 472 442 q 404 451 450 443 l 404 461 l 397 461 q 383 456 392 461 q 364 451 375 450 l 364 442 q 443 422 390 436 l 443 392 q 458 390 449 390 q 486 397 468 390 q 513 401 504 403 l 522 372 l 542 372 q 542 422 546 382 q 603 419 583 419 q 660 422 624 419 q 658 438 658 417 q 665 442 658 442 q 689 426 675 442 q 715 411 703 411 l 719 411 l 710 432 l 729 442 q 749 382 735 422 l 768 382 q 764 408 768 390 q 760 436 760 426 q 778 461 760 457 m 181 796 q 147 815 181 804 l 147 796 l 172 794 q 181 796 181 794 m 963 -6 q 950 13 963 -4 q 938 58 938 29 q 936 67 938 64 q 886 67 886 67 l 876 47 l 936 8 q 936 -4 938 4 q 933 -15 933 -12 q 936 -22 933 -17 q 963 -6 963 -10 m 167 772 q 156 778 165 778 q 132 765 132 778 q 157 757 139 757 q 167 772 167 767 m 274 642 q 251 656 274 644 q 226 668 229 667 q 235 652 233 665 q 236 628 236 639 q 274 642 274 638 m 331 585 q 256 618 331 600 l 265 589 q 286 584 272 589 q 306 579 300 579 q 331 585 331 579 m 125 804 q 89 815 113 818 l 89 796 q 35 796 89 796 l 19 796 q 31 779 25 788 q 63 765 40 765 q 100 778 76 765 q 125 804 124 792 m 876 -71 l 876 -51 l 847 -51 q 843 -26 843 -44 q 838 -1 843 -8 l 808 8 q 838 -71 824 -39 q 876 -71 857 -68 m 168 618 q 136 639 164 639 q 115 635 115 639 l 168 618 m 314 431 q 296 442 310 442 q 256 432 304 442 l 286 411 q 314 431 314 415 m 767 -150 q 739 -131 756 -131 l 739 -160 l 750 -160 q 767 -150 767 -164 m 274 339 l 226 363 l 236 333 q 274 339 274 333 m 275 314 q 246 324 265 324 l 246 303 q 275 314 275 303 m 700 -150 q 696 -136 696 -147 q 679 -131 696 -131 l 679 -150 l 700 -150 m 718 -164 q 706 -158 714 -158 q 694 -164 694 -158 q 710 -179 694 -169 q 718 -164 718 -167 m 229 310 q 197 314 219 314 l 188 314 l 188 303 q 209 306 189 303 q 229 310 229 308 m 354 225 l 344 264 q 251 263 297 263 q 157 264 204 263 l 147 235 q 197 206 164 225 q 178 190 178 197 q 193 185 181 185 l 197 185 q 217 206 201 201 q 211 199 211 200 q 225 194 211 194 l 226 194 q 256 246 256 239 l 256 254 q 306 254 306 254 l 306 235 l 313 235 q 354 225 306 235 m 175 306 q 157 314 171 308 q 154 321 150 317 q 160 326 160 326 l 158 326 q 129 311 147 326 q 111 286 111 296 q 125 282 114 282 l 138 283 l 138 303 q 165 304 147 304 q 175 306 171 304 m 344 146 l 315 156 l 314 149 q 319 136 314 143 q 325 126 324 129 l 324 126 q 308 107 308 126 q 335 86 308 92 q 344 146 336 107 m 649 -239 q 621 -229 640 -229 l 621 -249 q 649 -239 649 -249 m 257 158 l 246 175 q 235 176 243 176 q 197 175 193 176 l 236 146 l 240 146 q 257 158 257 143 m 132 228 q 99 254 124 249 q 108 215 108 250 q 117 213 114 213 q 132 228 132 213 m 296 67 q 290 88 290 69 q 271 97 290 97 q 244 93 261 97 q 217 86 224 88 l 217 67 q 296 67 257 69 m 165 182 q 153 189 163 189 q 121 154 121 189 q 132 142 121 142 q 147 146 135 142 q 165 182 165 167 m 335 -32 q 335 -4 335 -32 q 326 10 335 10 q 315 8 319 10 l 296 -22 l 306 -22 q 301 -25 304 -24 q 318 -30 301 -28 q 335 -32 335 -32 m 354 -61 l 325 -51 l 325 -81 l 319 -79 q 314 -94 314 -79 l 315 -110 l 344 -110 q 340 -100 340 -108 q 354 -61 340 -89 m 68 135 q 39 156 54 154 l 39 126 l 50 125 q 68 135 68 125 m 99 76 q 94 92 94 79 q 79 97 94 97 l 79 76 l 99 76 m 349 -151 q 335 -140 343 -146 l 335 -121 l 315 -121 q 319 -122 318 -121 q 308 -128 319 -125 q 296 -131 303 -129 l 296 -160 l 344 -179 q 349 -151 338 -151 m 404 -229 q 394 -179 400 -212 l 375 -179 q 368 -197 369 -185 q 364 -218 365 -215 q 335 -229 354 -221 l 335 -249 q 354 -229 349 -244 q 396 -229 354 -229 l 404 -229 m 296 -110 l 290 -110 q 283 -106 281 -110 q 289 -96 289 -96 q 281 -90 289 -90 q 265 -92 276 -90 q 253 -93 254 -93 q 240 -78 240 -93 q 244 -65 240 -74 q 249 -51 249 -57 q 240 -49 246 -49 q 183 -82 210 -49 q 147 -140 178 -89 q 225 -107 225 -124 l 207 -100 l 207 -81 q 288 -111 258 -111 q 296 -110 293 -111 m 78 -140 q 49 -131 69 -131 l 49 -150 q 78 -140 78 -150 z "},"C":{"ha":1108,"x_min":-1,"x_max":1039,"o":"m 1039 214 q 964 -89 1039 13 q 872 -179 935 -129 q 765 -240 803 -237 l 750 -242 q 715 -236 738 -243 q 682 -229 693 -229 l 671 -231 l 671 -258 q 557 -278 633 -264 q 558 -264 558 -283 q 549 -258 558 -258 l 549 -231 l 519 -231 l 510 -268 q 439 -272 439 -272 q 360 -258 396 -272 l 350 -240 q 312 -236 338 -236 q 274 -231 286 -236 q 251 -206 258 -210 q 217 -203 243 -201 l 217 -183 q 151 -136 193 -169 q 140 -140 143 -140 q 131 -121 131 -140 l 132 -108 l 169 -99 l 169 -69 l 167 -69 q 114 -61 164 -69 q 114 -81 114 -61 q 104 -89 114 -86 q 99 -64 99 -79 q 94 -42 99 -49 l 67 -32 q 47 25 61 -14 l 38 25 q 31 98 31 50 q 28 167 32 146 l 10 167 q -1 319 -1 247 q 7 414 -1 354 q 19 507 18 481 l 28 468 q 54 482 54 472 q 50 498 54 488 q 46 515 46 508 l 47 525 q 67 544 64 533 q 10 563 47 550 q 0 582 0 575 q 10 582 0 592 l 0 610 l 10 610 q 38 818 13 643 l 67 818 q 50 831 50 826 q 57 838 50 835 l 46 844 l 56 846 l 47 847 l 57 875 q 119 871 78 874 q 179 865 160 868 l 179 885 q 132 885 179 885 q 115 956 115 956 q 163 989 115 989 l 169 989 l 151 960 l 189 960 l 208 1007 q 189 989 193 1001 l 185 988 q 169 997 185 988 q 146 1003 146 997 q 199 1017 146 1006 q 203 1050 201 1033 q 232 1054 207 1054 l 236 1054 l 264 1083 q 431 1114 349 1114 q 513 1108 458 1114 q 596 1101 568 1101 q 618 1107 607 1101 q 633 1113 629 1113 l 643 1111 l 661 1083 q 693 1082 671 1082 l 714 1082 q 797 1046 797 1081 q 793 1026 797 1038 l 800 1024 q 817 1030 807 1024 q 832 1036 826 1036 l 840 1036 l 850 1017 q 907 997 871 1014 q 929 953 906 974 q 974 913 953 932 l 974 894 l 947 896 l 956 893 q 986 879 986 883 q 964 856 986 872 q 1001 856 964 856 l 1001 838 q 953 840 968 840 q 924 836 924 840 q 1001 828 950 825 q 1007 774 1003 822 q 1039 743 1008 753 l 1038 692 l 1039 667 l 888 665 q 822 667 850 665 l 803 686 q 769 690 786 690 q 681 676 778 690 q 678 757 679 717 q 651 828 672 811 q 632 833 650 829 q 619 846 619 838 q 628 856 619 850 q 638 867 638 863 q 633 875 638 871 q 542 864 600 864 q 483 865 529 864 q 425 865 447 867 q 428 871 428 868 q 408 875 428 875 l 397 875 q 396 860 394 869 q 399 844 399 846 q 397 838 399 840 l 360 818 l 357 813 q 368 808 357 803 q 360 751 368 790 q 336 724 357 746 q 321 690 321 706 q 331 619 321 703 q 317 621 336 621 q 311 610 315 621 l 340 610 q 321 468 332 564 l 283 468 l 283 450 q 331 468 297 456 l 331 224 l 350 224 l 350 204 q 328 151 328 192 q 331 119 328 139 l 350 119 q 350 97 351 111 q 347 74 347 79 l 350 63 q 385 22 379 44 q 397 -4 390 0 q 460 -24 414 -17 q 529 -32 494 -28 l 539 -69 q 547 -72 544 -72 l 567 -69 q 557 -14 565 -51 q 639 6 611 6 l 643 6 l 643 4 q 661 -14 643 -8 l 661 -8 q 656 8 663 -1 q 650 25 650 18 l 651 33 l 681 63 q 690 167 690 92 q 685 200 690 178 q 681 232 681 222 q 722 233 694 232 q 763 235 749 235 q 1039 214 843 235 m 856 839 q 832 856 856 850 l 832 838 l 847 835 q 856 839 856 835 m 835 903 q 825 906 832 906 q 800 900 817 906 q 775 894 783 894 l 775 865 q 751 861 767 861 q 728 856 735 861 q 772 844 756 844 q 785 847 776 844 q 835 903 835 885 m 785 950 l 775 989 l 746 989 q 718 950 739 974 q 681 933 717 949 q 651 913 651 922 l 651 875 l 656 875 q 669 863 667 875 q 669 840 669 851 l 671 818 l 690 818 q 699 885 692 840 q 690 878 696 883 q 679 874 683 874 l 671 875 q 699 914 685 894 q 747 921 704 921 l 756 922 q 785 950 764 933 m 671 989 q 624 997 656 992 q 604 950 621 981 q 597 942 597 943 q 624 932 597 940 l 624 969 q 671 989 644 975 m 594 1021 q 583 1028 592 1028 q 565 1015 565 1028 q 586 997 572 1001 q 594 1021 594 1011 m 624 1083 l 586 1083 l 567 1054 q 558 1060 564 1056 q 549 1065 553 1065 l 539 1064 l 529 1036 l 513 1033 q 479 1039 501 1033 q 444 1044 457 1044 q 444 1019 444 1047 q 453 1004 444 1004 q 463 1007 457 1004 l 463 989 l 458 989 q 446 983 446 989 l 454 969 q 501 989 469 978 q 519 944 510 967 q 557 922 529 922 q 563 926 563 922 q 549 960 563 936 l 561 958 q 571 965 571 958 q 557 989 571 972 q 548 983 554 988 q 536 978 542 978 l 529 979 l 557 1044 q 574 1047 561 1049 q 590 1044 593 1044 l 596 1044 l 624 1083 m 396 932 l 388 950 q 388 1026 385 988 l 360 1036 q 351 1024 351 1032 l 360 1007 l 321 997 l 378 932 l 378 922 q 388 919 383 919 q 396 932 396 919 m 349 903 q 321 913 339 913 l 321 894 q 349 903 349 894 m 168 822 q 165 825 167 824 q 161 828 163 826 q 122 856 147 836 l 122 828 q 143 824 129 828 q 165 819 157 819 q 168 822 168 819 m 307 647 q 281 664 307 653 q 246 676 263 669 q 264 639 249 675 q 307 647 307 639 m 119 804 q 94 818 110 815 l 94 800 l 107 799 q 119 804 119 799 m 258 619 q 244 622 254 622 q 217 614 232 622 q 201 593 203 606 q 215 589 208 589 q 242 599 226 589 q 258 619 258 610 m 700 58 l 699 60 q 690 63 699 63 l 699 43 q 700 58 700 38 m 738 -22 q 718 15 732 -10 l 699 15 l 708 -22 l 738 -22 m 785 -51 l 785 -32 l 765 -42 q 747 -37 760 -40 q 728 -32 735 -33 l 718 -51 q 785 -51 718 -51 m 783 -76 l 765 -61 l 765 -79 l 775 -81 q 783 -76 783 -81 m 168 599 q 153 601 164 601 l 142 601 l 122 572 q 103 574 117 571 q 83 578 89 578 q 76 574 76 578 q 90 554 90 556 q 86 540 86 535 q 104 535 86 535 l 122 563 l 125 564 q 133 558 129 564 q 144 553 138 553 l 151 554 l 151 582 q 168 599 167 592 m 263 453 q 253 463 263 463 q 244 461 250 463 q 236 460 239 460 l 226 421 l 256 421 q 254 424 254 422 q 258 439 254 429 q 263 453 263 449 m 726 -76 l 708 -61 l 708 -79 l 719 -81 q 726 -76 726 -81 m 217 393 q 214 407 214 396 q 199 413 214 413 l 199 393 l 217 393 m 738 -183 l 738 -156 l 728 -156 q 732 -131 732 -131 q 726 -117 732 -119 q 713 -117 722 -115 q 697 -118 700 -118 q 682 -103 686 -118 q 661 -89 678 -89 l 651 -89 l 661 -126 q 683 -137 672 -135 q 692 -143 693 -139 q 671 -172 678 -172 l 661 -174 l 671 -193 q 738 -183 693 -190 m 208 299 l 208 326 q 179 336 199 329 l 179 326 q 190 311 179 317 q 208 299 206 301 m 633 -156 q 633 -139 633 -156 q 624 -136 633 -136 l 633 -156 m 104 374 q 100 388 100 376 q 85 393 100 393 l 85 374 l 104 374 m 508 -44 q 497 -40 506 -40 l 492 -42 q 475 -67 475 -58 q 485 -71 476 -71 l 492 -69 q 508 -44 508 -53 m 189 261 q 142 279 185 264 q 169 299 151 286 q 158 307 167 307 l 151 308 l 151 346 l 167 344 q 179 349 179 344 q 131 365 161 365 l 122 365 l 122 336 q 114 349 114 339 l 114 356 l 85 346 q 89 349 89 347 q 57 356 89 356 q 57 346 57 351 q 56 336 56 339 q 67 326 56 325 l 57 308 l 53 310 q 50 303 50 310 q 57 271 50 296 q 104 251 74 265 l 114 251 l 122 214 q 135 211 126 211 q 157 214 139 211 q 179 214 171 217 q 189 261 182 231 m 203 133 q 185 142 203 139 q 161 147 163 146 l 161 129 q 189 119 176 125 q 203 133 203 129 m 646 -94 q 639 -90 646 -93 q 632 -83 632 -87 q 633 -79 632 -82 q 593 -103 601 -90 q 576 -156 585 -129 q 569 -157 568 -157 q 553 -151 564 -157 q 536 -144 543 -144 l 529 -146 l 482 -174 l 492 -146 q 471 -132 471 -146 q 486 -115 471 -115 q 492 -117 489 -115 l 492 -99 l 483 -97 q 444 -108 467 -97 l 444 -89 q 350 -61 404 -79 q 354 -64 353 -62 q 331 -69 354 -69 l 331 -89 q 355 -93 339 -93 q 378 -99 371 -93 l 388 -126 q 365 -115 381 -125 q 338 -104 349 -104 q 318 -118 318 -104 q 303 -126 318 -126 q 273 -118 301 -126 q 236 -108 244 -110 l 236 -146 l 264 -146 l 264 -117 q 331 -193 288 -142 q 397 -174 375 -169 q 386 -178 386 -169 q 397 -183 386 -183 l 397 -193 l 403 -193 q 422 -183 422 -193 q 419 -174 419 -178 q 435 -164 419 -164 l 435 -183 q 472 -182 431 -182 l 482 -183 l 510 -211 q 586 -221 536 -214 q 586 -183 589 -208 q 594 -171 594 -182 l 596 -164 q 617 -176 606 -176 q 624 -174 621 -176 q 611 -165 622 -165 l 604 -164 q 611 -125 611 -126 q 643 -99 617 -112 q 646 -94 646 -96 m 319 -85 q 264 -69 308 -82 l 264 -89 q 291 -88 274 -89 q 317 -86 308 -87 q 319 -85 318 -85 m 146 304 q 132 289 146 296 l 131 301 q 136 310 131 310 q 146 304 146 310 m 172 242 l 161 232 q 150 256 150 246 q 156 261 150 261 q 172 242 169 261 z "},"D":{"ha":1267,"x_min":-3,"x_max":1165,"o":"m 1139 690 l 1117 678 q 1089 706 1089 699 q 1093 708 1089 708 q 1139 690 1139 708 m 1138 651 q 1131 647 1138 647 l 1128 649 q 1107 667 1107 663 q 1113 669 1107 669 q 1138 651 1138 669 m 1165 179 q 1097 -76 1165 44 q 1069 -62 1081 -62 q 1057 -67 1064 -62 q 1074 -99 1074 -94 q 1067 -97 1069 -100 l 1067 -117 q 1007 -126 1046 -117 q 985 -157 1000 -129 q 953 -179 972 -179 q 936 -157 936 -179 l 949 -158 q 958 -154 958 -158 q 915 -137 958 -137 l 906 -178 q 919 -174 913 -174 q 924 -176 924 -174 q 875 -197 924 -187 q 794 -218 839 -204 l 794 -228 l 790 -228 q 770 -223 783 -229 q 750 -217 757 -217 l 744 -218 l 744 -237 l 756 -236 l 757 -236 q 735 -247 757 -236 q 731 -236 728 -242 q 733 -224 733 -224 q 714 -218 733 -218 l 704 -237 q 710 -235 710 -237 q 685 -228 710 -228 l 704 -247 q 638 -247 671 -247 q 574 -237 590 -246 q 572 -236 574 -237 q 577 -234 572 -235 q 592 -231 582 -233 q 603 -226 603 -229 q 592 -214 603 -221 q 574 -207 581 -207 l 574 -197 l 593 -197 q 694 -207 636 -197 l 704 -187 q 674 -179 690 -185 q 815 -178 721 -178 l 815 -147 q 806 -144 810 -144 q 807 -154 804 -144 q 803 -158 807 -158 l 794 -157 l 765 -126 l 756 -126 q 714 -137 740 -126 q 675 -147 688 -147 q 615 -133 678 -147 q 594 -126 596 -128 q 559 -128 582 -126 q 525 -131 536 -131 q 493 -126 508 -131 l 474 -97 l 464 -96 q 425 -106 428 -96 q 443 -107 428 -107 l 443 -126 q 429 -129 435 -129 q 382 -117 432 -129 l 382 -137 q 363 -127 368 -137 q 342 -117 357 -117 q 322 -137 340 -122 l 332 -167 l 301 -178 q 301 -165 299 -176 q 306 -150 306 -151 q 60 -126 306 -117 q 71 -36 64 -97 q 50 -40 61 -40 q 19 -36 42 -36 q 33 -83 33 -87 q 10 -107 28 -97 q 14 -1 14 -56 q 7 222 14 72 q 0 447 0 372 q 21 450 1 447 q 33 458 33 451 q 24 463 31 460 l 0 467 l 0 578 q 17 579 11 582 q 29 576 28 576 q 49 588 35 576 q 64 606 64 600 q 40 628 64 617 q 71 638 50 635 l 71 668 q 113 676 88 676 q 157 676 135 676 l 181 678 l 161 699 q 131 701 151 701 q 67 695 110 701 q 3 689 25 689 l 0 689 l 0 729 l 31 729 q 7 738 28 738 l 0 739 l 0 1061 q 33 1060 -3 1060 l 40 1061 l 50 1081 l 69 1083 l 10 1081 q 0 1103 0 1093 l 10 1111 q 81 1115 46 1115 q 222 1108 128 1115 q 363 1101 315 1101 q 562 1105 429 1101 q 760 1108 694 1108 q 815 1101 793 1108 l 825 1081 q 856 1076 835 1078 q 886 1071 876 1075 l 886 1040 q 914 1039 897 1036 q 942 1043 938 1043 q 967 1011 964 1043 q 1007 990 981 1006 q 999 967 1000 985 q 996 940 997 954 q 977 939 996 940 q 958 935 958 938 q 976 919 963 928 l 986 890 l 1017 900 q 1026 931 1019 903 l 1047 931 q 1088 879 1064 914 l 1088 850 l 1107 850 q 1108 821 1111 838 l 1107 758 l 1088 758 q 1057 860 1076 792 q 996 879 1050 861 l 996 839 l 1022 842 l 1036 839 q 1040 826 1040 838 q 1047 810 1040 814 l 1036 769 q 956 781 969 781 q 949 778 949 782 q 993 761 949 771 q 1047 749 1019 754 l 1057 729 q 1047 733 1049 733 q 1036 711 1036 733 l 1036 708 q 1076 689 1053 704 l 1075 668 l 1076 658 l 1117 628 q 1076 628 1107 625 q 1067 538 1076 599 q 1081 539 1072 540 q 1093 536 1092 536 q 1113 553 1101 536 q 1128 578 1121 565 q 1138 426 1132 528 q 1088 447 1125 435 l 1076 407 l 1088 407 l 1088 386 q 1113 394 1113 390 q 1107 397 1111 396 l 1128 397 l 1138 426 q 1153 303 1139 388 q 1165 179 1165 224 m 531 -194 q 514 -207 525 -207 q 506 -181 506 -182 q 510 -176 506 -176 q 531 -194 531 -176 m 533 -258 q 522 -260 525 -258 q 522 -264 521 -261 q 524 -272 524 -269 l 524 -278 q 332 -247 460 -272 l 313 -278 q 296 -262 296 -269 q 301 -258 297 -260 q 282 -247 296 -254 q 313 -197 290 -231 q 368 -210 321 -199 q 422 -218 401 -218 q 463 -207 443 -218 q 533 -258 497 -217 m 99 -168 q 74 -187 92 -187 q 33 -164 33 -187 q 68 -146 43 -146 q 99 -168 99 -146 m 192 -278 q 150 -280 178 -278 q 110 -282 122 -282 q 43 -262 57 -282 q 31 -197 39 -254 l 40 -197 q 171 -207 74 -197 q 192 -278 171 -207 m 861 992 q 815 1000 844 1000 l 825 981 q 861 992 861 981 m 781 996 l 765 1000 l 765 1031 l 744 1031 l 725 1011 q 781 996 744 1004 m 1017 708 q 1013 724 1013 711 q 996 729 1013 729 l 996 708 l 1017 708 m 706 985 q 675 1021 706 1006 l 685 981 q 699 976 697 976 q 706 985 706 976 m 968 699 q 956 708 968 704 l 956 729 l 926 729 l 926 708 q 944 703 932 708 q 964 697 957 697 q 968 699 967 697 m 792 894 q 754 950 792 913 l 694 950 q 714 890 700 939 l 722 890 q 738 885 728 892 q 753 878 747 878 l 765 879 l 765 900 q 788 890 778 890 q 792 894 792 890 m 694 910 l 675 940 l 554 940 l 574 910 l 579 910 q 594 919 593 910 q 622 924 607 924 q 660 917 636 924 q 694 910 685 911 m 1088 507 q 1036 517 1065 514 l 1036 538 q 967 549 1011 544 q 896 557 917 551 q 894 576 894 564 q 886 588 894 579 l 875 568 l 915 517 q 932 517 921 514 q 947 519 944 519 q 956 517 953 519 q 975 476 954 490 q 1017 447 996 461 q 1022 474 1018 471 q 1049 476 1026 476 q 1057 476 1057 476 l 1067 507 l 1088 507 m 890 611 q 882 634 890 619 q 865 649 874 649 l 856 649 l 865 608 q 882 601 879 601 q 890 611 890 601 m 500 1003 q 422 1061 500 1014 q 426 1054 426 1060 q 413 1021 426 1046 q 463 1021 413 1021 l 463 1000 q 488 997 479 997 q 500 1003 500 997 m 554 900 q 519 921 519 907 q 524 950 519 928 l 503 949 q 493 950 497 949 l 493 971 q 463 981 475 974 q 493 910 472 957 l 524 910 l 524 890 l 529 889 q 554 900 540 889 m 1135 281 q 1107 296 1124 293 l 1107 276 l 1121 275 q 1135 281 1135 275 m 363 1061 q 292 1092 342 1068 l 292 1085 q 326 1057 292 1057 q 363 1061 344 1057 m 382 1021 q 353 1031 372 1031 l 353 1011 q 382 1021 382 1011 m 463 879 q 422 924 443 901 q 372 950 397 950 q 344 924 344 950 q 372 910 350 907 l 372 890 q 382 888 378 888 q 399 894 389 888 q 413 900 408 900 q 463 879 446 883 m 328 1011 q 282 1021 328 1021 q 264 1000 267 1008 q 271 999 267 999 q 293 1007 293 999 l 274 1008 q 321 1010 282 1010 q 328 1011 325 1010 m 353 981 q 301 990 336 982 q 344 958 326 958 q 353 981 347 958 m 1138 175 q 1107 196 1117 196 l 1097 175 l 1117 165 q 1111 168 1111 167 q 1138 175 1111 175 m 1107 215 q 1036 246 1083 225 l 1076 196 q 1088 193 1085 193 q 1099 203 1094 193 q 1107 215 1104 214 m 938 353 q 932 356 938 354 q 926 357 926 357 q 835 367 865 365 l 838 365 q 815 346 838 363 l 825 326 q 896 326 825 326 l 886 346 q 926 350 900 347 q 938 353 938 351 m 214 982 q 181 1000 207 997 l 192 971 l 200 969 q 214 982 214 969 m 1082 76 q 1064 85 1079 85 q 1050 81 1050 85 q 1076 64 1050 78 q 1082 76 1082 72 m 157 976 q 110 1019 157 985 q 50 1061 79 1040 l 60 1011 q 76 1008 65 1007 q 93 1011 94 1011 q 116 992 101 1011 q 154 974 131 974 q 157 976 157 974 m 181 940 q 178 954 178 942 q 161 960 178 960 l 161 940 l 181 940 m 1057 336 q 976 397 1032 358 l 976 407 q 987 415 982 406 q 992 429 992 424 q 967 447 988 447 l 967 476 q 886 447 940 468 q 875 497 886 465 l 875 528 q 815 528 875 528 q 815 578 815 528 l 808 576 q 804 582 801 576 l 815 608 l 824 608 q 836 603 829 608 q 847 597 843 597 l 856 597 l 856 618 q 806 628 851 619 l 794 678 q 818 683 811 683 q 815 678 821 683 l 846 678 q 860 669 851 676 q 875 658 869 661 l 865 689 q 838 698 858 694 q 818 704 818 701 q 856 739 832 715 l 832 738 q 810 742 810 736 q 835 749 818 749 l 833 783 l 835 799 l 794 810 q 775 758 792 799 q 790 732 790 757 q 785 699 790 714 q 760 744 776 707 q 735 789 744 782 q 535 843 672 836 q 322 860 351 853 q 328 847 328 856 l 333 846 l 353 839 q 357 708 354 774 q 372 578 358 631 q 357 578 372 578 q 353 568 353 578 l 372 568 l 372 538 l 353 528 l 372 528 q 374 497 372 518 q 376 465 376 476 q 372 436 376 465 q 350 418 350 425 q 353 417 351 418 l 372 417 l 372 -26 l 403 -26 q 594 -6 536 -26 q 664 35 617 11 q 685 32 678 32 q 694 35 689 32 l 744 94 l 765 94 q 778 141 775 110 q 785 185 781 172 l 806 196 l 807 208 q 801 269 807 229 q 794 329 794 310 l 794 336 l 815 357 q 825 457 817 365 q 856 447 826 453 l 856 426 l 853 428 q 846 421 846 428 q 865 407 846 407 q 863 414 863 408 q 875 426 863 422 q 896 386 879 411 q 945 374 908 375 q 996 367 982 374 l 1007 336 q 1022 335 1015 333 l 1057 336 m 1024 79 q 996 94 1013 92 l 996 75 l 1010 74 q 1024 79 1024 74 m 201 890 q 181 919 196 894 l 151 919 q 167 897 157 917 q 189 878 178 878 q 201 890 199 878 m 232 810 q 228 824 228 811 q 211 829 228 829 l 211 810 l 232 810 m 322 758 q 322 819 322 758 q 307 819 322 819 q 301 829 311 819 l 292 839 l 297 838 q 300 842 300 839 q 292 869 300 853 q 281 871 288 871 l 261 869 q 271 836 265 860 l 261 819 q 276 819 261 819 q 282 810 281 819 q 261 789 269 807 q 238 786 254 786 q 131 799 213 786 q 181 729 143 786 q 232 749 199 736 l 221 769 l 236 771 q 283 750 258 771 q 313 729 307 729 q 318 735 318 729 q 317 742 318 736 q 315 750 315 749 q 322 758 315 757 m 146 831 q 128 840 142 840 q 114 836 114 839 q 140 819 114 826 q 146 831 146 825 m 878 83 q 846 94 878 94 l 875 75 q 878 83 878 76 m 113 835 q 81 850 104 847 l 90 829 l 101 828 q 113 835 113 828 m 999 -69 q 975 -56 999 -56 q 958 -58 961 -56 q 996 -76 958 -67 l 999 -69 m 351 540 q 301 578 351 547 l 322 528 q 351 540 351 528 m 304 599 q 284 621 304 610 q 251 632 264 632 q 231 630 244 632 q 211 628 218 628 q 247 606 229 617 q 294 594 264 594 q 304 599 304 594 m 108 722 q 90 739 104 731 l 90 718 l 101 717 q 108 722 108 717 m 889 -167 q 856 -147 882 -150 l 865 -178 l 874 -178 q 889 -167 889 -178 m 240 367 q 201 386 233 372 l 201 367 l 235 365 l 240 367 m 708 -96 q 692 -86 708 -86 q 678 -90 678 -86 q 704 -107 678 -94 q 708 -96 708 -103 m 686 -64 q 644 -46 676 -53 l 644 -26 l 635 -25 q 604 -26 601 -25 q 604 -43 604 -26 q 594 -46 604 -46 q 564 -26 581 -26 q 567 -31 567 -28 q 554 -57 567 -36 q 582 -62 563 -57 q 611 -68 601 -68 l 624 -67 q 644 -46 629 -47 q 686 -64 681 -64 m 172 360 q 158 367 168 367 q 135 353 149 367 q 121 331 122 340 q 133 325 125 325 q 159 336 146 325 q 172 360 172 347 m 108 318 q 90 326 103 326 l 81 306 q 108 318 108 313 m 332 75 q 310 86 324 86 l 301 85 l 301 75 q 297 73 300 74 q 292 71 293 72 l 294 71 q 332 75 314 71 m 292 35 l 282 64 l 251 64 l 261 24 q 243 19 243 24 q 272 4 258 10 q 278 24 272 4 q 292 35 279 31 m 272 -117 q 268 -101 268 -114 q 261 -96 268 -96 q 240 -103 240 -96 q 272 -117 251 -108 m 201 -57 q 197 -42 197 -54 q 181 -36 197 -36 l 181 -57 l 201 -57 m 763 915 l 754 900 q 732 914 732 907 q 754 921 738 921 q 763 915 763 921 m 840 493 q 825 488 835 488 l 835 467 l 815 467 q 814 497 814 456 q 825 517 814 518 l 835 497 l 840 493 z "},"E":{"ha":1200,"x_min":-6,"x_max":1163,"o":"m 739 894 l 719 894 l 719 875 l 679 894 l 710 914 q 700 926 700 921 l 710 943 l 739 914 l 739 894 m 867 490 q 808 500 844 492 l 818 531 q 788 540 801 533 l 788 560 q 743 569 786 560 q 710 592 710 578 q 750 601 710 601 q 857 589 749 601 q 867 490 863 526 m 701 588 q 689 569 701 582 l 685 569 q 678 575 678 567 l 689 589 l 697 590 q 701 588 701 590 m 754 524 l 739 510 l 735 510 q 717 522 717 510 l 729 531 l 742 531 q 754 524 754 531 m 689 536 q 683 529 689 529 l 679 531 q 671 565 671 550 q 674 571 671 571 q 679 569 676 571 q 689 536 689 543 m 640 569 q 617 590 617 583 q 633 599 621 599 q 635 585 638 599 q 640 569 633 572 m 1163 -12 q 1143 -268 1160 -99 q 1076 -272 1110 -272 q 1006 -270 1053 -272 q 936 -268 958 -268 q 949 -199 949 -218 q 936 -131 949 -181 l 929 -131 q 876 -121 940 -131 q 875 -142 875 -114 q 886 -150 875 -153 l 876 -169 q 828 -160 861 -167 q 856 -79 856 -97 l 847 -61 q 825 -71 844 -71 l 818 -71 q 818 -140 818 -71 q 794 -160 794 -147 q 808 -208 794 -162 l 788 -218 l 768 -218 l 768 -169 q 718 -155 742 -157 q 669 -150 694 -153 l 669 -131 q 664 -128 668 -128 q 650 -140 653 -128 q 689 -179 650 -140 l 682 -179 q 669 -190 669 -176 q 669 -218 669 -218 l 689 -218 l 689 -199 l 710 -179 l 710 -229 q 729 -231 717 -232 q 749 -226 746 -226 q 758 -229 756 -226 l 739 -268 l 246 -268 q 249 -262 249 -267 q 244 -250 249 -258 q 240 -236 240 -242 q 265 -229 240 -224 l 286 -199 q 319 -194 300 -193 q 354 -199 353 -199 l 354 -179 q 301 -181 363 -181 l 286 -179 q 254 -158 288 -158 l 246 -160 l 246 -179 q 188 -189 226 -182 q 213 -199 200 -193 q 233 -211 233 -206 q 188 -249 203 -233 l 147 -218 q 132 -219 142 -217 q 118 -221 122 -221 q 108 -218 111 -221 l 128 -189 l 108 -189 l 110 -156 l 108 -140 l 111 -140 q 119 -122 119 -140 q 110 -108 119 -108 q 75 -143 83 -108 q 69 -199 72 -171 q 108 -208 83 -199 l 79 -208 q 60 -239 75 -228 l 58 -242 q 64 -254 58 -244 q 69 -272 69 -264 l 69 -278 l 39 -278 l 40 -257 q 36 -168 43 -224 q 29 -79 29 -104 q 34 -51 29 -69 q 39 -24 39 -32 l 39 -22 l 19 -12 l 19 107 q 6 107 17 106 q -6 110 -6 107 q 7 115 -6 113 q 19 117 19 117 l 19 215 l 69 235 q 85 208 79 226 q 100 183 90 189 q 161 174 118 174 q 186 179 186 174 q 178 185 186 183 q 163 197 164 190 q 157 215 158 214 l 128 215 l 138 244 q 121 258 131 250 q 147 264 128 264 l 147 283 q 128 303 136 285 l 117 306 q 83 297 103 306 q 49 283 54 285 q 35 350 35 353 q 56 383 35 364 q 89 411 72 397 l 89 442 l 49 439 l 29 442 q 43 640 42 525 q 42 840 42 540 q 60 1101 42 871 l 79 1111 q 203 1101 121 1111 q 325 1092 285 1092 q 408 1097 353 1092 q 493 1101 464 1101 l 472 1063 q 494 1077 490 1065 q 503 1101 499 1089 q 615 1111 540 1101 q 728 1121 690 1121 q 797 1111 774 1121 l 797 1092 q 838 1072 813 1086 q 843 1099 840 1082 l 838 1111 l 857 1111 q 896 1082 867 1097 l 896 1042 q 924 1053 924 1049 q 917 1063 924 1056 q 960 1071 938 1067 q 1004 1101 969 1074 l 1011 1101 q 1021 1090 1021 1101 q 1043 1078 1021 1078 q 1074 1088 1057 1078 q 1103 1101 1096 1100 q 1093 846 1100 1017 l 1060 844 l 719 846 q 767 918 767 906 l 758 933 q 835 953 796 943 q 893 985 894 969 l 886 1003 q 857 983 868 999 l 849 982 q 837 988 843 982 q 826 994 831 994 l 818 993 l 818 974 q 689 974 775 971 q 680 946 685 960 q 661 932 675 932 q 638 943 649 932 q 618 954 628 954 l 611 954 l 621 924 q 601 904 613 919 q 615 899 615 900 l 611 894 q 592 858 619 858 q 563 861 581 858 q 532 865 540 865 q 542 921 542 872 q 536 971 542 963 q 504 978 532 974 q 493 983 497 979 q 513 964 496 974 l 513 958 q 503 933 513 950 q 511 917 511 929 l 513 904 q 517 910 513 910 q 522 894 522 910 q 468 838 496 844 q 385 835 460 835 q 354 628 371 767 q 325 639 344 632 l 325 658 q 311 660 321 660 q 265 658 260 660 q 260 640 265 658 q 246 628 258 633 q 258 608 258 618 q 256 599 258 601 q 233 603 246 603 q 207 569 210 603 q 196 568 201 567 q 185 571 186 571 q 178 569 181 571 l 178 550 q 153 539 154 539 l 153 539 l 154 538 q 138 510 154 532 q 169 510 138 510 q 178 540 189 510 q 231 546 204 542 q 256 579 257 550 q 306 589 274 579 l 315 618 l 319 619 q 360 603 333 619 q 417 588 388 588 q 499 593 444 588 q 581 599 554 599 l 592 569 l 586 569 q 577 561 581 571 q 571 550 574 551 q 595 551 579 550 q 618 553 611 553 q 630 551 622 553 q 640 550 638 550 l 640 531 q 669 510 651 522 q 601 519 592 519 q 579 518 581 519 q 585 514 582 518 q 581 510 588 511 q 710 471 619 500 l 710 451 l 713 451 q 743 464 743 451 q 669 510 743 474 q 739 500 693 511 l 739 481 q 765 432 757 471 q 797 400 772 400 q 803 408 803 400 q 796 437 803 418 q 788 461 789 456 l 867 461 l 867 343 q 844 360 844 343 q 857 392 844 376 q 850 406 856 394 q 847 422 846 411 l 818 422 q 818 357 818 422 l 818 343 q 701 350 785 343 q 585 354 626 356 l 551 353 l 532 333 q 474 326 507 326 q 414 330 454 326 q 354 333 374 333 q 354 254 354 333 q 339 256 360 256 q 335 250 335 256 l 335 244 l 364 235 l 364 -12 q 428 -14 386 -14 q 549 -7 468 -14 q 669 0 629 0 q 768 -11 703 0 q 867 -22 833 -22 q 896 -1 879 -22 l 1007 0 l 1054 -1 l 1074 -32 q 1094 -16 1090 -32 q 1117 0 1099 0 q 1142 -6 1126 0 q 1163 -12 1158 -12 m 906 -258 l 876 -258 q 849 -219 849 -231 q 851 -218 849 -218 q 865 -231 865 -218 l 867 -239 l 894 -237 q 906 -239 900 -236 l 906 -258 m 103 269 q 89 254 103 261 l 88 265 q 93 275 88 275 q 103 269 103 275 m 42 258 l 19 235 q 18 256 18 228 q 29 264 18 264 q 42 258 42 264 m 188 -249 l 168 -278 q 115 -257 115 -271 q 154 -247 126 -246 l 188 -249 m 818 1013 q 814 1026 814 1015 q 797 1032 814 1032 l 797 1013 l 818 1013 m 542 1063 q 538 1076 538 1064 q 522 1082 538 1082 l 522 1063 l 542 1063 m 532 1042 q 493 1051 518 1043 l 493 993 l 522 993 q 518 1004 518 997 q 532 1042 518 1019 m 372 840 q 335 856 357 853 l 354 835 l 358 835 q 372 840 372 835 m 1110 -92 q 1094 -81 1110 -89 q 1074 -71 1079 -72 l 1093 -90 q 1107 -93 1101 -93 q 1110 -92 1108 -93 m 535 486 q 503 500 525 497 l 513 481 l 522 479 q 535 486 535 479 m 472 525 q 461 531 471 531 q 442 518 442 531 q 463 500 449 504 q 472 525 472 517 m 1063 -81 q 1035 -71 1053 -71 l 1035 -90 q 1063 -81 1063 -90 m 608 368 q 581 382 596 381 l 581 363 l 594 361 q 608 368 608 361 m 1071 -115 q 1044 -100 1060 -103 l 1044 -121 l 1057 -121 q 1071 -115 1071 -121 m 503 471 q 463 471 483 469 l 472 432 q 500 440 500 432 q 494 456 494 449 l 503 471 m 457 460 q 411 485 443 485 q 388 483 404 485 q 364 481 372 481 l 364 461 q 438 451 422 451 q 457 460 457 451 m 340 489 q 329 493 336 493 q 304 483 318 493 q 290 463 290 474 q 301 458 293 458 q 326 468 313 458 q 340 489 340 478 m 379 401 l 335 422 l 344 392 q 364 394 354 393 q 379 401 379 397 m 256 382 q 253 396 253 385 q 236 401 253 401 l 236 382 l 256 382 m 217 401 l 188 401 q 207 382 188 397 l 206 356 q 206 351 203 353 l 210 364 l 217 401 m 150 389 q 147 401 135 396 q 118 422 140 410 l 138 392 l 150 389 m 606 -149 q 542 -131 606 -143 l 532 -150 q 593 -150 532 -150 q 606 -149 600 -150 m 183 215 q 157 235 176 224 l 168 215 q 181 213 174 213 q 183 215 183 213 m 381 -67 q 364 -60 375 -60 q 351 -65 351 -60 q 364 -81 351 -72 q 381 -67 381 -81 m 256 28 q 253 43 253 29 q 246 49 253 49 q 225 42 225 49 q 256 28 243 32 m 188 76 l 178 107 l 147 97 l 147 126 l 118 126 l 108 86 q 188 76 135 85 m 394 -150 q 390 -136 390 -147 q 375 -131 390 -131 l 375 -150 l 394 -150 m 178 57 l 138 57 q 111 57 131 58 q 92 53 92 56 l 168 38 l 178 57 m 129 -36 q 118 28 129 -14 q 99 -61 104 -7 l 106 -61 q 121 -56 121 -61 q 118 -51 121 -54 l 122 -53 q 129 -36 129 -53 z "}}}
